<svg width="602" height="328" viewBox="0 0 602 328" fill="none" xmlns="http://www.w3.org/2000/svg" xmlns:xlink="http://www.w3.org/1999/xlink">
<path d="M28.8054 177.95C24.4915 177.95 20.9944 174.38 20.9944 169.975C20.9944 165.571 24.4916 162 28.8054 162C33.1192 162 36.6163 165.571 36.6163 169.975C36.6163 174.38 33.1192 177.95 28.8054 177.95Z" fill="#3F83F8"/>
<path d="M7.81098 177.95C3.4971 177.95 3.36907e-05 174.38 3.40758e-05 169.975C3.44609e-05 165.571 3.4971 162 7.81098 162C12.1249 162 15.6218 165.571 15.6218 169.975C15.6218 174.38 12.1248 177.95 7.81098 177.95Z" fill="#3F83F8"/>
<path d="M28.8054 199.386C24.4915 199.386 20.9944 195.815 20.9944 191.411C20.9944 187.006 24.4916 183.436 28.8054 183.436C33.1192 183.436 36.6163 187.006 36.6163 191.411C36.6163 195.815 33.1192 199.386 28.8054 199.386Z" fill="#3F83F8"/>
<path d="M28.8054 220.822C24.4915 220.822 20.9944 217.251 20.9944 212.846C20.9944 208.442 24.4916 204.871 28.8054 204.871C33.1192 204.871 36.6163 208.442 36.6163 212.846C36.6163 217.251 33.1192 220.822 28.8054 220.822Z" fill="#3F83F8"/>
<path d="M28.8054 242.257C24.4915 242.257 20.9944 238.687 20.9944 234.282C20.9944 229.878 24.4916 226.307 28.8054 226.307C33.1192 226.307 36.6163 229.878 36.6163 234.282C36.6163 238.687 33.1192 242.257 28.8054 242.257Z" fill="#3F83F8"/>
<path d="M7.81098 226.307C12.1248 226.307 15.6218 229.878 15.6218 234.282C15.6218 238.687 12.1248 242.257 7.81098 242.257C3.49715 242.257 3.36907e-05 238.687 3.40758e-05 234.282C3.44609e-05 229.878 3.4971 226.307 7.81098 226.307Z" fill="#3F83F8"/>
<path d="M323.189 290.614C318.875 290.614 315.378 294.185 315.378 298.589C315.378 302.994 318.875 306.564 323.189 306.564C327.503 306.564 331 302.994 331 298.589C331 294.185 327.503 290.614 323.189 290.614Z" fill="#3F83F8"/>
<path d="M302.195 290.614C297.881 290.614 294.384 294.185 294.384 298.589C294.384 302.994 297.881 306.564 302.195 306.564C306.509 306.564 310.006 302.994 310.006 298.589C310.006 294.185 306.509 290.614 302.195 290.614Z" fill="#3F83F8"/>
<path d="M323.189 312.05C318.875 312.05 315.378 315.62 315.378 320.025C315.378 324.429 318.875 328 323.189 328C327.503 328 331 324.429 331 320.025C331 315.62 327.503 312.05 323.189 312.05Z" fill="#3F83F8"/>
<path d="M302.195 312.05C297.881 312.05 294.384 315.62 294.384 320.025C294.384 324.429 297.881 328 302.195 328C306.509 328 310.006 324.429 310.006 320.025C310.006 315.62 306.509 312.05 302.195 312.05Z" fill="#3F83F8"/>
<path d="M281.2 312.05C276.886 312.05 273.389 315.62 273.389 320.025C273.389 324.429 276.886 328 281.2 328C285.514 328 289.011 324.429 289.011 320.025C289.011 315.62 285.514 312.05 281.2 312.05Z" fill="#3F83F8"/>
<path d="M260.206 312.05C255.892 312.05 252.395 315.62 252.395 320.025C252.395 324.429 255.892 328 260.206 328C264.52 328 268.017 324.429 268.017 320.025C268.017 315.62 264.52 312.05 260.206 312.05Z" fill="#3F83F8"/>
<path d="M238.98 290.614C234.667 290.614 231.169 294.185 231.169 298.589C231.169 302.994 234.667 306.564 238.98 306.564C243.294 306.564 246.791 302.994 246.791 298.589C246.791 294.185 243.294 290.614 238.98 290.614Z" fill="#3F83F8"/>
<path d="M217.986 290.614C213.672 290.614 210.175 294.185 210.175 298.589C210.175 302.994 213.672 306.564 217.986 306.564C222.3 306.564 225.797 302.994 225.797 298.589C225.797 294.185 222.3 290.614 217.986 290.614Z" fill="#3F83F8"/>
<path d="M238.98 312.05C234.667 312.05 231.169 315.62 231.169 320.025C231.169 324.429 234.667 328 238.98 328C243.294 328 246.791 324.429 246.791 320.025C246.791 315.62 243.294 312.05 238.98 312.05Z" fill="#3F83F8"/>
<path d="M217.986 312.05C213.672 312.05 210.175 315.62 210.175 320.025C210.175 324.429 213.672 328 217.986 328C222.3 328 225.797 324.429 225.797 320.025C225.797 315.62 222.3 312.05 217.986 312.05Z" fill="#3F83F8"/>
<path d="M175.997 290.614C171.683 290.614 168.186 294.185 168.186 298.589C168.186 302.994 171.683 306.564 175.997 306.564C180.311 306.564 183.808 302.994 183.808 298.589C183.808 294.185 180.311 290.614 175.997 290.614Z" fill="#3F83F8"/>
<path d="M196.992 312.05C192.678 312.05 189.181 315.62 189.181 320.025C189.181 324.429 192.678 328 196.992 328C201.305 328 204.802 324.429 204.802 320.025C204.802 315.62 201.305 312.05 196.992 312.05Z" fill="#3F83F8"/>
<path d="M28.8054 263.693C24.4915 263.693 20.9944 260.122 20.9944 255.718C20.9944 251.313 24.4916 247.743 28.8054 247.743C33.1192 247.743 36.6163 251.313 36.6163 255.718C36.6163 260.122 33.1192 263.693 28.8054 263.693Z" fill="#3F83F8"/>
<path d="M7.81098 247.743C12.1248 247.743 15.6218 251.313 15.6218 255.718C15.6218 260.122 12.1248 263.693 7.81098 263.693C3.49715 263.693 3.36908e-05 260.122 3.40758e-05 255.718C3.44609e-05 251.313 3.4971 247.743 7.81098 247.743Z" fill="#3F83F8"/>
<path d="M28.8054 285.129C24.4915 285.129 20.9944 281.558 20.9944 277.154C20.9944 272.749 24.4916 269.179 28.8054 269.179C33.1192 269.179 36.6163 272.749 36.6163 277.154C36.6163 281.558 33.1192 285.129 28.8054 285.129Z" fill="#3F83F8"/>
<path d="M7.81098 269.179C12.1248 269.179 15.6218 272.749 15.6218 277.154C15.6218 281.558 12.1248 285.129 7.81098 285.129C3.49715 285.129 3.36908e-05 281.558 3.40758e-05 277.154C3.44609e-05 272.749 3.4971 269.179 7.81098 269.179Z" fill="#3F83F8"/>
<path d="M155.003 290.614C150.689 290.614 147.192 294.185 147.192 298.589C147.192 302.994 150.689 306.564 155.003 306.564C159.317 306.564 162.814 302.994 162.814 298.589C162.814 294.185 159.317 290.614 155.003 290.614Z" fill="#3F83F8"/>
<path d="M134.008 290.614C129.695 290.614 126.198 294.185 126.198 298.589C126.198 302.994 129.695 306.564 134.008 306.564C138.322 306.564 141.819 302.994 141.819 298.589C141.819 294.185 138.322 290.614 134.008 290.614Z" fill="#3F83F8"/>
<path d="M155.003 312.05C150.689 312.05 147.192 315.62 147.192 320.025C147.192 324.429 150.689 328 155.003 328C159.317 328 162.814 324.429 162.814 320.025C162.814 315.62 159.317 312.05 155.003 312.05Z" fill="#3F83F8"/>
<path d="M134.008 312.05C129.695 312.05 126.198 315.62 126.198 320.025C126.198 324.429 129.695 328 134.008 328C138.322 328 141.819 324.429 141.819 320.025C141.819 315.62 138.322 312.05 134.008 312.05Z" fill="#3F83F8"/>
<path d="M113.014 290.614C108.7 290.614 105.203 294.185 105.203 298.589C105.203 302.994 108.7 306.564 113.014 306.564C117.328 306.564 120.825 302.994 120.825 298.589C120.825 294.185 117.328 290.614 113.014 290.614Z" fill="#3F83F8"/>
<path d="M92.0196 290.614C96.3334 290.614 99.8306 294.185 99.8306 298.589C99.8306 302.994 96.3334 306.564 92.0196 306.564C87.7058 306.564 84.2087 302.994 84.2087 298.589C84.2087 294.185 87.7057 290.614 92.0196 290.614Z" fill="#3F83F8"/>
<path d="M113.014 312.05C108.7 312.05 105.203 315.62 105.203 320.025C105.203 324.429 108.7 328 113.014 328C117.328 328 120.825 324.429 120.825 320.025C120.825 315.62 117.328 312.05 113.014 312.05Z" fill="#3F83F8"/>
<path d="M92.0196 312.05C96.3334 312.05 99.8306 315.62 99.8306 320.025C99.8306 324.429 96.3334 328 92.0196 328C87.7058 328 84.2087 324.429 84.2087 320.025C84.2087 315.62 87.7057 312.05 92.0196 312.05Z" fill="#3F83F8"/>
<path d="M70.7941 290.614C66.4803 290.614 62.9832 294.185 62.9832 298.589C62.9832 302.994 66.4803 306.564 70.7941 306.564C75.1079 306.564 78.605 302.994 78.605 298.589C78.605 294.185 75.1079 290.614 70.7941 290.614Z" fill="#3F83F8"/>
<path d="M49.7997 290.614C45.4859 290.614 41.9888 294.185 41.9888 298.589C41.9888 302.994 45.4859 306.564 49.7997 306.564C54.1135 306.564 57.6106 302.994 57.6106 298.589C57.6106 294.185 54.1135 290.614 49.7997 290.614Z" fill="#3F83F8"/>
<path d="M70.7941 312.05C66.4803 312.05 62.9832 315.62 62.9832 320.025C62.9832 324.429 66.4803 328 70.7941 328C75.1079 328 78.605 324.429 78.605 320.025C78.605 315.62 75.1079 312.05 70.7941 312.05Z" fill="#3F83F8"/>
<path d="M49.7997 312.05C45.4859 312.05 41.9888 315.62 41.9888 320.025C41.9888 324.429 45.4859 328 49.7997 328C54.1135 328 57.6106 324.429 57.6106 320.025C57.6106 315.62 54.1135 312.05 49.7997 312.05Z" fill="#3F83F8"/>
<path d="M28.8054 306.564C24.4915 306.564 20.9944 302.994 20.9944 298.589C20.9944 294.185 24.4916 290.614 28.8054 290.614C33.1192 290.614 36.6163 294.185 36.6163 298.589C36.6163 302.994 33.1192 306.564 28.8054 306.564Z" fill="#3F83F8"/>
<path d="M7.81092 312.05C12.1248 312.05 15.6217 315.62 15.6217 320.025C15.6217 324.429 12.1248 328 7.81092 328C3.49709 328 -2.73444e-05 324.429 -2.69594e-05 320.025C-2.65743e-05 315.62 3.49704 312.05 7.81092 312.05Z" fill="#3F83F8"/>
<path d="M264.853 304.975C264.7 305.091 264.544 305.198 264.386 305.301C260.975 307.527 256.395 306.714 253.938 303.349C251.368 299.829 252.082 294.829 255.53 292.205C258.106 290.245 261.489 290.156 264.108 291.704C264.45 291.906 264.779 292.136 265.091 292.393C272.187 297.084 268.6 298.195 275.822 292.845C276.05 292.621 276.293 292.408 276.553 292.21C276.711 292.09 276.873 291.979 277.037 291.873C280.446 289.661 285.016 290.477 287.468 293.836C290.038 297.356 289.324 302.356 285.876 304.98C283.462 306.817 280.192 307.051 277.556 305.627C277.375 305.529 277.197 305.424 277.023 305.311C276.868 305.199 276.712 305.089 276.552 304.979C276.392 304.857 276.237 304.728 276.087 304.595C269.013 300.069 272.73 299.028 265.594 304.332C265.362 304.558 265.117 304.774 264.853 304.975Z" fill="#3F83F8"/>
<path d="M173.711 312.402C173.906 312.34 174.104 312.286 174.306 312.24C174.493 312.207 174.679 312.173 174.869 312.135C175.066 312.106 175.265 312.085 175.464 312.071C183.6 310.164 187.827 307.321 189.2 298.419C189.206 298.091 189.23 297.761 189.278 297.429C189.305 297.237 189.342 297.048 189.382 296.861C190.253 292.825 194.054 290.093 198.121 290.699C202.377 291.332 205.334 295.383 204.714 299.728C204.25 302.974 201.919 305.479 198.995 306.275C198.614 306.379 198.222 306.454 197.823 306.498C189.557 308.304 185.19 311.19 183.789 320.188C183.782 320.511 183.758 320.837 183.711 321.165C183.682 321.364 183.644 321.559 183.602 321.752C182.723 325.778 178.928 328.5 174.867 327.895C170.612 327.262 167.654 323.211 168.275 318.866C168.709 315.824 170.859 313.298 173.711 312.402Z" fill="#3F83F8"/>
<path d="M6.69485 306.455C6.50635 306.427 6.32144 306.39 6.13818 306.349C2.1852 305.46 -0.490415 301.578 0.102774 297.426C0.723529 293.08 4.69061 290.061 8.94634 290.695C12.1252 291.168 14.5787 293.548 15.3586 296.533C15.4604 296.923 15.5341 297.323 15.5767 297.73C17.3454 306.17 20.1728 310.629 28.9849 312.06C29.3014 312.067 29.6204 312.091 29.9415 312.139C30.1367 312.168 30.3279 312.207 30.5173 312.25C34.4598 313.147 37.1262 317.023 36.5338 321.169C35.9132 325.514 31.9457 328.533 27.6901 327.899C24.7111 327.456 22.2366 325.261 21.359 322.35C21.2989 322.15 21.2457 321.948 21.2009 321.742C21.1686 321.551 21.1352 321.36 21.0978 321.167C21.0689 320.965 21.0489 320.763 21.0354 320.56C19.1674 312.253 16.3827 307.937 7.66375 306.535C7.3433 306.528 7.02014 306.503 6.69485 306.455Z" fill="#3F83F8"/>
<path d="M1.57215 196.145C1.45831 195.989 1.35324 195.829 1.25224 195.668C-0.927163 192.185 -0.13119 187.509 3.16426 185.001C6.61238 182.377 11.5087 183.106 14.079 186.626C15.999 189.256 16.0854 192.711 14.5696 195.384C14.3718 195.733 14.147 196.069 13.895 196.388C9.30081 203.633 8.21184 199.971 13.4524 207.344C13.6712 207.578 13.8799 207.825 14.0737 208.091C14.1915 208.252 14.3001 208.418 14.4042 208.585C16.5705 212.066 15.7718 216.731 12.4818 219.235C9.03378 221.86 4.1373 221.13 1.56707 217.61C-0.232273 215.145 -0.46177 211.807 0.933794 209.114C1.02929 208.93 1.13192 208.749 1.24276 208.571C1.35228 208.412 1.46055 208.253 1.56779 208.09C1.68722 207.926 1.81349 207.769 1.9445 207.615C6.37672 200.393 7.39626 204.187 2.20202 196.901C1.98008 196.665 1.76863 196.414 1.57215 196.145Z" fill="#3F83F8"/>
</svg>
