<svg width="602" height="328" viewBox="0 0 602 328" fill="none" xmlns="http://www.w3.org/2000/svg" xmlns:xlink="http://www.w3.org/1999/xlink">
<path d="M573.195 150.05C577.509 150.05 581.006 153.62 581.006 158.025C581.006 162.429 577.508 166 573.195 166C568.881 166 565.384 162.429 565.384 158.025C565.384 153.62 568.881 150.05 573.195 150.05Z" fill="#3F83F8"/>
<path d="M594.189 150.05C598.503 150.05 602 153.62 602 158.025C602 162.429 598.503 166 594.189 166C589.875 166 586.378 162.429 586.378 158.025C586.378 153.62 589.875 150.05 594.189 150.05Z" fill="#3F83F8"/>
<path d="M573.195 128.614C577.509 128.614 581.006 132.185 581.006 136.589C581.006 140.994 577.508 144.564 573.195 144.564C568.881 144.564 565.384 140.994 565.384 136.589C565.384 132.185 568.881 128.614 573.195 128.614Z" fill="#3F83F8"/>
<path d="M573.195 107.178C577.509 107.178 581.006 110.749 581.006 115.154C581.006 119.558 577.508 123.129 573.195 123.129C568.881 123.129 565.384 119.558 565.384 115.154C565.384 110.749 568.881 107.178 573.195 107.178Z" fill="#3F83F8"/>
<path d="M573.195 85.7427C577.509 85.7427 581.006 89.3132 581.006 93.7177C581.006 98.1223 577.508 101.693 573.195 101.693C568.881 101.693 565.384 98.1223 565.384 93.7177C565.384 89.3132 568.881 85.7427 573.195 85.7427Z" fill="#3F83F8"/>
<path d="M594.189 101.693C589.875 101.693 586.378 98.1223 586.378 93.7177C586.378 89.3132 589.875 85.7427 594.189 85.7427C598.503 85.7427 602 89.3132 602 93.7177C602 98.1223 598.503 101.693 594.189 101.693Z" fill="#3F83F8"/>
<path d="M278.811 37.3859C283.125 37.3859 286.622 33.8154 286.622 29.4109C286.622 25.0064 283.125 21.4358 278.811 21.4358C274.497 21.4358 271 25.0064 271 29.4109C271 33.8154 274.497 37.3859 278.811 37.3859Z" fill="#3F83F8"/>
<path d="M299.805 37.3859C304.119 37.3859 307.616 33.8154 307.616 29.4109C307.616 25.0064 304.119 21.4358 299.805 21.4358C295.491 21.4358 291.994 25.0064 291.994 29.4109C291.994 33.8154 295.491 37.3859 299.805 37.3859Z" fill="#3F83F8"/>
<path d="M278.811 15.9502C283.125 15.9502 286.622 12.3796 286.622 7.97508C286.622 3.57056 283.125 0 278.811 0C274.497 0 271 3.57056 271 7.97508C271 12.3796 274.497 15.9502 278.811 15.9502Z" fill="#3F83F8"/>
<path d="M299.805 15.9502C304.119 15.9502 307.616 12.3796 307.616 7.97508C307.616 3.57056 304.119 0 299.805 0C295.491 0 291.994 3.57056 291.994 7.97508C291.994 12.3796 295.491 15.9502 299.805 15.9502Z" fill="#3F83F8"/>
<path d="M320.8 15.9502C325.113 15.9502 328.611 12.3796 328.611 7.97508C328.611 3.57056 325.113 0 320.8 0C316.486 0 312.989 3.57056 312.989 7.97508C312.989 12.3796 316.486 15.9502 320.8 15.9502Z" fill="#3F83F8"/>
<path d="M341.794 15.9502C346.108 15.9502 349.605 12.3796 349.605 7.97508C349.605 3.57056 346.108 0 341.794 0C337.48 0 333.983 3.57056 333.983 7.97508C333.983 12.3796 337.48 15.9502 341.794 15.9502Z" fill="#3F83F8"/>
<path d="M363.02 37.3859C367.333 37.3859 370.831 33.8154 370.831 29.4109C370.831 25.0064 367.333 21.4358 363.02 21.4358C358.706 21.4358 355.209 25.0064 355.209 29.4109C355.209 33.8154 358.706 37.3859 363.02 37.3859Z" fill="#3F83F8"/>
<path d="M384.014 37.3859C388.328 37.3859 391.825 33.8154 391.825 29.4109C391.825 25.0064 388.328 21.4358 384.014 21.4358C379.7 21.4358 376.203 25.0064 376.203 29.4109C376.203 33.8154 379.7 37.3859 384.014 37.3859Z" fill="#3F83F8"/>
<path d="M363.02 15.9502C367.333 15.9502 370.831 12.3796 370.831 7.97508C370.831 3.57056 367.333 0 363.02 0C358.706 0 355.209 3.57056 355.209 7.97508C355.209 12.3796 358.706 15.9502 363.02 15.9502Z" fill="#3F83F8"/>
<path d="M384.014 15.9502C388.328 15.9502 391.825 12.3796 391.825 7.97508C391.825 3.57056 388.328 0 384.014 0C379.7 0 376.203 3.57056 376.203 7.97508C376.203 12.3796 379.7 15.9502 384.014 15.9502Z" fill="#3F83F8"/>
<path d="M426.003 37.3859C430.317 37.3859 433.814 33.8154 433.814 29.4109C433.814 25.0064 430.317 21.4358 426.003 21.4358C421.689 21.4358 418.192 25.0064 418.192 29.4109C418.192 33.8154 421.689 37.3859 426.003 37.3859Z" fill="#3F83F8"/>
<path d="M405.008 15.9502C409.322 15.9502 412.819 12.3796 412.819 7.97508C412.819 3.57056 409.322 0 405.008 0C400.695 0 397.198 3.57056 397.198 7.97508C397.198 12.3796 400.695 15.9502 405.008 15.9502Z" fill="#3F83F8"/>
<path d="M573.195 64.3071C577.509 64.3071 581.006 67.8777 581.006 72.2822C581.006 76.6867 577.508 80.2573 573.195 80.2573C568.881 80.2573 565.384 76.6867 565.384 72.2822C565.384 67.8777 568.881 64.3071 573.195 64.3071Z" fill="#3F83F8"/>
<path d="M594.189 80.2573C589.875 80.2573 586.378 76.6867 586.378 72.2822C586.378 67.8777 589.875 64.3071 594.189 64.3071C598.503 64.3071 602 67.8777 602 72.2822C602 76.6867 598.503 80.2573 594.189 80.2573Z" fill="#3F83F8"/>
<path d="M573.195 42.8713C577.509 42.8713 581.006 46.4419 581.006 50.8464C581.006 55.2509 577.508 58.8215 573.195 58.8215C568.881 58.8215 565.384 55.2509 565.384 50.8464C565.384 46.4419 568.881 42.8713 573.195 42.8713Z" fill="#3F83F8"/>
<path d="M594.189 58.8215C589.875 58.8215 586.378 55.2509 586.378 50.8464C586.378 46.4419 589.875 42.8713 594.189 42.8713C598.503 42.8713 602 46.4419 602 50.8464C602 55.2509 598.503 58.8215 594.189 58.8215Z" fill="#3F83F8"/>
<path d="M446.997 37.3859C451.311 37.3859 454.808 33.8154 454.808 29.4109C454.808 25.0064 451.311 21.4358 446.997 21.4358C442.683 21.4358 439.186 25.0064 439.186 29.4109C439.186 33.8154 442.683 37.3859 446.997 37.3859Z" fill="#3F83F8"/>
<path d="M467.992 37.3859C472.305 37.3859 475.802 33.8154 475.802 29.4109C475.802 25.0064 472.305 21.4358 467.992 21.4358C463.678 21.4358 460.181 25.0064 460.181 29.4109C460.181 33.8154 463.678 37.3859 467.992 37.3859Z" fill="#3F83F8"/>
<path d="M446.997 15.9502C451.311 15.9502 454.808 12.3796 454.808 7.97508C454.808 3.57056 451.311 0 446.997 0C442.683 0 439.186 3.57056 439.186 7.97508C439.186 12.3796 442.683 15.9502 446.997 15.9502Z" fill="#3F83F8"/>
<path d="M467.992 15.9502C472.305 15.9502 475.802 12.3796 475.802 7.97508C475.802 3.57056 472.305 0 467.992 0C463.678 0 460.181 3.57056 460.181 7.97508C460.181 12.3796 463.678 15.9502 467.992 15.9502Z" fill="#3F83F8"/>
<path d="M488.986 37.3859C493.3 37.3859 496.797 33.8154 496.797 29.4109C496.797 25.0064 493.3 21.4358 488.986 21.4358C484.672 21.4358 481.175 25.0064 481.175 29.4109C481.175 33.8154 484.672 37.3859 488.986 37.3859Z" fill="#3F83F8"/>
<path d="M509.98 37.386C505.667 37.386 502.169 33.8154 502.169 29.4109C502.169 25.0063 505.667 21.4358 509.98 21.4358C514.294 21.4358 517.791 25.0064 517.791 29.4109C517.791 33.8154 514.294 37.386 509.98 37.386Z" fill="#3F83F8"/>
<path d="M488.986 15.9502C493.3 15.9502 496.797 12.3796 496.797 7.97508C496.797 3.57056 493.3 0 488.986 0C484.672 0 481.175 3.57056 481.175 7.97508C481.175 12.3796 484.672 15.9502 488.986 15.9502Z" fill="#3F83F8"/>
<path d="M509.98 15.9502C505.667 15.9502 502.169 12.3796 502.169 7.97508C502.169 3.57057 505.667 0 509.98 0C514.294 0 517.791 3.57057 517.791 7.97508C517.791 12.3796 514.294 15.9502 509.98 15.9502Z" fill="#3F83F8"/>
<path d="M531.206 37.3859C535.52 37.3859 539.017 33.8154 539.017 29.4109C539.017 25.0064 535.52 21.4358 531.206 21.4358C526.892 21.4358 523.395 25.0064 523.395 29.4109C523.395 33.8154 526.892 37.3859 531.206 37.3859Z" fill="#3F83F8"/>
<path d="M552.2 37.3859C556.514 37.3859 560.011 33.8154 560.011 29.4109C560.011 25.0064 556.514 21.4358 552.2 21.4358C547.886 21.4358 544.389 25.0064 544.389 29.4109C544.389 33.8154 547.886 37.3859 552.2 37.3859Z" fill="#3F83F8"/>
<path d="M531.206 15.9502C535.52 15.9502 539.017 12.3796 539.017 7.97508C539.017 3.57056 535.52 0 531.206 0C526.892 0 523.395 3.57056 523.395 7.97508C523.395 12.3796 526.892 15.9502 531.206 15.9502Z" fill="#3F83F8"/>
<path d="M552.2 15.9502C556.514 15.9502 560.011 12.3796 560.011 7.97508C560.011 3.57056 556.514 0 552.2 0C547.886 0 544.389 3.57056 544.389 7.97508C544.389 12.3796 547.886 15.9502 552.2 15.9502Z" fill="#3F83F8"/>
<path d="M573.195 21.4358C577.509 21.4358 581.006 25.0064 581.006 29.4109C581.006 33.8154 577.508 37.386 573.195 37.386C568.881 37.386 565.384 33.8154 565.384 29.4109C565.384 25.0063 568.881 21.4358 573.195 21.4358Z" fill="#3F83F8"/>
<path d="M594.189 15.9502C589.875 15.9502 586.378 12.3796 586.378 7.97508C586.378 3.57057 589.875 0 594.189 0C598.503 0 602 3.57057 602 7.97508C602 12.3796 598.503 15.9502 594.189 15.9502Z" fill="#3F83F8"/>
<path d="M337.147 23.0253C337.3 22.9091 337.456 22.8017 337.614 22.6986C341.025 20.4734 345.605 21.2861 348.062 24.6508C350.632 28.1715 349.918 33.1707 346.47 35.795C343.894 37.7552 340.511 37.8436 337.892 36.2959C337.55 36.0938 337.221 35.8644 336.909 35.6071C329.813 30.9164 333.4 29.8045 326.178 35.1552C325.95 35.3786 325.707 35.5916 325.447 35.7896C325.289 35.9099 325.127 36.0207 324.963 36.127C321.554 38.3388 316.984 37.5234 314.532 34.1642C311.962 30.6438 312.676 25.6443 316.124 23.02C318.538 21.1829 321.808 20.9486 324.444 22.3735C324.625 22.471 324.803 22.5757 324.977 22.6889C325.132 22.8007 325.288 22.9113 325.448 23.0208C325.608 23.1428 325.763 23.2717 325.913 23.4055C332.987 27.9308 329.27 28.9718 336.406 23.6684C336.638 23.4418 336.883 23.2259 337.147 23.0253Z" fill="#3F83F8"/>
<path d="M428.289 15.5984C428.094 15.6598 427.896 15.714 427.694 15.7597C427.507 15.7927 427.32 15.8269 427.131 15.8651C426.934 15.8945 426.735 15.915 426.536 15.9288C418.4 17.836 414.173 20.6793 412.8 29.5814C412.794 29.9086 412.77 30.2386 412.722 30.5707C412.695 30.7632 412.658 30.952 412.618 31.1391C411.747 35.1752 407.946 37.9071 403.879 37.3014C399.623 36.6676 396.666 32.6171 397.286 28.2719C397.75 25.0263 400.081 22.5212 403.005 21.725C403.386 21.621 403.778 21.5456 404.177 21.5021C412.443 19.6964 416.81 16.8095 418.211 7.81218C418.218 7.48908 418.242 7.16332 418.289 6.83548C418.318 6.63627 418.355 6.44093 418.398 6.24754C419.277 2.22216 423.072 -0.50026 427.133 0.104549C431.388 0.738266 434.346 4.78909 433.725 9.13419C433.29 12.1759 431.141 14.7023 428.289 15.5984Z" fill="#3F83F8"/>
<path d="M595.305 21.5449C595.494 21.573 595.679 21.6101 595.862 21.6513C599.815 22.5405 602.49 26.4218 601.897 30.5744C601.276 34.9196 597.309 37.939 593.054 37.3053C589.875 36.8318 587.421 34.4517 586.641 31.4666C586.54 31.0769 586.466 30.6771 586.423 30.2697C584.655 21.8303 581.827 17.3707 573.015 15.9404C572.699 15.9332 572.38 15.9087 572.059 15.8609C571.863 15.8318 571.672 15.7932 571.483 15.75C567.54 14.8527 564.874 10.9772 565.466 6.83129C566.087 2.48625 570.054 -0.533079 574.31 0.100638C577.289 0.544336 579.763 2.73935 580.641 5.65047C580.701 5.84976 580.754 6.05223 580.799 6.25794C580.831 6.44906 580.865 6.63963 580.902 6.83261C580.931 7.03456 580.951 7.23725 580.965 7.4403C582.833 15.7474 585.617 20.0631 594.336 21.465C594.657 21.4719 594.98 21.4965 595.305 21.5449Z" fill="#3F83F8"/>
<path d="M600.428 131.855C600.542 132.011 600.647 132.171 600.748 132.332C602.927 135.815 602.131 140.491 598.836 142.999C595.388 145.623 590.491 144.894 587.921 141.374C586.001 138.744 585.915 135.289 587.43 132.616C587.628 132.267 587.853 131.931 588.105 131.612C592.699 124.367 593.788 128.029 588.548 120.656C588.329 120.422 588.12 120.175 587.926 119.909C587.808 119.748 587.7 119.582 587.596 119.415C585.43 115.934 586.228 111.269 589.518 108.765C592.966 106.14 597.863 106.87 600.433 110.39C602.232 112.855 602.462 116.193 601.066 118.886C600.971 119.07 600.868 119.251 600.757 119.429C600.648 119.588 600.539 119.747 600.432 119.91C600.313 120.074 600.187 120.231 600.056 120.385C595.623 127.607 594.604 123.813 599.798 131.099C600.02 131.335 600.231 131.586 600.428 131.855Z" fill="#3F83F8"/>
</svg>
