<svg width="602" height="328" viewBox="0 0 602 328" fill="none" xmlns="http://www.w3.org/2000/svg" xmlns:xlink="http://www.w3.org/1999/xlink">
<path d="M573.195 177.95C577.509 177.95 581.006 174.38 581.006 169.975C581.006 165.571 577.509 162 573.195 162C568.881 162 565.384 165.571 565.384 169.975C565.384 174.38 568.881 177.95 573.195 177.95Z" fill="#3F83F8"/>
<path d="M594.189 177.95C598.503 177.95 602 174.38 602 169.975C602 165.571 598.503 162 594.189 162C589.875 162 586.378 165.571 586.378 169.975C586.378 174.38 589.875 177.95 594.189 177.95Z" fill="#3F83F8"/>
<path d="M573.195 199.386C577.509 199.386 581.006 195.815 581.006 191.411C581.006 187.006 577.509 183.436 573.195 183.436C568.881 183.436 565.384 187.006 565.384 191.411C565.384 195.815 568.881 199.386 573.195 199.386Z" fill="#3F83F8"/>
<path d="M573.195 220.822C577.509 220.822 581.006 217.251 581.006 212.846C581.006 208.442 577.509 204.871 573.195 204.871C568.881 204.871 565.384 208.442 565.384 212.846C565.384 217.251 568.881 220.822 573.195 220.822Z" fill="#3F83F8"/>
<path d="M573.195 242.257C577.509 242.257 581.006 238.687 581.006 234.282C581.006 229.878 577.509 226.307 573.195 226.307C568.881 226.307 565.384 229.878 565.384 234.282C565.384 238.687 568.881 242.257 573.195 242.257Z" fill="#3F83F8"/>
<path d="M594.189 226.307C589.875 226.307 586.378 229.878 586.378 234.282C586.378 238.687 589.875 242.257 594.189 242.257C598.503 242.257 602 238.687 602 234.282C602 229.878 598.503 226.307 594.189 226.307Z" fill="#3F83F8"/>
<path d="M278.811 290.614C283.125 290.614 286.622 294.185 286.622 298.589C286.622 302.994 283.125 306.564 278.811 306.564C274.497 306.564 271 302.994 271 298.589C271 294.185 274.497 290.614 278.811 290.614Z" fill="#3F83F8"/>
<path d="M299.805 290.614C304.119 290.614 307.616 294.185 307.616 298.589C307.616 302.994 304.119 306.564 299.805 306.564C295.491 306.564 291.994 302.994 291.994 298.589C291.994 294.185 295.491 290.614 299.805 290.614Z" fill="#3F83F8"/>
<path d="M278.811 312.05C283.125 312.05 286.622 315.62 286.622 320.025C286.622 324.429 283.125 328 278.811 328C274.497 328 271 324.429 271 320.025C271 315.62 274.497 312.05 278.811 312.05Z" fill="#3F83F8"/>
<path d="M299.805 312.05C304.119 312.05 307.616 315.62 307.616 320.025C307.616 324.429 304.119 328 299.805 328C295.491 328 291.994 324.429 291.994 320.025C291.994 315.62 295.491 312.05 299.805 312.05Z" fill="#3F83F8"/>
<path d="M320.8 312.05C325.114 312.05 328.611 315.62 328.611 320.025C328.611 324.429 325.114 328 320.8 328C316.486 328 312.989 324.429 312.989 320.025C312.989 315.62 316.486 312.05 320.8 312.05Z" fill="#3F83F8"/>
<path d="M341.794 312.05C346.108 312.05 349.605 315.62 349.605 320.025C349.605 324.429 346.108 328 341.794 328C337.48 328 333.983 324.429 333.983 320.025C333.983 315.62 337.48 312.05 341.794 312.05Z" fill="#3F83F8"/>
<path d="M363.02 290.614C367.333 290.614 370.831 294.185 370.831 298.589C370.831 302.994 367.333 306.564 363.02 306.564C358.706 306.564 355.209 302.994 355.209 298.589C355.209 294.185 358.706 290.614 363.02 290.614Z" fill="#3F83F8"/>
<path d="M384.014 290.614C388.328 290.614 391.825 294.185 391.825 298.589C391.825 302.994 388.328 306.564 384.014 306.564C379.7 306.564 376.203 302.994 376.203 298.589C376.203 294.185 379.7 290.614 384.014 290.614Z" fill="#3F83F8"/>
<path d="M363.02 312.05C367.333 312.05 370.831 315.62 370.831 320.025C370.831 324.429 367.333 328 363.02 328C358.706 328 355.209 324.429 355.209 320.025C355.209 315.62 358.706 312.05 363.02 312.05Z" fill="#3F83F8"/>
<path d="M384.014 312.05C388.328 312.05 391.825 315.62 391.825 320.025C391.825 324.429 388.328 328 384.014 328C379.7 328 376.203 324.429 376.203 320.025C376.203 315.62 379.7 312.05 384.014 312.05Z" fill="#3F83F8"/>
<path d="M426.003 290.614C430.317 290.614 433.814 294.185 433.814 298.589C433.814 302.994 430.317 306.564 426.003 306.564C421.689 306.564 418.192 302.994 418.192 298.589C418.192 294.185 421.689 290.614 426.003 290.614Z" fill="#3F83F8"/>
<path d="M405.008 312.05C409.322 312.05 412.819 315.62 412.819 320.025C412.819 324.429 409.322 328 405.008 328C400.695 328 397.198 324.429 397.198 320.025C397.198 315.62 400.695 312.05 405.008 312.05Z" fill="#3F83F8"/>
<path d="M573.195 263.693C577.509 263.693 581.006 260.122 581.006 255.718C581.006 251.313 577.509 247.743 573.195 247.743C568.881 247.743 565.384 251.313 565.384 255.718C565.384 260.122 568.881 263.693 573.195 263.693Z" fill="#3F83F8"/>
<path d="M594.189 247.743C589.875 247.743 586.378 251.313 586.378 255.718C586.378 260.122 589.875 263.693 594.189 263.693C598.503 263.693 602 260.122 602 255.718C602 251.313 598.503 247.743 594.189 247.743Z" fill="#3F83F8"/>
<path d="M573.195 285.129C577.509 285.129 581.006 281.558 581.006 277.154C581.006 272.749 577.509 269.179 573.195 269.179C568.881 269.179 565.384 272.749 565.384 277.154C565.384 281.558 568.881 285.129 573.195 285.129Z" fill="#3F83F8"/>
<path d="M594.189 269.179C589.875 269.179 586.378 272.749 586.378 277.154C586.378 281.558 589.875 285.129 594.189 285.129C598.503 285.129 602 281.558 602 277.154C602 272.749 598.503 269.179 594.189 269.179Z" fill="#3F83F8"/>
<path d="M446.997 290.614C451.311 290.614 454.808 294.185 454.808 298.589C454.808 302.994 451.311 306.564 446.997 306.564C442.683 306.564 439.186 302.994 439.186 298.589C439.186 294.185 442.683 290.614 446.997 290.614Z" fill="#3F83F8"/>
<path d="M467.992 290.614C472.305 290.614 475.802 294.185 475.802 298.589C475.802 302.994 472.305 306.564 467.992 306.564C463.678 306.564 460.181 302.994 460.181 298.589C460.181 294.185 463.678 290.614 467.992 290.614Z" fill="#3F83F8"/>
<path d="M446.997 312.05C451.311 312.05 454.808 315.62 454.808 320.025C454.808 324.429 451.311 328 446.997 328C442.683 328 439.186 324.429 439.186 320.025C439.186 315.62 442.683 312.05 446.997 312.05Z" fill="#3F83F8"/>
<path d="M467.992 312.05C472.305 312.05 475.802 315.62 475.802 320.025C475.802 324.429 472.305 328 467.992 328C463.678 328 460.181 324.429 460.181 320.025C460.181 315.62 463.678 312.05 467.992 312.05Z" fill="#3F83F8"/>
<path d="M488.986 290.614C493.3 290.614 496.797 294.185 496.797 298.589C496.797 302.994 493.3 306.564 488.986 306.564C484.672 306.564 481.175 302.994 481.175 298.589C481.175 294.185 484.672 290.614 488.986 290.614Z" fill="#3F83F8"/>
<path d="M509.98 290.614C505.667 290.614 502.169 294.185 502.169 298.589C502.169 302.994 505.667 306.564 509.98 306.564C514.294 306.564 517.791 302.994 517.791 298.589C517.791 294.185 514.294 290.614 509.98 290.614Z" fill="#3F83F8"/>
<path d="M488.986 312.05C493.3 312.05 496.797 315.62 496.797 320.025C496.797 324.429 493.3 328 488.986 328C484.672 328 481.175 324.429 481.175 320.025C481.175 315.62 484.672 312.05 488.986 312.05Z" fill="#3F83F8"/>
<path d="M509.98 312.05C505.667 312.05 502.169 315.621 502.169 320.025C502.169 324.43 505.667 328 509.98 328C514.294 328 517.791 324.43 517.791 320.025C517.791 315.621 514.294 312.05 509.98 312.05Z" fill="#3F83F8"/>
<path d="M531.206 290.614C535.52 290.614 539.017 294.185 539.017 298.589C539.017 302.994 535.52 306.564 531.206 306.564C526.892 306.564 523.395 302.994 523.395 298.589C523.395 294.185 526.892 290.614 531.206 290.614Z" fill="#3F83F8"/>
<path d="M552.2 290.614C556.514 290.614 560.011 294.185 560.011 298.589C560.011 302.994 556.514 306.564 552.2 306.564C547.886 306.564 544.389 302.994 544.389 298.589C544.389 294.185 547.886 290.614 552.2 290.614Z" fill="#3F83F8"/>
<path d="M531.206 312.05C535.52 312.05 539.017 315.62 539.017 320.025C539.017 324.429 535.52 328 531.206 328C526.892 328 523.395 324.429 523.395 320.025C523.395 315.62 526.892 312.05 531.206 312.05Z" fill="#3F83F8"/>
<path d="M552.2 312.05C556.514 312.05 560.011 315.62 560.011 320.025C560.011 324.429 556.514 328 552.2 328C547.886 328 544.389 324.429 544.389 320.025C544.389 315.62 547.886 312.05 552.2 312.05Z" fill="#3F83F8"/>
<path d="M573.195 306.564C577.509 306.564 581.006 302.994 581.006 298.589C581.006 294.185 577.509 290.614 573.195 290.614C568.881 290.614 565.384 294.185 565.384 298.589C565.384 302.994 568.881 306.564 573.195 306.564Z" fill="#3F83F8"/>
<path d="M594.189 312.05C589.875 312.05 586.378 315.621 586.378 320.025C586.378 324.43 589.875 328 594.189 328C598.503 328 602 324.43 602 320.025C602 315.621 598.503 312.05 594.189 312.05Z" fill="#3F83F8"/>
<path d="M337.147 304.975C337.3 305.091 337.456 305.198 337.614 305.301C341.025 307.527 345.605 306.714 348.062 303.349C350.632 299.829 349.918 294.829 346.47 292.205C343.894 290.245 340.511 290.156 337.892 291.704C337.55 291.906 337.221 292.136 336.909 292.393C329.813 297.084 333.4 298.196 326.178 292.845C325.95 292.621 325.707 292.408 325.447 292.21C325.289 292.09 325.127 291.979 324.963 291.873C321.554 289.661 316.984 290.477 314.532 293.836C311.962 297.356 312.676 302.356 316.124 304.98C318.538 306.817 321.808 307.051 324.444 305.627C324.625 305.529 324.803 305.424 324.977 305.311C325.132 305.199 325.288 305.089 325.448 304.979C325.608 304.857 325.763 304.728 325.913 304.595C332.987 300.069 329.27 299.028 336.406 304.332C336.638 304.558 336.883 304.774 337.147 304.975Z" fill="#3F83F8"/>
<path d="M428.289 312.402C428.094 312.34 427.896 312.286 427.694 312.24C427.507 312.207 427.32 312.173 427.131 312.135C426.934 312.106 426.735 312.085 426.536 312.071C418.4 310.164 414.173 307.321 412.8 298.419C412.794 298.091 412.77 297.761 412.722 297.429C412.695 297.237 412.658 297.048 412.618 296.861C411.747 292.825 407.946 290.093 403.879 290.699C399.623 291.332 396.665 295.383 397.286 299.728C397.75 302.974 400.081 305.479 403.005 306.275C403.386 306.379 403.778 306.454 404.177 306.498C412.443 308.304 416.81 311.19 418.211 320.188C418.218 320.511 418.242 320.837 418.289 321.165C418.318 321.364 418.355 321.559 418.398 321.752C419.277 325.778 423.072 328.5 427.133 327.895C431.388 327.262 434.346 323.211 433.725 318.866C433.29 315.824 431.141 313.298 428.289 312.402Z" fill="#3F83F8"/>
<path d="M595.305 306.455C595.494 306.427 595.679 306.39 595.862 306.349C599.815 305.46 602.49 301.578 601.897 297.426C601.277 293.08 597.309 290.061 593.054 290.695C589.875 291.168 587.421 293.548 586.641 296.533C586.54 296.923 586.466 297.323 586.423 297.73C584.655 306.17 581.827 310.629 573.015 312.06C572.699 312.067 572.38 312.091 572.059 312.139C571.863 312.168 571.672 312.207 571.483 312.25C567.54 313.147 564.874 317.023 565.466 321.169C566.087 325.514 570.054 328.533 574.31 327.899C577.289 327.456 579.763 325.261 580.641 322.35C580.701 322.15 580.754 321.948 580.799 321.742C580.831 321.551 580.865 321.36 580.902 321.167C580.931 320.965 580.951 320.763 580.965 320.56C582.833 312.253 585.617 307.937 594.336 306.535C594.657 306.528 594.98 306.503 595.305 306.455Z" fill="#3F83F8"/>
<path d="M600.428 196.145C600.542 195.989 600.647 195.829 600.748 195.668C602.927 192.185 602.131 187.509 598.836 185.001C595.388 182.377 590.491 183.106 587.921 186.626C586.001 189.256 585.915 192.711 587.43 195.384C587.628 195.733 587.853 196.069 588.105 196.388C592.699 203.633 593.788 199.971 588.548 207.344C588.329 207.578 588.12 207.826 587.926 208.091C587.808 208.253 587.7 208.418 587.596 208.585C585.429 212.066 586.228 216.732 589.518 219.236C592.966 221.86 597.863 221.13 600.433 217.61C602.232 215.145 602.462 211.807 601.066 209.115C600.971 208.93 600.868 208.749 600.757 208.571C600.648 208.413 600.539 208.254 600.432 208.09C600.313 207.927 600.187 207.769 600.056 207.615C595.623 200.393 594.604 204.187 599.798 196.901C600.02 196.665 600.231 196.414 600.428 196.145Z" fill="#3F83F8"/>
</svg>
