<svg width="602" height="326" viewBox="0 0 602 326" fill="none" xmlns="http://www.w3.org/2000/svg" xmlns:xlink="http://www.w3.org/1999/xlink">
<path d="M28.8053 150.05C24.4915 150.05 20.9943 153.62 20.9943 158.025C20.9943 162.429 24.4915 166 28.8053 166C33.1191 166 36.6162 162.429 36.6162 158.025C36.6162 153.62 33.1192 150.05 28.8053 150.05Z" fill="#3F83F8"/>
<path d="M7.81095 150.05C3.49706 150.05 2.86102e-06 153.62 2.86102e-06 158.025C2.86102e-06 162.429 3.49706 166 7.81095 166C12.1248 166 15.6217 162.429 15.6217 158.025C15.6217 153.62 12.1248 150.05 7.81095 150.05Z" fill="#3F83F8"/>
<path d="M28.8053 128.614C24.4915 128.614 20.9943 132.185 20.9943 136.589C20.9943 140.994 24.4915 144.564 28.8053 144.564C33.1191 144.564 36.6162 140.994 36.6162 136.589C36.6162 132.185 33.1192 128.614 28.8053 128.614Z" fill="#3F83F8"/>
<path d="M28.8053 107.178C24.4915 107.178 20.9943 110.749 20.9943 115.154C20.9943 119.558 24.4915 123.129 28.8053 123.129C33.1191 123.129 36.6162 119.558 36.6162 115.154C36.6162 110.749 33.1192 107.178 28.8053 107.178Z" fill="#3F83F8"/>
<path d="M28.8053 85.7428C24.4915 85.7428 20.9943 89.3134 20.9943 93.7179C20.9943 98.1224 24.4915 101.693 28.8053 101.693C33.1191 101.693 36.6162 98.1224 36.6162 93.7179C36.6162 89.3133 33.1192 85.7428 28.8053 85.7428Z" fill="#3F83F8"/>
<path d="M7.81095 101.693C12.1248 101.693 15.6217 98.1224 15.6217 93.7179C15.6217 89.3133 12.1248 85.7428 7.81095 85.7428C3.49712 85.7428 2.86102e-06 89.3134 2.86102e-06 93.7179C2.86102e-06 98.1224 3.49706 101.693 7.81095 101.693Z" fill="#3F83F8"/>
<path d="M323.189 37.3858C318.875 37.3858 315.378 33.8153 315.378 29.4107C315.378 25.0062 318.875 21.4357 323.189 21.4357C327.503 21.4357 331 25.0062 331 29.4107C331 33.8153 327.503 37.3858 323.189 37.3858Z" fill="#3F83F8"/>
<path d="M302.195 37.3858C297.881 37.3858 294.384 33.8153 294.384 29.4107C294.384 25.0062 297.881 21.4357 302.195 21.4357C306.509 21.4357 310.006 25.0062 310.006 29.4107C310.006 33.8153 306.509 37.3858 302.195 37.3858Z" fill="#3F83F8"/>
<path d="M323.189 15.9502C318.875 15.9502 315.378 12.3796 315.378 7.97508C315.378 3.57056 318.875 0 323.189 0C327.503 0 331 3.57056 331 7.97508C331 12.3796 327.503 15.9502 323.189 15.9502Z" fill="#3F83F8"/>
<path d="M302.195 15.9502C297.881 15.9502 294.384 12.3796 294.384 7.97508C294.384 3.57056 297.881 0 302.195 0C306.509 0 310.006 3.57056 310.006 7.97508C310.006 12.3796 306.509 15.9502 302.195 15.9502Z" fill="#3F83F8"/>
<path d="M281.2 15.9502C276.887 15.9502 273.389 12.3796 273.389 7.97508C273.389 3.57056 276.887 0 281.2 0C285.514 0 289.011 3.57056 289.011 7.97508C289.011 12.3796 285.514 15.9502 281.2 15.9502Z" fill="#3F83F8"/>
<path d="M260.206 15.9502C255.892 15.9502 252.395 12.3796 252.395 7.97508C252.395 3.57056 255.892 0 260.206 0C264.52 0 268.017 3.57056 268.017 7.97508C268.017 12.3796 264.52 15.9502 260.206 15.9502Z" fill="#3F83F8"/>
<path d="M238.98 37.3858C234.667 37.3858 231.169 33.8153 231.169 29.4107C231.169 25.0062 234.667 21.4357 238.98 21.4357C243.294 21.4357 246.791 25.0062 246.791 29.4107C246.791 33.8153 243.294 37.3858 238.98 37.3858Z" fill="#3F83F8"/>
<path d="M217.986 37.3858C213.672 37.3858 210.175 33.8153 210.175 29.4107C210.175 25.0062 213.672 21.4357 217.986 21.4357C222.3 21.4357 225.797 25.0062 225.797 29.4107C225.797 33.8153 222.3 37.3858 217.986 37.3858Z" fill="#3F83F8"/>
<path d="M238.98 15.9502C234.667 15.9502 231.169 12.3796 231.169 7.97508C231.169 3.57056 234.667 0 238.98 0C243.294 0 246.791 3.57056 246.791 7.97508C246.791 12.3796 243.294 15.9502 238.98 15.9502Z" fill="#3F83F8"/>
<path d="M217.986 15.9502C213.672 15.9502 210.175 12.3796 210.175 7.97508C210.175 3.57056 213.672 0 217.986 0C222.3 0 225.797 3.57056 225.797 7.97508C225.797 12.3796 222.3 15.9502 217.986 15.9502Z" fill="#3F83F8"/>
<path d="M175.997 37.3858C171.683 37.3858 168.186 33.8153 168.186 29.4107C168.186 25.0062 171.683 21.4357 175.997 21.4357C180.311 21.4357 183.808 25.0062 183.808 29.4107C183.808 33.8153 180.311 37.3858 175.997 37.3858Z" fill="#3F83F8"/>
<path d="M196.992 15.9502C192.678 15.9502 189.181 12.3796 189.181 7.97508C189.181 3.57056 192.678 0 196.992 0C201.305 0 204.802 3.57056 204.802 7.97508C204.802 12.3796 201.305 15.9502 196.992 15.9502Z" fill="#3F83F8"/>
<path d="M28.8053 64.3071C24.4915 64.3071 20.9943 67.8777 20.9943 72.2822C20.9943 76.6867 24.4915 80.2573 28.8053 80.2573C33.1191 80.2573 36.6162 76.6867 36.6162 72.2822C36.6162 67.8777 33.1192 64.3071 28.8053 64.3071Z" fill="#3F83F8"/>
<path d="M7.81095 80.2572C12.1248 80.2572 15.6217 76.6866 15.6217 72.2821C15.6217 67.8776 12.1248 64.307 7.81095 64.307C3.49712 64.307 2.86102e-06 67.8776 2.86102e-06 72.2821C2.86102e-06 76.6866 3.49706 80.2572 7.81095 80.2572Z" fill="#3F83F8"/>
<path d="M28.8053 42.8715C24.4915 42.8715 20.9943 46.442 20.9943 50.8465C20.9943 55.251 24.4915 58.8216 28.8053 58.8216C33.1191 58.8216 36.6162 55.251 36.6162 50.8465C36.6162 46.442 33.1192 42.8715 28.8053 42.8715Z" fill="#3F83F8"/>
<path d="M7.81095 58.8215C12.1248 58.8215 15.6217 55.2509 15.6217 50.8464C15.6217 46.4419 12.1248 42.8713 7.81095 42.8713C3.49712 42.8713 2.86102e-06 46.4419 2.86102e-06 50.8464C2.86102e-06 55.2509 3.49706 58.8215 7.81095 58.8215Z" fill="#3F83F8"/>
<path d="M155.003 37.3858C150.689 37.3858 147.192 33.8153 147.192 29.4107C147.192 25.0062 150.689 21.4357 155.003 21.4357C159.317 21.4357 162.814 25.0062 162.814 29.4107C162.814 33.8153 159.317 37.3858 155.003 37.3858Z" fill="#3F83F8"/>
<path d="M134.008 37.3858C129.695 37.3858 126.198 33.8153 126.198 29.4107C126.198 25.0062 129.695 21.4357 134.008 21.4357C138.322 21.4357 141.819 25.0062 141.819 29.4107C141.819 33.8153 138.322 37.3858 134.008 37.3858Z" fill="#3F83F8"/>
<path d="M155.003 15.9502C150.689 15.9502 147.192 12.3796 147.192 7.97508C147.192 3.57056 150.689 0 155.003 0C159.317 0 162.814 3.57056 162.814 7.97508C162.814 12.3796 159.317 15.9502 155.003 15.9502Z" fill="#3F83F8"/>
<path d="M134.008 15.9502C129.695 15.9502 126.198 12.3796 126.198 7.97508C126.198 3.57056 129.695 0 134.008 0C138.322 0 141.819 3.57056 141.819 7.97508C141.819 12.3796 138.322 15.9502 134.008 15.9502Z" fill="#3F83F8"/>
<path d="M113.014 37.3858C108.7 37.3858 105.203 33.8153 105.203 29.4107C105.203 25.0062 108.7 21.4357 113.014 21.4357C117.328 21.4357 120.825 25.0062 120.825 29.4107C120.825 33.8153 117.328 37.3858 113.014 37.3858Z" fill="#3F83F8"/>
<path d="M92.0196 37.3859C96.3334 37.3859 99.8306 33.8153 99.8306 29.4107C99.8306 25.0062 96.3334 21.4357 92.0196 21.4357C87.7058 21.4357 84.2087 25.0062 84.2087 29.4107C84.2087 33.8153 87.7058 37.3859 92.0196 37.3859Z" fill="#3F83F8"/>
<path d="M113.014 15.9502C108.7 15.9502 105.203 12.3796 105.203 7.97508C105.203 3.57056 108.7 0 113.014 0C117.328 0 120.825 3.57056 120.825 7.97508C120.825 12.3796 117.328 15.9502 113.014 15.9502Z" fill="#3F83F8"/>
<path d="M92.0196 15.9502C96.3334 15.9502 99.8306 12.3796 99.8306 7.97508C99.8306 3.57057 96.3334 0 92.0196 0C87.7058 0 84.2087 3.57057 84.2087 7.97508C84.2087 12.3796 87.7058 15.9502 92.0196 15.9502Z" fill="#3F83F8"/>
<path d="M70.7941 37.3858C66.4803 37.3858 62.9832 33.8153 62.9832 29.4107C62.9832 25.0062 66.4803 21.4357 70.7941 21.4357C75.1079 21.4357 78.605 25.0062 78.605 29.4107C78.605 33.8153 75.1079 37.3858 70.7941 37.3858Z" fill="#3F83F8"/>
<path d="M49.7997 37.3858C45.4859 37.3858 41.9888 33.8153 41.9888 29.4107C41.9888 25.0062 45.4859 21.4357 49.7997 21.4357C54.1135 21.4357 57.6106 25.0062 57.6106 29.4107C57.6106 33.8153 54.1135 37.3858 49.7997 37.3858Z" fill="#3F83F8"/>
<path d="M70.7941 15.9502C66.4803 15.9502 62.9832 12.3796 62.9832 7.97508C62.9832 3.57056 66.4803 0 70.7941 0C75.1079 0 78.605 3.57056 78.605 7.97508C78.605 12.3796 75.1079 15.9502 70.7941 15.9502Z" fill="#3F83F8"/>
<path d="M49.7997 15.9502C45.4859 15.9502 41.9888 12.3796 41.9888 7.97508C41.9888 3.57056 45.4859 0 49.7997 0C54.1135 0 57.6106 3.57056 57.6106 7.97508C57.6106 12.3796 54.1135 15.9502 49.7997 15.9502Z" fill="#3F83F8"/>
<path d="M28.8053 21.4357C24.4915 21.4357 20.9943 25.0062 20.9943 29.4107C20.9943 33.8153 24.4915 37.3859 28.8053 37.3859C33.1191 37.3859 36.6162 33.8153 36.6162 29.4107C36.6162 25.0062 33.1192 21.4357 28.8053 21.4357Z" fill="#3F83F8"/>
<path d="M7.81095 15.9502C12.1248 15.9502 15.6217 12.3796 15.6217 7.97508C15.6217 3.57057 12.1248 0 7.81095 0C3.49712 0 2.86102e-06 3.57057 2.86102e-06 7.97508C2.86102e-06 12.3796 3.49706 15.9502 7.81095 15.9502Z" fill="#3F83F8"/>
<path d="M264.853 23.0253C264.7 22.9091 264.544 22.8017 264.386 22.6986C260.975 20.4734 256.395 21.2861 253.938 24.6508C251.368 28.1715 252.082 33.1707 255.53 35.795C258.106 37.7552 261.489 37.8436 264.108 36.2959C264.45 36.0938 264.779 35.8644 265.091 35.6071C272.187 30.9164 268.6 29.8045 275.822 35.1552C276.05 35.3786 276.293 35.5916 276.553 35.7896C276.711 35.9099 276.873 36.0207 277.037 36.127C280.446 38.3388 285.016 37.5234 287.468 34.1642C290.038 30.6438 289.324 25.6443 285.876 23.02C283.462 21.1829 280.192 20.9486 277.556 22.3735C277.375 22.471 277.197 22.5757 277.023 22.6889C276.868 22.8007 276.712 22.9113 276.552 23.0208C276.392 23.1428 276.237 23.2717 276.087 23.4055C269.013 27.9308 272.73 28.9718 265.594 23.6684C265.362 23.4418 265.117 23.2259 264.853 23.0253Z" fill="#3F83F8"/>
<path d="M173.711 15.5984C173.906 15.6598 174.104 15.714 174.306 15.7597C174.493 15.7927 174.68 15.8269 174.869 15.8651C175.066 15.8945 175.265 15.915 175.464 15.9288C183.6 17.836 187.827 20.6793 189.2 29.5814C189.206 29.9086 189.23 30.2386 189.278 30.5707C189.305 30.7632 189.342 30.952 189.382 31.1391C190.253 35.1752 194.054 37.9071 198.121 37.3014C202.377 36.6676 205.334 32.6171 204.714 28.2719C204.25 25.0263 201.919 22.5212 198.995 21.725C198.614 21.621 198.222 21.5456 197.823 21.5021C189.557 19.6964 185.19 16.8095 183.789 7.81218C183.782 7.48908 183.758 7.16332 183.711 6.83548C183.682 6.63627 183.644 6.44093 183.602 6.24754C182.723 2.22216 178.928 -0.50026 174.867 0.104549C170.612 0.738266 167.654 4.78909 168.275 9.13419C168.71 12.1759 170.859 14.7023 173.711 15.5984Z" fill="#3F83F8"/>
<path d="M6.69485 21.5449C6.50635 21.573 6.32143 21.6101 6.13817 21.6513C2.18519 22.5405 -0.490417 26.4218 0.102772 30.5744C0.723522 34.9196 4.69061 37.939 8.94634 37.3053C12.1252 36.8318 14.5787 34.4517 15.3586 31.4666C15.4604 31.0769 15.5341 30.6771 15.5767 30.2697C17.3454 21.8303 20.1728 17.3707 28.9849 15.9404C29.3014 15.9332 29.6204 15.9087 29.9415 15.8609C30.1367 15.8318 30.3279 15.7932 30.5173 15.75C34.4598 14.8527 37.1262 10.9772 36.5338 6.83129C35.9132 2.48625 31.9457 -0.533079 27.6901 0.100638C24.7111 0.544336 22.2366 2.73935 21.359 5.65047C21.2989 5.84976 21.2457 6.05223 21.2009 6.25794C21.1686 6.44906 21.1352 6.63963 21.0978 6.83261C21.0689 7.03456 21.0489 7.23725 21.0354 7.44029C19.1674 15.7474 16.3827 20.0631 7.66375 21.465C7.3433 21.4719 7.02013 21.4965 6.69485 21.5449Z" fill="#3F83F8"/>
<path d="M36.8385 6.74811C36.8122 6.55753 36.7774 6.37057 36.7388 6.18528C35.9061 2.18863 32.2712 -0.516548 28.3822 0.0831982C24.3129 0.710807 21.4852 4.72173 22.0787 9.02447C22.5221 12.2384 24.7511 14.719 27.5467 15.5076C27.9116 15.6105 28.286 15.685 28.6676 15.7281C36.5712 17.5163 40.7476 20.375 42.0871 29.2844C42.0939 29.6044 42.1169 29.9269 42.1616 30.2516C42.1889 30.4489 42.225 30.6423 42.2654 30.8338C43.1058 34.8199 46.7353 37.5157 50.618 36.9168C54.6871 36.2893 57.5148 32.278 56.9213 27.9754C56.5058 24.9634 54.4501 22.4616 51.7238 21.5742C51.5372 21.5135 51.3476 21.4598 51.1549 21.4144C50.9759 21.3818 50.7975 21.348 50.6167 21.3102C50.4276 21.281 50.2378 21.2607 50.0476 21.2471C42.268 19.3585 38.2262 16.543 36.9133 7.72771C36.9069 7.40372 36.8838 7.07699 36.8385 6.74811Z" fill="#3F83F8"/>
<path d="M1.57212 131.855C1.45827 132.011 1.35321 132.171 1.2522 132.332C-0.927197 135.815 -0.131224 140.491 3.16423 142.999C6.61235 145.623 11.5087 144.894 14.0789 141.374C15.999 138.744 16.0854 135.289 14.5695 132.616C14.3717 132.267 14.147 131.931 13.8949 131.612C9.30078 124.367 8.21181 128.029 13.4523 120.656C13.6711 120.422 13.8798 120.175 14.0737 119.909C14.1915 119.748 14.3001 119.582 14.4041 119.415C16.5705 115.934 15.7718 111.269 12.4817 108.765C9.03375 106.14 4.13727 106.87 1.56704 110.39C-0.232304 112.855 -0.461802 116.193 0.933763 118.886C1.02926 119.07 1.13189 119.251 1.24273 119.429C1.35225 119.588 1.46052 119.747 1.56776 119.91C1.68719 120.074 1.81346 120.231 1.94447 120.385C6.37669 127.607 7.39623 123.813 2.20199 131.099C1.98004 131.335 1.7686 131.586 1.57212 131.855Z" fill="#3F83F8"/>
</svg>
