<?xml version="1.0" encoding="UTF-8"?>
<svg id="a" xmlns="http://www.w3.org/2000/svg" viewBox="0 0 1025.59 866.39">
    <defs>
        <style>.b{fill:#027835;}.c{fill:#eb5f4f;}</style>
    </defs>
    <path class="b"
          d="M273.36,203.65c-1.71-3.22-3.05-7.75-5.86-9.4-3.27-2.04-5.22-3.5-5.88-4.41-1.53-2.2-1.83-2.74-3.25-4.81-1.88-2.18-3.94-3.2-6.2-3.04-2.26,.16-6.94-2.35-11.71-4.38-12.49-5.44-20.38-5.68-21.8-4.88-2.6,1.46-5.21,1.49-7.81,.09-.57-.25-1.77-.37-3.63-.35-9.25,.11-17.38,2.35-24.39,6.71,0,0-8.82,2.51-10.47,5.57-1.65,3.06-9.36,5.51-11.01,7.96-1.65,2.45-16.52,19.6-16.52,19.6,11.96,2.35,8.51-13.48,22.02-13.48,1.65,0,7.53-3.98,7.53-3.98,4.97-5.65,12.44-9.94,22.39-12.92,2.8-.81,5.77-1.24,8.9-1.27,10.64-.12,26.19,1.1,40.57,10.94,4.16,2.94,7.19,13.25,15.2,23.67,2.73,3.74,3.97,8.59,3.72,14.56-.18,4.3,.24,12.97-1.82,20.91-1.64,5.99-5.8,11.61-10.62,18.94-3.83,5.77-7.98,8.7-11.23,11.86-3.26,3.15-6.21,4.74-8.87,4.78-.82,0-1.56-.11-2.24-.37-.23-.12-1.83-.43-4.82-.91-2.41-.36-4.91-1.31-7.51-2.84-2.6-1.53-4.11-5.41-4.54-11.63-.15-2.08-.07-6.62,.22-13.64,.14-3.24-.2-7.72-.99-13.43-.8-5.71-1.63-9.46-2.48-11.27-.85-1.8-.64-9.4,.62-22.79,.01-.26,.25-1.88,.72-4.88,.33-2.34,.53-4.35,.6-6.05,.24-5.72-1-9.27-3.71-10.67-1.36-.76-2.67-1.14-3.94-1.12-4.97,.06-8.9,4.06-11.78,12.02-.52,1.57-.83,3.44-.92,5.66-.27,6.37,3.39,6.59,5.82,9.29,1.32,1.54-.22,11.09,.57,20.05,.75,9.73,1.22,14.86,1.43,15.37,.72,1.94,1.05,5.19,.98,9.74,.04,4.41-.28,7.79-.95,10.14-.14,.64-.22,1.3-.25,1.95-.05,1.17,.16,3.12,.62,5.83,.46,2.72,.66,4.87,.6,6.42-.06,1.43-.5,3.62-1.32,6.54-.82,2.93-1.25,5.05-1.3,6.35-.12,2.86,.4,6.99,1.7,9.05,1.51,2.45,3.93-.84,7.05-.88,2.19-.02,4.15,3.87,6.05,2.68,1.19-.79,2.47-1.07,3.85-.83,2.65,.23,5.26-1.41,7.69-1.58,6.84-.47,15.38-4.33,25.63-11.59,16.07-11.39,22.56-32.84,26.69-53.49,1.12-5.59,2.85-10.16,3.03-14.45,.25-5.97-1.87-13.1-6.38-21.35Zm126.65,20.54c-1.17-.6-2.44-.9-3.81-.89-3.12,.14-9.3,1.3-18.54,3.46-8.87,1.96-16.04,3.83-21.52,5.65-15,4.18-26.38,7.2-34.14,9.03-3.82,1.59-6.12,2.34-6.9,2.24-.77-.09-2.5,.19-5.17,.83-2.96,.65-4.81,1.04-5.55,1.15-3.49,.35-5.19-.45-5.11-2.4,.02-.52,.19-1.08,.48-1.7,3.12-6.82,5.5-10.06,7.33-14.3,.18-.21,.78-1.29,1.78-3.26,.7-1.35,1.56-2.29,2.59-2.81,2.88-1.17,4.97-1.86,6.26-2.07,6.15-2.64,11.56-4.96,16.22-6.98,5.2-1.81,8.21-2.77,9.04-2.88,2.77-.75,4.82-1.39,6.12-1.93,1.84-.33,3.22-.85,4.11-1.59,.91-.73,2.11-1.26,3.64-1.59,1.53-.33,3.83-1.17,6.9-2.55,2.51-1.05,4.39-1.59,5.62-1.61,1.24-.02,2.63-.36,4.17-1.05,1.54-.68,2.54-1.08,3-1.19,2.77-.55,4.47-.82,5.12-.83,2.1-.03,3.81,.57,5.13,1.79,.98,.82,1.97,2.04,3.01,3.67,.51,.92,1.23-1.01,1.97-1.23,.65-.21,1.37-.86,2.15-1.95,.77-1.09,1.19-2.2,1.23-3.33,.09-2.06-1.11-3.58-3.58-4.58-2.47-1-4.86-1.48-7.14-1.46-2.66,.03-7.05,1.01-13.16,2.92-3.9,1.18-7.79,2.41-11.69,3.68-4.9,1.19-7.61,2.08-8.14,2.65-.52,.57-2.11,1.41-4.77,2.52-2.66,1.11-4.81,1.73-6.46,1.85-4.15,.77-7.11,1.42-8.87,1.95-5.17,1.09-8.57,2.46-10.19,4.13-.96,.93-2.06,1.49-3.29,1.65-1.24,.17-2.37,.32-3.38,.43-3.16,.96-5.07,.88-5.75-.25-1.28-2.25-3.48-3.35-6.59-3.32-5.22,.06-7.86,1.95-7.93,5.65,0,1.95-.48,3.81-1.47,5.57-1.12,2.68-1.76,4.9-1.93,6.65-.31,2.88-.37,4.43-.19,4.63,.56,1.74-.08,2.84-1.92,3.26-.65,.12-1.07,.32-1.26,.63-.4,.73-.79,1.45-1.19,2.18-1.76,2.59-2.33,4.3-1.73,5.11,.94,1.43,1.05,3.28,.32,5.55-.13,.72-.29,1.41-.51,2.09-.21,.68-.83,1.27-1.86,1.8-2.06,1.05-3.16,3.22-3.29,6.52-.05,1.13,.19,2.05,.7,2.76,.86,1.23,1.33,2.1,1.4,2.61-.01,.31-.15,1.34-.4,3.09-.38,2.38-.48,6.95-.3,13.73,.09,4.21,1.22,7.91,3.38,11.07,3.53,5.2,9.28,7.76,17.24,7.66,6.41-.07,15.11-1.41,26.11-4,6.94-1.82,13.83-3.61,20.67-5.33,8.22-1.74,12.74-2.71,13.58-2.93,.83-.21,1.66-.86,2.48-1.96,.82-1.09,1.26-2.09,1.29-3.02,.01-.3,1.88-.47,1.71-.68-5.25-7.39,11.6-7.74,1.19-9.65-2.91-.48-12.13-.01-14.1,1.25-1.73,1.77-2.6,3.01-2.63,3.72-.38,.31-4.29,1.39-11.73,3.22-7.45,1.84-11.9,2.86-13.37,3.08-5.7,.68-8.28,1.08-7.73,1.17-1.37-.08-3.08,.25-5.12,.98-1.31,.53-3.6,.56-6.87,.08-3.46-.58-10.05,.86-11.46-.36l-2.64-2.44c-.43-.61-.56-2.04-.37-4.31,.22-3.08,.85-7.15,1.88-12.2,1.15-5.56,2.02-5.66,2.88-6.4,1.32-1.04,7.66-3.74,19.01-8.08,12.46-4.87,21.7-7.91,27.69-9.12,3.88-.76,6.47-1.41,7.77-1.94,.74-.32,.98-.53,.71-.63,.27,0,.55,0,.83-.01,1.18,.09,3.44-.4,6.78-1.46,2.51-.86,5.01-1.65,7.51-2.41,12.31-3.22,20.38-4.87,24.23-4.91,2.11-.02,3.56,.27,4.35,.88,1.68,1.32,2.71,1.98,3.08,1.97l2.15-5.38c.38-.42,.58-.89,.61-1.4,.03-.82-.53-1.54-1.69-2.14Zm213.08,40.91c-.98-3.12-1.43-7.59-8.98-33.3-3.05-10.4-4.15-22.51-11.26-51.59-5.7-23.08-4.17-19.42-7.57-28.39-4.51-11.43-14.16-17.12-19.58-17.05-2.56,.03-4.15,1.67-8.49,4.9-2.65,1.98-4.1,6.59-4.4,13.84-.21,5.42-1.85,16.26-.93,22.24,.17,3.01-.71,8.26-2.66,30.74-.57,6.54-.68,10.97-.32,13.26,.22,1.76-.11,6.19-.98,13.27-1.99,15.41-5.22,22.51-9.68,21.33-.74-.34-1.97-5.2-3.69-14.53-1.69-10.41-3.47-20.72-5.31-30.95-2.79-14.99-4.82-19.09-6.08-22.67,2.83-.8,4.85-1.35,5.6-1.52,2.79-.5-.06,3.54,2.74,3.04,3.33-1.03,14.01-4.47,14.06-6.83,.1-3.7-.79-8.58-2.83-8.51-.6,.02-1.09,.37-1.7,.67-.39,.2-.72,.3-2.23,.69-4.16,1.07-10.6,2.59-17.92,4.27-2.09-6.97-4.33-11.21-6.74-12.7-3.82-2.42-6.64-3.62-8.43-3.6-3.47,.04-4.06,1.44-5.52,4.2-1.47,2.75-.6,4.46-1.91,7.3-.8,1.25-.49,.51-.55,1.92-.03,.76-.65,4.2-1.09,8.42-10.04,2.3-19.08,4.4-23.92,5.68-11.57,2.64-19.88,3.72-25.11,2.95-1.57-.19-3.2-.06-4.87,.37-1.98,.43-3.08,.65-3.3,.65-4.37,.05-12.1,2.59-12.29-.79-.34-6.03-3.17-9.86-7.57-9.82-1.74,.02-3.62,1.18-5.63,3.45-2.22,2.6-3.36,4.88-3.45,6.82-.04,.93,.15,1.8,.57,2.62,.77,1.43,.77,.47-.27,3.21-1.03,2.73-2.37,4.21-4.03,4.44-5.34,.79-13.33,2.52-23.97,5.22-14.79,3.67-23.07,6.89-24.84,9.69-1.08,1.66-1.76,5.94-1.8,6.77-.04,1.03,1.31,1.68,4.04,1.95,.09,0,.15-1.68,2.87-1.09,1.19,.2,1.76-.28,2.42-.7,.66-.42,2.8-1.24,3.1-1.86,.08-.22,.17-.33,.19-.55,.07-.12,.15-.25,.26-.37,1.23-1.04,6.62-2.85,16.15-5.43,2.4-.65,8.7-2.31,18.88-5.01,1.38-.32,2.54-.49,3.45-.5,1.56-.02,2.43,1.05,2.61,3.2,.75,3.8,1.45,6.77,2.1,8.92,1.1,8.63,1.89,18.1,2.36,24.27,.22,3.39,.26,7.83,.12,9.17-.07,1.75,.19,3.08,.79,4,1.71,5.13,2.94,9.48,3.71,13.07,.69,3.07,1.85,5.99,3.47,8.75,.93,1.63,2.75,4.34,5.43,8.11,1.73,2.45,3.32,3.82,4.77,4.11,.91,.09,1.82,.19,2.73,.28,.62,.41,1.29,.81,2.01,1.21,.81,.4,1.81,.39,3.02-.03,5.02-1.81,13.44-2.15,13.61-6.16,.06-1.33-5.99-5.39-6.47-7.03-.55-2.04-6.47-2.55-11.65-7.68-5.19-5.13-5.06-11.56-5.73-13.09-1.18-2.45-2.29-9.48-3.29-16.92-1.02-7.44-1.57-16.54-1.65-23.12-.03-1.64-.01-3.13,.05-4.47,.16-3.7,.72-6.22,1.69-7.58,.29-.41,1.37-1.1,3.24-2.04,1.31-.63,4.61-1.23,7.65-1.79,.83-.11,3.71-.45,8.62-1.02,7.49-.91,19.42-3.63,35.62-7.75,3.64-.93,8.23-2.18,13.08-3.54-.84,6.01-2.15,15.45-3.3,20.75-.4,2.13-1.1,8.94-3.06,20.45-1.17,6.55-1.1,11.44-2.57,14.63-.83,1.78-1.52,3.91-2.06,6.39-.21,1.25-4.25,21.39-5.92,23.97l-1.87,11.68s-4.41,8.96-6.61,7.68c-2.21-1.28-3.27-16.4-3.27-16.4,0,0-2.47-8.06-2.47-13.18s.79-6.47-.31-9.02c-1.1-2.56,0-6.41,0-6.41l-1.65-1.91-2.2,16s-.56,.21-.56,9.16,6.06,34.57,6.06,34.57c.11,2.12,4.26,3.63,5.25,5.81,1,2.18-.01,.77,1.3,.74,.69-.02,2.04,.91,2.76,0,1.5-1.8,11.48,.13,14.36-15.29,4.73-24.26,7.28-37.11,7.64-38.53,3.19-11.88,5.55-23.93,7.1-36.14,.89-7.08,1.78-14.15,2.67-21.24,.78-4.43,2.12-6.21,4.06-5.34,2.21,.85,4.26,2.6,6.11,5.23,1.86,2.62,2.81,5,2.88,7.11-.05,1.25,1.01,3.88,3.18,7.91,2.17,4.05,3.21,7.47,3.09,10.31-.09,2.12,.48,4.73,1.72,7.81,1.23,3.09,1.57,5.94,1,8.6-.45,7.43,2.01,12.2,2.68,14.32-.06,1.41,.41,3.66,1.42,6.74,1,3.09,1.39,3.42,1.16,5.36-.24,1.95,1.9,2.9,2.64,5,.74,2.11,1.07,4.32,.97,6.62-.62,15.39,9.62,3.7,14.17,6.47,4.07-.05,3.63-4.25,7.14-12.6,.82-1.95-2.01,4.55-1.95-30.62,.08-65.75,.18-92.69,6.06-92.76,2.72-.03,4.61,.97,8.49,9.41,2.2,5.28,2.19,7.68,4.55,12.77,4.85,13.91,2.93,8.21,6.36,20,2.09,7.75,2.81,12.25,2.16,13.49,.26,1.06,.74,2.29,1.45,3.69,1.62,4.4,2.19,6.78,1.73,7.14,.13,.71,.46,1.68,1.02,2.91,.88,4.05,1.16,6.61,.81,7.67,.28,.71,1.04,1.45,1.48,2.64,.6,1.66,1.12,1.47,1.84,2.89,.34,.68,2.09,2.39,2,4.78-.11,2.39,.71,4.84,1.83,6.86,1.12,2.02,1.4,3.53,1.41,5.02,.01,1.51,2.85,3.05,3.85,4.62,2.01,5.99-.1,5.83,.11,8.66l.11,1.65,4.49,7.68s9.22,15.33,15.83,19.81c6.6,4.48,4.95,5.13,9.91,7.04,4.95,1.92,14.28,10.26,20.89,12.18,6.61,1.92,12.11,3.84,15.42,3.84s4.95-1.92,4.95-1.92c-14.32-5.76-30.47-14.55-39.56-21.87-8.37-6.74-18.31-24.84-21.12-33.81Zm-61.28,28.82c-1.06,.01,1.02,.7,0,0h0Zm178.49-60c.26-2.18-1.11-6.17-4.09-11.97-1.79-3.41-3.79-5.04-5.98-4.91-1.02,.13-1.31,.6-.89,1.39,1.55,2.73,2.48,4.61,2.81,5.63,1.95,6.27,2.83,12.21,2.63,17.83-.1,2.76-.53,5.23-1.25,7.41-.83,2.65-1.74,6.15-2.73,10.52-.67,3.1-1.35,5.34-2.04,6.72-6.41,12.22-15.65,19.45-27.73,21.66-7.93,1.48-13.26,2.24-16.01,2.27-.92,.01-2.78-.31-5.59-.96-4.08-.98-8.92-3.66-14.51-8.06-15.77-12.18-10.12-2.84-18.15-24.67-.9-2.5-1.32-5.18-1.2-8.06,.12-2.98,1.45-8.15,4.03-15.51,.5-1.49-.39-2.18,.13-3.62,.51-1.44,1.14-2.39,1.9-2.86,2.85-3.13,3.28-7.2,5.02-9.39,3.12-2.9,8.24-2.96,8.79-2.97,.36,0,3.99,2.07,10.87,6.21,7.25,4.26,11.1,.62,14.18,1.49,3.08,.88,3.31-1.87,4.31-1.66,1.45,.44,3.31-.67,3.86-.68,.2-.23,4.61-2.31,4.89-2.43-.33-3.42-6.33,.04-11.53-2.64-4.4-2.23-5.93,1.9-7.23-.02-.34-.57-1.58-1.87-3.7-3.9-1.68-1.58-2.5-2.78-2.47-3.58,.03-.57,.55-.97,1.55-1.22,1.66-.36,2.69-.66,3.05-.9,1.31-.7,3.2-1.07,5.67-1.1,3.39-.05,6.38,.72,8.98,2.29,1.25,.79,3.85,3.51,7.79,8.15,3.05,3.75,5.74,5.54,8.03,5.39,2.65-.15,4.68-1.61,6.06-4.37,1.19-2.42,1.72-5.35,1.57-8.79-.22-3.88-1.86-7.93-4.9-12.13-3.75-5-8.58-8.71-14.53-11.15-6.67-2.66-12.2-3.97-16.59-3.91-3.94,.05-7.79,1.25-11.53,3.59-3,1.87-5.03,3.68-6.11,5.41-.4,.81-.84,1.62-1.33,2.43-.85,.7-1.86,2-3.02,3.9-1.18,1.9-2.36,2.98-3.56,3.22-1.84,.37-8.82,3.3-14.4,10.35-5.95,7.53-8.51,14.46-11.41,20.79-3.09,6.79-3.37,13.92-3.65,21.37-.6,15.81,5.64,28.84,18.71,39.09,9.05,7.1,20.32,10.57,33.78,10.39,8.32-.11,16.44-1.59,24.32-4.45,7.23-2.6,12.62-5.77,16.14-9.48,4.1-4.29,6.88-7.59,8.34-9.9,.88-1.39,1.58-3.16,2.12-5.36,2.11-7.47,3.91-13.85,5.39-19.13,.65-7.34,1.05-13.24,1.23-17.71Zm-72.15-40.89c1.53-1.74,2.95-2.96,4.26-3.66,2.21-.6,3.74-.79,4.56-.57,2.3-.72,3.93-1.31,4.86-1.78,2.75-.26,4.11,.52,4.03,2.35-.09,2.29-2.42,3.58-7,3.87-3.8,1.08-6.4,2.03-7.8,2.85-.84,.36-1.53,.54-2.09,.54-1.2,.02-1.46-1.18-.83-3.6Zm155.84,90.44c-.89,.73-6.12,.95-15.7,.65-3.07-.07-6.09-.45-9.06-1.13-2.42-.49-3.84-.68-4.27-.56-.65,.11-1.5,.01-2.56-.28-1.49-.39-2.91-.63-4.26-.72-.5,0-9.22,1.34-26.14,4-.72,.11-1.37,.16-1.93,.17-1.58,.02-3.91-.47-4.6-1.48-.1,0-.59-1.23-1.49-3.68-.17-.51-.22-1.18-.19-2.01,.06-1.43,.51-3.55,1.37-6.34,.82-2.16,3.07-7.07,3.74-9.19,3.43-9.07,6.49-16.69,9.15-22.87,4.7-11.78,12.76-34.1,13.19-36.51,.22-1.25,1.51-5.53,3.89-12.87,2.09-6.65,6.38-12.19,6.46-14.02,.06-1.54-3.56-.99-4.47-.98-.83,0-4.14-.35-5.08,.28-.94,.63-1.83,2.25-2.68,4.86-.29,.87-1.22,4.34-2.79,10.41-2.89,10.02-10.5,32.39-11.83,36.62-4,12.92-8.17,22.16-9.65,24.85-1.23,3.1-2.02,5.42-2.36,6.97-.3,.51-.83,2.32-1.6,5.41-.57,2.58-2.53,3.89-3.17,3.89-.17,0,1.74-.58,.74-.97-.99-.4-.45,.44-1.46,.35-3.01-.37-6.36,4.09-10.03,13.38-1.23,3-1.88,5.53-1.97,7.58-.08,1.95,.4,3.65,1.44,5.07,1.62,2.66,2.65,4.39,3.07,5.21,.17,.2,.76,.3,1.77,.29,2.47-.03,10.74-.75,17.73-2.05,7.5-1.42,11.64-2.19,12.43-2.31,3.32-.76,5.2-1.34,5.66-1.76,5.02-.47,9.44-.73,13.22-.77,3.44-.25,8.72,.11,15.84,1.05,7.53,.94,11.24,1.41,11.09,1.41,2.65-.03,4.91-1.85,6.78-5.48,.85-1.55,1.3-3.05,1.37-4.49,.08-2.16-.45-2.82-1.64-1.98Zm73.99-73.3c-1.47-2.76-6.17-8.94-8.59-10.36-2.79-1.74-4.47-3-5.03-3.78-1.32-1.88-1.25-.42-2.46-2.19-1.62-1.87-3.31-4.39-5.24-4.25-1.93,.14-4.88-2.31-8.97-4.05-10.7-4.66-16.83-2.53-18.04-1.85-2.24,1.25-3.82-.63-6.69,.08-.52,.14-1.53-.31-3.11-.3-7.93,.1-14.89-.25-20.9,3.5,0,0-2.49,2.62-11.1,5.23-8.28,2.52-5.29,5.07-11.83,7.23-1.62,.54-5.49,7.56-1.58,6.79l17.41-6.76c.2-.23,10.85-3.81,18.97-6.22,2.41-.7,4.95-1.06,7.62-1.09,9.11-.11,20.08-1.72,32.41,6.71,3.56,2.52,10.05,12.35,16.91,21.28,2.34,3.2,.47,7.4,.27,12.51-.16,3.68,1.81,8.88,.04,15.69-1.41,5.14,.72,12.46-3.4,18.74-3.29,4.93-12.83,10.45-15.61,13.15-2.79,2.71-5.19,.77-7.47,.8-.69,.01-1.33-.09-1.92-.31-.19-.11-1.57-.37-4.12-.78-2.06-.31-4.35,2.17-6.57,.86-2.22-1.31-3.37-7.93-3.75-13.26-.13-1.78-.07-5.67,.19-11.69,.12-2.78-.17-6.62-.85-11.51-.69-4.89,1.53-8.14,.81-9.69-.73-1.55-3.48-8.02-2.39-19.5,0-.22,.21-1.61,.61-4.18,.29-2.01,.46-3.74,.53-5.19,.2-4.9-.87-7.94-3.19-9.14-1.16-.65-3.97,2.83-5.05,2.84-4.26,.05-5.95-.32-8.42,6.5-.45,1.34,3.07,2.94,3,4.83-.22,5.46-.17,9.32,1.92,11.63,1.12,1.33,2.03,5.82,2.7,13.49,.64,8.34-1.88,12.77-1.7,13.22,.62,1.66,.9,4.44,.84,8.34,.03,3.78-.24,6.68-.82,8.69-.12,.55-.19,1.11-.21,1.67-.04,.99,.13,2.67,.53,5,.39,2.33,.57,4.17,.5,5.5-.05,1.23-.42,3.1-1.13,5.6-.7,2.52-1.02,4.33-1.12,5.44-.92,10.69,6.36,12.34,3.27,7.44-1.3-2.09,1.54,2.01,4.21,1.98,1.88-.02,3.57,1.11,5.19,.08,1.02-.68,2.9-.68,4.08-.47,2.27,.19,3.73-1.66,5.83-1.8,5.85-.4,14.35-1.94,21.96-9.94,19.04-20.02,9.78-2.58,22.68-40.9,1.57-4.58,1.18-13.63,1.34-17.3,.22-5.12,1.32-11.26-2.54-18.34Zm-207.66,112.7c-3.31,1.15-1.66,4.02-1.66,4.02,0,0,6.06,.57,8.26,3.44,2.21,2.87,7.71,2.29,11.02,2.29s0-4.02,0-4.02c-6.61-1.72-17.62-5.74-17.62-5.74ZM159.29,210.95c-2.83,3.71-13.38,10.74-16.68,10.74s-4.95,5.49-7.16,10.44c-2.2,4.95,1.66,6.59,1.66,6.59,0,0,7.16-2.19,9.36-8.24,2.2-6.05,12.66-15.93,12.66-15.93-1.65,5.49,4.18-8.85,.16-3.6Z"/>
    <path d="M438.15,141.72V729.86c-.06-.02-.13-.02-.19-.02h-1.67V141.72h1.86Z"/>
    <rect x="436.29" y="702.85" width="1.86" height="27.01"/>
    <g>
        <path class="c"
              d="M587.45,473.16c-1.48-1.83-2.23-3.47-2.23-4.92s1.23-3.38,3.68-5.78c1.43-1.37,2.94-2.05,4.54-2.05s3.82,1.43,6.68,4.28c.8,.97,1.94,1.9,3.42,2.78,1.48,.89,2.85,1.33,4.11,1.33,5.31,0,7.96-2.17,7.96-6.51,0-1.31-.73-2.41-2.18-3.3-1.46-.88-3.27-1.53-5.44-1.93-2.17-.4-4.51-1.04-7.02-1.93-2.51-.88-4.85-1.93-7.02-3.12-2.17-1.2-3.98-3.09-5.44-5.69-1.45-2.6-2.18-5.72-2.18-9.37,0-5.02,1.87-9.4,5.61-13.14,3.74-3.74,8.83-5.61,15.28-5.61,3.42,0,6.55,.44,9.37,1.33,2.82,.89,4.78,1.78,5.86,2.7l2.14,1.63c1.77,1.66,2.65,3.05,2.65,4.19s-.68,2.71-2.05,4.71c-1.94,2.85-3.94,4.28-5.99,4.28-1.2,0-2.68-.57-4.45-1.71-.17-.11-.5-.4-.98-.86-.48-.46-.93-.83-1.33-1.11-1.2-.74-2.73-1.11-4.58-1.11s-3.4,.44-4.62,1.33c-1.23,.89-1.84,2.11-1.84,3.68s.73,2.84,2.18,3.81c1.46,.97,3.27,1.63,5.43,1.97,2.17,.34,4.54,.87,7.1,1.58,2.57,.71,4.94,1.58,7.11,2.61,2.17,1.03,3.98,2.81,5.43,5.35,1.46,2.54,2.18,5.66,2.18,9.37s-.74,6.98-2.23,9.8c-1.48,2.82-3.42,5.01-5.82,6.55-4.62,3.03-9.56,4.54-14.81,4.54-2.68,0-5.22-.33-7.62-.98-2.4-.66-4.34-1.47-5.82-2.44-3.03-1.83-5.14-3.6-6.33-5.31l-.77-.94Z"/>
        <path class="c"
              d="M651.14,442.86c2.68-4.05,5.91-6.08,9.67-6.08,5.82,0,10.16,2.48,13.01,7.45,.63-.86,1.38-1.75,2.27-2.7,.88-.94,2.3-1.97,4.24-3.08,1.94-1.11,3.94-1.67,5.99-1.67,4.56,0,8.39,1.75,11.47,5.26,3.08,3.51,4.62,9.32,4.62,17.42v14.98c0,1.31-.04,2.3-.13,2.95-.09,.66-.36,1.41-.81,2.27-.74,1.54-2.94,2.31-6.59,2.31s-5.79-.8-6.59-2.4c-.4-.86-.64-1.61-.73-2.27-.09-.66-.13-1.64-.13-2.95v-14.98c0-4.96-1.77-7.45-5.31-7.45-2,0-3.35,.66-4.07,1.97-.71,1.31-1.07,3.17-1.07,5.56v14.98c0,1.37-.04,2.37-.13,3-.09,.63-.36,1.37-.81,2.23-.8,1.54-3.03,2.31-6.68,2.31s-5.79-.8-6.59-2.4c-.4-.86-.64-1.61-.73-2.27-.09-.66-.13-1.64-.13-2.95v-14.98c0-4.96-1.77-7.45-5.31-7.45s-5.14,2.48-5.14,7.45v15.15c0,1.31-.04,2.3-.13,2.95-.09,.66-.36,1.41-.81,2.27-.86,1.48-3.08,2.23-6.68,2.23s-5.79-.77-6.59-2.31c-.4-.86-.64-1.6-.73-2.23-.09-.63-.13-1.63-.13-3v-30.13c0-1.31,.04-2.3,.13-2.95,.09-.66,.36-1.38,.81-2.18,.86-1.54,2.88-2.31,6.08-2.31s5.28,.51,6.25,1.54c.97,1.03,1.46,2.51,1.46,4.45Z"/>
        <path class="c"
              d="M738.53,441.66c.34-3.2,2.6-4.79,6.76-4.79,2.23,0,3.88,.17,4.97,.51,1.08,.34,1.84,.94,2.27,1.8s.68,1.61,.77,2.27c.09,.66,.13,1.64,.13,2.95v29.96c0,1.31-.04,2.3-.13,2.95-.09,.66-.33,1.41-.73,2.27-.8,1.48-2.75,2.23-5.86,2.23s-5.19-.38-6.25-1.16c-1.06-.77-1.67-1.9-1.84-3.38-2.11,3.03-5.64,4.54-10.57,4.54s-9.52-2.25-13.74-6.76c-4.22-4.51-6.33-9.74-6.33-15.71s2.12-11.18,6.38-15.66c4.25-4.48,8.91-6.72,13.99-6.72,1.94,0,3.71,.34,5.31,1.03,1.6,.68,2.71,1.33,3.34,1.93,.63,.6,1.14,1.18,1.54,1.75Zm-15.58,17.8c0,1.88,.74,3.58,2.23,5.09,1.48,1.51,3.28,2.27,5.39,2.27s3.87-.77,5.26-2.31c1.4-1.54,2.1-3.24,2.1-5.09s-.67-3.58-2.01-5.18c-1.34-1.6-3.14-2.4-5.39-2.4s-4.08,.8-5.48,2.4c-1.4,1.6-2.1,3.34-2.1,5.22Z"/>
        <path class="c"
              d="M790.91,437.38c1.08,.34,1.98,.93,2.7,1.75,.71,.83,1.07,2.15,1.07,3.98s-.54,3.82-1.63,5.99c-1.08,2.17-2.65,3.25-4.71,3.25-1.03,0-2.01-.23-2.95-.68-.94-.46-2.18-.69-3.72-.69s-2.98,.54-4.32,1.63c-1.34,1.08-2.01,2.4-2.01,3.94v17.97c0,1.31-.04,2.3-.13,2.95-.09,.66-.36,1.41-.81,2.27-.86,1.48-3.08,2.23-6.68,2.23-2.74,0-4.71-.48-5.91-1.46-.91-.8-1.43-2.02-1.54-3.68v-32.53c0-1.31,.04-2.3,.13-2.95,.09-.66,.33-1.38,.73-2.18,.8-1.54,3.02-2.31,6.68-2.31,3.42,0,5.56,.66,6.42,1.97,.63,.91,.94,1.85,.94,2.82,.28-.4,.7-.88,1.24-1.45,.54-.57,1.7-1.34,3.47-2.31,1.77-.97,3.32-1.46,4.66-1.46s2.47,.07,3.38,.21c.91,.14,1.91,.39,3,.73Z"/>
        <path class="c"
              d="M825.58,452.01l-5.56-.34v11.81c0,1.54,.24,2.65,.73,3.34,.48,.69,1.4,1.03,2.74,1.03s2.37,.04,3.08,.13c.71,.09,1.47,.36,2.27,.81,1.31,.74,1.97,2.65,1.97,5.73,0,3.6-.8,5.79-2.4,6.59-.86,.4-1.61,.64-2.27,.73-.66,.09-1.61,.13-2.87,.13-5.94,0-10.44-1.34-13.52-4.02-3.08-2.68-4.62-7.22-4.62-13.61v-12.67c-1.08,.17-2.26,.26-3.51,.26s-2.3-.48-3.12-1.45c-.83-.97-1.24-2.62-1.24-4.96s.14-4.04,.43-5.09c.29-1.06,.68-1.81,1.2-2.27,.91-.74,2.05-1.11,3.42-1.11l2.82,.34v-8.82c0-1.31,.04-2.28,.13-2.91,.09-.63,.36-1.31,.81-2.05,.74-1.43,2.94-2.14,6.59-2.14,3.88,0,6.19,1.06,6.93,3.17,.29,.91,.43,2.37,.43,4.37v8.39c2.51-.23,4.41-.34,5.69-.34s2.25,.04,2.91,.13c.66,.09,1.41,.36,2.27,.81,1.48,.74,2.23,2.94,2.23,6.59s-.77,5.79-2.31,6.59c-.86,.4-1.61,.64-2.27,.73-.66,.09-1.64,.13-2.95,.13Z"/>
    </g>
    <g>
        <path class="c"
              d="M625.9,562.98l1.55-1.12c1.95-1.15,3.32-1.72,4.13-1.72,1.78,0,3.7,1.61,5.76,4.82,1.26,2.01,1.89,3.61,1.89,4.82s-.39,2.21-1.16,3.01c-.77,.8-1.68,1.52-2.71,2.15-1.03,.63-2.02,1.23-2.97,1.81-.95,.57-2.88,1.32-5.8,2.24-2.92,.92-5.75,1.38-8.47,1.38s-5.47-.36-8.25-1.07c-2.78-.72-5.65-1.92-8.6-3.61-2.95-1.69-5.6-3.75-7.95-6.19-2.35-2.44-4.29-5.56-5.8-9.37-1.52-3.81-2.28-7.95-2.28-12.43s.74-8.53,2.24-12.17c1.49-3.64,3.4-6.65,5.72-9.03,2.32-2.38,4.97-4.37,7.95-5.98,5.62-3.1,11.26-4.64,16.94-4.64,2.69,0,5.43,.42,8.21,1.25,2.78,.83,4.89,1.68,6.32,2.54l2.06,1.2c1.03,.63,1.83,1.15,2.41,1.55,1.49,1.2,2.24,2.57,2.24,4.08s-.6,3.11-1.81,4.77c-2.24,3.1-4.24,4.64-6.02,4.64-1.03,0-2.49-.63-4.38-1.89-2.41-1.95-5.62-2.92-9.63-2.92-3.73,0-7.39,1.29-11.01,3.87-1.72,1.26-3.15,3.04-4.3,5.33-1.15,2.29-1.72,4.89-1.72,7.78s.57,5.49,1.72,7.78c1.15,2.29,2.61,4.1,4.38,5.42,3.5,2.52,7.14,3.78,10.92,3.78,1.78,0,3.45-.23,5.03-.69,1.58-.46,2.71-.92,3.4-1.38Z"/>
        <path class="c"
              d="M659.05,525.79c-.43,.83-1.19,1.42-2.28,1.76-1.09,.34-2.54,.52-4.34,.52s-3.25-.17-4.34-.52c-1.09-.34-1.85-.95-2.28-1.81s-.69-1.62-.77-2.28c-.09-.66-.13-1.65-.13-2.97s.04-2.31,.13-2.97c.09-.66,.33-1.39,.73-2.19,.8-1.55,3.04-2.32,6.71-2.32s5.79,.77,6.54,2.32c.46,.86,.73,1.62,.82,2.28,.09,.66,.13,1.65,.13,2.97s-.04,2.31-.13,2.97c-.09,.66-.34,1.41-.77,2.24Zm-14.14,15.95c0-1.32,.04-2.31,.13-2.97,.09-.66,.33-1.42,.73-2.28,.8-1.49,3.04-2.24,6.71-2.24,2.75,0,4.7,.49,5.85,1.46,.97,.8,1.49,2.04,1.55,3.7,.06,.57,.09,1.41,.09,2.49v30.1c0,1.32-.04,2.31-.13,2.97-.09,.66-.36,1.42-.82,2.28-.75,1.49-2.95,2.24-6.62,2.24s-5.82-.77-6.62-2.32c-.4-.86-.64-1.6-.73-2.24-.09-.63-.13-1.63-.13-3.01v-30.18Z"/>
        <path class="c"
              d="M693.14,549.39l-5.59-.34v11.87c0,1.55,.24,2.67,.73,3.35,.49,.69,1.4,1.03,2.75,1.03s2.38,.04,3.1,.13c.72,.09,1.48,.36,2.28,.82,1.32,.75,1.98,2.67,1.98,5.76,0,3.61-.8,5.82-2.41,6.62-.86,.4-1.62,.64-2.28,.73-.66,.09-1.62,.13-2.88,.13-5.96,0-10.49-1.35-13.59-4.04-3.1-2.69-4.64-7.25-4.64-13.67v-12.73c-1.09,.17-2.27,.26-3.53,.26s-2.31-.49-3.14-1.46c-.83-.97-1.25-2.64-1.25-4.99s.14-4.05,.43-5.12c.29-1.06,.69-1.82,1.2-2.28,.92-.74,2.06-1.12,3.44-1.12l2.84,.34v-8.86c0-1.32,.04-2.29,.13-2.92,.09-.63,.36-1.32,.82-2.06,.74-1.43,2.95-2.15,6.62-2.15,3.9,0,6.22,1.06,6.96,3.18,.29,.92,.43,2.38,.43,4.39v8.43c2.52-.23,4.43-.34,5.72-.34s2.26,.04,2.92,.13c.66,.09,1.42,.36,2.28,.82,1.49,.75,2.24,2.95,2.24,6.62s-.77,5.82-2.32,6.62c-.86,.4-1.62,.64-2.28,.73-.66,.09-1.65,.13-2.97,.13Z"/>
        <path class="c"
              d="M746.28,534.69c3.38,1.49,5.07,3.3,5.07,5.42,0,1.03-.23,2.01-.69,2.92-.46,.92-.69,1.41-.69,1.46l-22.53,50.39c-.46,1.09-.85,1.92-1.16,2.49-.32,.57-.82,1.12-1.5,1.63-.69,.52-1.55,.77-2.58,.77s-2.55-.43-4.56-1.29c-3.38-1.49-5.07-3.27-5.07-5.33,0-1.38,2.75-7.94,8.26-19.69l-17.11-28.81c-1.15-1.89-1.72-3.3-1.72-4.21,0-1.83,1.55-3.67,4.64-5.5,1.95-1.15,3.47-1.72,4.56-1.72s1.98,.23,2.67,.69c.69,.46,1.19,.93,1.5,1.42,.31,.49,1.89,3.15,4.73,8,2.84,4.84,5.55,9.36,8.13,13.54,.29-.92,1.83-4.46,4.64-10.62,2.81-6.16,4.31-9.44,4.51-9.85,.2-.4,.53-.89,.99-1.46,.74-.97,1.79-1.46,3.14-1.46s2.94,.4,4.77,1.2Z"/>
    </g>
    <path class="c"
          d="M549.97,482.77s-4.61-25.02-6.76-36.71c-2.15-11.7-10.91-16.86-10.91-16.86,0,0-14.82-10.19-25.83-17.76-11.02-7.57-22.17-3.46-22.17-3.46l-45.6,13.9c-.96,.29-1.99,.29-2.95,0l-45.59-13.9s-11.16-4.11-22.17,3.46c-11.01,7.57-25.84,17.76-25.84,17.76,0,0-8.75,5.16-10.91,16.86-2.15,11.69-6.75,36.71-6.75,36.71,0,0-2.91,13.82,7.47,23.57,10.65,10.7,100.42,100.88,100.42,100.88h0c2.65,2.74,7.05,2.74,9.7,0h0s89.78-90.18,100.43-100.88c10.38-9.75,7.47-23.57,7.47-23.57Zm-18.82,13.73l-93.93,94.48-93.93-94.48s-4.71-3.7-3.41-10.78c1.3-7.09,6.63-36.08,6.63-36.08,0,0,.43-4.57,5-7.71,4.57-3.14,25.38-17.45,25.38-17.45,0,0,4.12-3.41,10.15-1.58,6.02,1.82,48.49,14.69,48.49,14.69h0c1.11,.29,2.27,.3,3.38,0h0s42.47-12.87,48.49-14.69c6.02-1.83,10.14,1.58,10.14,1.58,0,0,20.82,14.31,25.39,17.45,4.57,3.14,4.99,7.71,4.99,7.71,0,0,5.33,28.99,6.64,36.08,1.3,7.08-3.42,10.78-3.42,10.78Z"/>
</svg>
