<svg width="214" height="106" viewBox="0 0 214 106" fill="none" xmlns="http://www.w3.org/2000/svg">
<g clip-path="url(#clip0_108_7254)">
<path d="M18.6233 10.0999C21.4123 10.0999 23.6733 7.83895 23.6733 5.04994C23.6733 2.26094 21.4123 0 18.6233 0C15.8343 0 13.5734 2.26094 13.5734 5.04994C13.5734 7.83895 15.8343 10.0999 18.6233 10.0999Z" fill="#3F83F8"/>
<path d="M32.1968 10.0999C34.9858 10.0999 37.2467 7.83895 37.2467 5.04994C37.2467 2.26094 34.9858 0 32.1968 0C29.4078 0 27.1469 2.26094 27.1469 5.04994C27.1469 7.83895 29.4078 10.0999 32.1968 10.0999Z" fill="#3F83F8"/>
<path d="M45.7702 10.0999C48.5592 10.0999 50.8201 7.83895 50.8201 5.04994C50.8201 2.26094 48.5592 0 45.7702 0C42.9811 0 40.7202 2.26094 40.7202 5.04994C40.7202 7.83895 42.9811 10.0999 45.7702 10.0999Z" fill="#3F83F8"/>
<path d="M32.1968 23.6731C34.9858 23.6731 37.2467 21.4122 37.2467 18.6232C37.2467 15.8342 34.9858 13.5732 32.1968 13.5732C29.4078 13.5732 27.1469 15.8342 27.1469 18.6232C27.1469 21.4122 29.4078 23.6731 32.1968 23.6731Z" fill="#3F83F8"/>
<path d="M59.4931 10.0999C62.2821 10.0999 64.543 7.83895 64.543 5.04994C64.543 2.26094 62.2821 0 59.4931 0C56.7041 0 54.4431 2.26094 54.4431 5.04994C54.4431 7.83895 56.7041 10.0999 59.4931 10.0999Z" fill="#3F83F8"/>
<path d="M59.4931 23.6731C62.2821 23.6731 64.543 21.4122 64.543 18.6232C64.543 15.8342 62.2821 13.5732 59.4931 13.5732C56.7041 13.5732 54.4431 15.8342 54.4431 18.6232C54.4431 21.4122 56.7041 23.6731 59.4931 23.6731Z" fill="#3F83F8"/>
<path d="M73.0664 23.6731C75.8554 23.6731 78.1164 21.4122 78.1164 18.6232C78.1164 15.8342 75.8554 13.5732 73.0664 13.5732C70.2774 13.5732 68.0165 15.8342 68.0165 18.6232C68.0165 21.4122 70.2774 23.6731 73.0664 23.6731Z" fill="#3F83F8"/>
<path d="M100.213 10.0999C103.002 10.0999 105.263 7.83895 105.263 5.04994C105.263 2.26094 103.002 0 100.213 0C97.4243 0 95.1633 2.26094 95.1633 5.04994C95.1633 7.83895 97.4243 10.0999 100.213 10.0999Z" fill="#3F83F8"/>
<path d="M86.6399 23.6731C89.4289 23.6731 91.6898 21.4122 91.6898 18.6232C91.6898 15.8342 89.4289 13.5732 86.6399 13.5732C83.8509 13.5732 81.59 15.8342 81.59 18.6232C81.59 21.4122 83.8509 23.6731 86.6399 23.6731Z" fill="#3F83F8"/>
<path d="M5.04994 37.2464C7.83895 37.2464 10.0999 34.9854 10.0999 32.1964C10.0999 29.4074 7.83895 27.1465 5.04994 27.1465C2.26094 27.1465 0 29.4074 0 32.1964C0 34.9854 2.26094 37.2464 5.04994 37.2464Z" fill="#3F83F8"/>
<path d="M18.6233 37.2464C21.4123 37.2464 23.6733 34.9854 23.6733 32.1964C23.6733 29.4074 21.4123 27.1465 18.6233 27.1465C15.8343 27.1465 13.5734 29.4074 13.5734 32.1964C13.5734 34.9854 15.8343 37.2464 18.6233 37.2464Z" fill="#3F83F8"/>
<path d="M5.04994 50.8206C7.83895 50.8206 10.0999 48.5597 10.0999 45.7706C10.0999 42.9816 7.83895 40.7207 5.04994 40.7207C2.26094 40.7207 0 42.9816 0 45.7706C0 48.5597 2.26094 50.8206 5.04994 50.8206Z" fill="#3F83F8"/>
<path d="M18.6233 50.8206C21.4123 50.8206 23.6733 48.5597 23.6733 45.7706C23.6733 42.9816 21.4123 40.7207 18.6233 40.7207C15.8343 40.7207 13.5734 42.9816 13.5734 45.7706C13.5734 48.5597 15.8343 50.8206 18.6233 50.8206Z" fill="#3F83F8"/>
<path d="M45.7702 37.2464C48.5592 37.2464 50.8201 34.9854 50.8201 32.1964C50.8201 29.4074 48.5592 27.1465 45.7702 27.1465C42.9811 27.1465 40.7202 29.4074 40.7202 32.1964C40.7202 34.9854 42.9811 37.2464 45.7702 37.2464Z" fill="#3F83F8"/>
<path d="M32.1967 50.8206C34.9857 50.8206 37.2466 48.5597 37.2466 45.7707C37.2466 42.9816 34.9857 40.7207 32.1967 40.7207C29.4077 40.7207 27.1467 42.9816 27.1467 45.7707C27.1467 48.5597 29.4077 50.8206 32.1967 50.8206Z" fill="#3F83F8"/>
<path d="M73.0664 37.2464C75.8554 37.2464 78.1164 34.9854 78.1164 32.1964C78.1164 29.4074 75.8554 27.1465 73.0664 27.1465C70.2774 27.1465 68.0165 29.4074 68.0165 32.1964C68.0165 34.9854 70.2774 37.2464 73.0664 37.2464Z" fill="#3F83F8"/>
<path d="M59.4931 50.8206C62.2821 50.8206 64.543 48.5597 64.543 45.7706C64.543 42.9816 62.2821 40.7207 59.4931 40.7207C56.7041 40.7207 54.4431 42.9816 54.4431 45.7706C54.4431 48.5597 56.7041 50.8206 59.4931 50.8206Z" fill="#3F83F8"/>
<path d="M73.0664 50.8206C75.8554 50.8206 78.1164 48.5597 78.1164 45.7706C78.1164 42.9816 75.8554 40.7207 73.0664 40.7207C70.2774 40.7207 68.0165 42.9816 68.0165 45.7706C68.0165 48.5597 70.2774 50.8206 73.0664 50.8206Z" fill="#3F83F8"/>
<path d="M86.6399 37.2464C89.4289 37.2464 91.6898 34.9854 91.6898 32.1964C91.6898 29.4074 89.4289 27.1465 86.6399 27.1465C83.8509 27.1465 81.59 29.4074 81.59 32.1964C81.59 34.9854 83.8509 37.2464 86.6399 37.2464Z" fill="#3F83F8"/>
<path d="M100.213 37.2464C103.002 37.2464 105.263 34.9854 105.263 32.1964C105.263 29.4074 103.002 27.1465 100.213 27.1465C97.4243 27.1465 95.1633 29.4074 95.1633 32.1964C95.1633 34.9854 97.4243 37.2464 100.213 37.2464Z" fill="#3F83F8"/>
<path d="M86.6399 50.8206C89.4289 50.8206 91.6898 48.5597 91.6898 45.7706C91.6898 42.9816 89.4289 40.7207 86.6399 40.7207C83.8509 40.7207 81.59 42.9816 81.59 45.7706C81.59 48.5597 83.8509 50.8206 86.6399 50.8206Z" fill="#3F83F8"/>
<path d="M127.36 10.0999C130.149 10.0999 132.41 7.83895 132.41 5.04994C132.41 2.26094 130.149 0 127.36 0C124.571 0 122.31 2.26094 122.31 5.04994C122.31 7.83895 124.571 10.0999 127.36 10.0999Z" fill="#3F83F8"/>
<path d="M113.787 23.6731C116.576 23.6731 118.837 21.4122 118.837 18.6232C118.837 15.8342 116.576 13.5732 113.787 13.5732C110.998 13.5732 108.737 15.8342 108.737 18.6232C108.737 21.4122 110.998 23.6731 113.787 23.6731Z" fill="#3F83F8"/>
<path d="M127.36 23.6731C130.149 23.6731 132.41 21.4122 132.41 18.6232C132.41 15.8342 130.149 13.5732 127.36 13.5732C124.571 13.5732 122.31 15.8342 122.31 18.6232C122.31 21.4122 124.571 23.6731 127.36 23.6731Z" fill="#3F83F8"/>
<path d="M140.933 10.0999C143.722 10.0999 145.983 7.83895 145.983 5.04994C145.983 2.26094 143.722 0 140.933 0C138.144 0 135.884 2.26094 135.884 5.04994C135.884 7.83895 138.144 10.0999 140.933 10.0999Z" fill="#3F83F8"/>
<path d="M154.507 10.0999C157.296 10.0999 159.557 7.83895 159.557 5.04994C159.557 2.26094 157.296 0 154.507 0C151.718 0 149.457 2.26094 149.457 5.04994C149.457 7.83895 151.718 10.0999 154.507 10.0999Z" fill="#3F83F8"/>
<path d="M168.23 10.0999C171.019 10.0999 173.28 7.83895 173.28 5.04994C173.28 2.26094 171.019 0 168.23 0C165.441 0 163.18 2.26094 163.18 5.04994C163.18 7.83895 165.441 10.0999 168.23 10.0999Z" fill="#3F83F8"/>
<path d="M181.803 10.0999C184.592 10.0999 186.853 7.83895 186.853 5.04994C186.853 2.26094 184.592 0 181.803 0C179.014 0 176.753 2.26094 176.753 5.04994C176.753 7.83895 179.014 10.0999 181.803 10.0999Z" fill="#3F83F8"/>
<path d="M168.23 23.6731C171.019 23.6731 173.28 21.4122 173.28 18.6232C173.28 15.8342 171.019 13.5732 168.23 13.5732C165.441 13.5732 163.18 15.8342 163.18 18.6232C163.18 21.4122 165.441 23.6731 168.23 23.6731Z" fill="#3F83F8"/>
<path d="M181.803 23.6731C184.592 23.6731 186.853 21.4122 186.853 18.6232C186.853 15.8342 184.592 13.5732 181.803 13.5732C179.014 13.5732 176.753 15.8342 176.753 18.6232C176.753 21.4122 179.014 23.6731 181.803 23.6731Z" fill="#3F83F8"/>
<path d="M195.377 10.0999C198.166 10.0999 200.427 7.83895 200.427 5.04994C200.427 2.26094 198.166 0 195.377 0C192.588 0 190.327 2.26094 190.327 5.04994C190.327 7.83895 192.588 10.0999 195.377 10.0999Z" fill="#3F83F8"/>
<path d="M208.95 10.0999C211.739 10.0999 214 7.83895 214 5.04994C214 2.26094 211.739 0 208.95 0C206.161 0 203.9 2.26094 203.9 5.04994C203.9 7.83895 206.161 10.0999 208.95 10.0999Z" fill="#3F83F8"/>
<path d="M195.377 23.6731C198.166 23.6731 200.427 21.4122 200.427 18.6232C200.427 15.8342 198.166 13.5732 195.377 13.5732C192.588 13.5732 190.327 15.8342 190.327 18.6232C190.327 21.4122 192.588 23.6731 195.377 23.6731Z" fill="#3F83F8"/>
<path d="M113.787 37.2464C116.576 37.2464 118.837 34.9854 118.837 32.1964C118.837 29.4074 116.576 27.1465 113.787 27.1465C110.998 27.1465 108.737 29.4074 108.737 32.1964C108.737 34.9854 110.998 37.2464 113.787 37.2464Z" fill="#3F83F8"/>
<path d="M127.36 37.2464C130.149 37.2464 132.41 34.9854 132.41 32.1964C132.41 29.4074 130.149 27.1465 127.36 27.1465C124.571 27.1465 122.31 29.4074 122.31 32.1964C122.31 34.9854 124.571 37.2464 127.36 37.2464Z" fill="#3F83F8"/>
<path d="M113.787 50.8206C116.576 50.8206 118.837 48.5597 118.837 45.7706C118.837 42.9816 116.576 40.7207 113.787 40.7207C110.998 40.7207 108.737 42.9816 108.737 45.7706C108.737 48.5597 110.998 50.8206 113.787 50.8206Z" fill="#3F83F8"/>
<path d="M140.933 37.2464C143.722 37.2464 145.983 34.9854 145.983 32.1964C145.983 29.4074 143.722 27.1465 140.933 27.1465C138.144 27.1465 135.884 29.4074 135.884 32.1964C135.884 34.9854 138.144 37.2464 140.933 37.2464Z" fill="#3F83F8"/>
<path d="M154.507 27.1465C151.718 27.1465 149.457 29.4074 149.457 32.1964C149.457 34.9854 151.718 37.2464 154.507 37.2464C157.296 37.2464 159.557 34.9854 159.557 32.1964C159.557 29.4074 157.296 27.1465 154.507 27.1465Z" fill="#3F83F8"/>
<path d="M140.933 50.8206C143.722 50.8206 145.983 48.5597 145.983 45.7706C145.983 42.9816 143.722 40.7207 140.933 40.7207C138.144 40.7207 135.884 42.9816 135.884 45.7706C135.884 48.5597 138.144 50.8206 140.933 50.8206Z" fill="#3F83F8"/>
<path d="M154.507 40.7207C151.718 40.7207 149.457 42.9816 149.457 45.7707C149.457 48.5597 151.718 50.8206 154.507 50.8206C157.296 50.8206 159.557 48.5597 159.557 45.7707C159.557 42.9817 157.296 40.7207 154.507 40.7207Z" fill="#3F83F8"/>
<path d="M168.23 37.2464C171.019 37.2464 173.28 34.9854 173.28 32.1964C173.28 29.4074 171.019 27.1465 168.23 27.1465C165.441 27.1465 163.18 29.4074 163.18 32.1964C163.18 34.9854 165.441 37.2464 168.23 37.2464Z" fill="#3F83F8"/>
<path d="M181.803 50.8206C184.592 50.8206 186.853 48.5597 186.853 45.7706C186.853 42.9816 184.592 40.7207 181.803 40.7207C179.014 40.7207 176.753 42.9816 176.753 45.7706C176.753 48.5597 179.014 50.8206 181.803 50.8206Z" fill="#3F83F8"/>
<path d="M195.377 37.2464C198.166 37.2464 200.427 34.9854 200.427 32.1964C200.427 29.4074 198.166 27.1465 195.377 27.1465C192.588 27.1465 190.327 29.4074 190.327 32.1964C190.327 34.9854 192.588 37.2464 195.377 37.2464Z" fill="#3F83F8"/>
<path d="M195.377 50.8206C198.166 50.8206 200.427 48.5597 200.427 45.7707C200.427 42.9817 198.166 40.7207 195.377 40.7207C192.588 40.7207 190.327 42.9816 190.327 45.7707C190.327 48.5597 192.588 50.8206 195.377 50.8206Z" fill="#3F83F8"/>
<path d="M208.95 40.7207C206.161 40.7207 203.9 42.9816 203.9 45.7707C203.9 48.5597 206.161 50.8206 208.95 50.8206C211.739 50.8206 214 48.5597 214 45.7707C214 42.9817 211.739 40.7207 208.95 40.7207Z" fill="#3F83F8"/>
<path d="M5.04994 64.3938C7.83895 64.3938 10.0999 62.1329 10.0999 59.3439C10.0999 56.5549 7.83895 54.2939 5.04994 54.2939C2.26094 54.2939 0 56.5549 0 59.3439C0 62.1329 2.26094 64.3938 5.04994 64.3938Z" fill="#3F83F8"/>
<path d="M18.6233 64.3938C21.4123 64.3938 23.6733 62.1329 23.6733 59.3439C23.6733 56.5549 21.4123 54.2939 18.6233 54.2939C15.8343 54.2939 13.5734 56.5549 13.5734 59.3439C13.5734 62.1329 15.8343 64.3938 18.6233 64.3938Z" fill="#3F83F8"/>
<path d="M5.04994 77.9671C7.83895 77.9671 10.0999 75.7061 10.0999 72.9171C10.0999 70.1281 7.83895 67.8672 5.04994 67.8672C2.26094 67.8672 0 70.1281 0 72.9171C0 75.7061 2.26094 77.9671 5.04994 77.9671Z" fill="#3F83F8"/>
<path d="M18.6233 77.9671C21.4123 77.9671 23.6733 75.7061 23.6733 72.9171C23.6733 70.1281 21.4123 67.8672 18.6233 67.8672C15.8343 67.8672 13.5734 70.1281 13.5734 72.9171C13.5734 75.7061 15.8343 77.9671 18.6233 77.9671Z" fill="#3F83F8"/>
<path d="M45.7702 64.3938C48.5592 64.3938 50.8201 62.1329 50.8201 59.3439C50.8201 56.5549 48.5592 54.2939 45.7702 54.2939C42.9811 54.2939 40.7202 56.5549 40.7202 59.3439C40.7202 62.1329 42.9811 64.3938 45.7702 64.3938Z" fill="#3F83F8"/>
<path d="M32.1968 77.9671C34.9858 77.9671 37.2467 75.7061 37.2467 72.9171C37.2467 70.1281 34.9858 67.8672 32.1968 67.8672C29.4078 67.8672 27.1469 70.1281 27.1469 72.9171C27.1469 75.7061 29.4078 77.9671 32.1968 77.9671Z" fill="#3F83F8"/>
<path d="M45.7702 77.9671C48.5592 77.9671 50.8201 75.7061 50.8201 72.9171C50.8201 70.1281 48.5592 67.8672 45.7702 67.8672C42.9811 67.8672 40.7202 70.1281 40.7202 72.9171C40.7202 75.7061 42.9811 77.9671 45.7702 77.9671Z" fill="#3F83F8"/>
<path d="M73.0664 64.3938C75.8554 64.3938 78.1164 62.1329 78.1164 59.3439C78.1164 56.5549 75.8554 54.2939 73.0664 54.2939C70.2774 54.2939 68.0165 56.5549 68.0165 59.3439C68.0165 62.1329 70.2774 64.3938 73.0664 64.3938Z" fill="#3F83F8"/>
<path d="M73.0664 77.9671C75.8554 77.9671 78.1164 75.7061 78.1164 72.9171C78.1164 70.1281 75.8554 67.8672 73.0664 67.8672C70.2774 67.8672 68.0165 70.1281 68.0165 72.9171C68.0165 75.7061 70.2774 77.9671 73.0664 77.9671Z" fill="#3F83F8"/>
<path d="M86.6399 64.3938C89.4289 64.3938 91.6898 62.1329 91.6898 59.3439C91.6898 56.5549 89.4289 54.2939 86.6399 54.2939C83.8509 54.2939 81.59 56.5549 81.59 59.3439C81.59 62.1329 83.8509 64.3938 86.6399 64.3938Z" fill="#3F83F8"/>
<path d="M86.6399 77.9671C89.4289 77.9671 91.6898 75.7061 91.6898 72.9171C91.6898 70.1281 89.4289 67.8672 86.6399 67.8672C83.8509 67.8672 81.59 70.1281 81.59 72.9171C81.59 75.7061 83.8509 77.9671 86.6399 77.9671Z" fill="#3F83F8"/>
<path d="M100.213 77.9671C103.002 77.9671 105.263 75.7061 105.263 72.9171C105.263 70.1281 103.002 67.8672 100.213 67.8672C97.4243 67.8672 95.1633 70.1281 95.1633 72.9171C95.1633 75.7061 97.4243 77.9671 100.213 77.9671Z" fill="#3F83F8"/>
<path d="M5.04994 91.5403C7.83895 91.5403 10.0999 89.2794 10.0999 86.4904C10.0999 83.7014 7.83895 81.4404 5.04994 81.4404C2.26094 81.4404 0 83.7014 0 86.4904C0 89.2794 2.26094 91.5403 5.04994 91.5403Z" fill="#3F83F8"/>
<path d="M18.6233 91.5403C21.4123 91.5403 23.6733 89.2794 23.6733 86.4904C23.6733 83.7014 21.4123 81.4404 18.6233 81.4404C15.8343 81.4404 13.5734 83.7014 13.5734 86.4904C13.5734 89.2794 15.8343 91.5403 18.6233 91.5403Z" fill="#3F83F8"/>
<path d="M5.04994 105.114C7.83895 105.114 10.0999 102.853 10.0999 100.064C10.0999 97.2746 7.83895 95.0137 5.04994 95.0137C2.26094 95.0137 0 97.2746 0 100.064C0 102.853 2.26094 105.114 5.04994 105.114Z" fill="#3F83F8"/>
<path d="M18.6233 105.114C21.4123 105.114 23.6733 102.853 23.6733 100.064C23.6733 97.2746 21.4123 95.0137 18.6233 95.0137C15.8343 95.0137 13.5734 97.2746 13.5734 100.064C13.5734 102.853 15.8343 105.114 18.6233 105.114Z" fill="#3F83F8"/>
<path d="M32.1968 105.114C34.9858 105.114 37.2467 102.853 37.2467 100.064C37.2467 97.2746 34.9858 95.0137 32.1968 95.0137C29.4078 95.0137 27.1469 97.2746 27.1469 100.064C27.1469 102.853 29.4078 105.114 32.1968 105.114Z" fill="#3F83F8"/>
<path d="M45.7702 105.114C48.5592 105.114 50.8201 102.853 50.8201 100.064C50.8201 97.2746 48.5592 95.0137 45.7702 95.0137C42.9811 95.0137 40.7202 97.2746 40.7202 100.064C40.7202 102.853 42.9811 105.114 45.7702 105.114Z" fill="#3F83F8"/>
<path d="M59.4931 91.5403C62.2821 91.5403 64.543 89.2794 64.543 86.4904C64.543 83.7014 62.2821 81.4404 59.4931 81.4404C56.7041 81.4404 54.4431 83.7014 54.4431 86.4904C54.4431 89.2794 56.7041 91.5403 59.4931 91.5403Z" fill="#3F83F8"/>
<path d="M73.0664 91.5403C75.8554 91.5403 78.1164 89.2794 78.1164 86.4904C78.1164 83.7014 75.8554 81.4404 73.0664 81.4404C70.2774 81.4404 68.0165 83.7014 68.0165 86.4904C68.0165 89.2794 70.2774 91.5403 73.0664 91.5403Z" fill="#3F83F8"/>
<path d="M59.4931 105.114C62.2821 105.114 64.543 102.853 64.543 100.064C64.543 97.2746 62.2821 95.0137 59.4931 95.0137C56.7041 95.0137 54.4431 97.2746 54.4431 100.064C54.4431 102.853 56.7041 105.114 59.4931 105.114Z" fill="#3F83F8"/>
<path d="M73.0664 105.114C75.8554 105.114 78.1164 102.853 78.1164 100.064C78.1164 97.2746 75.8554 95.0137 73.0664 95.0137C70.2774 95.0137 68.0165 97.2746 68.0165 100.064C68.0165 102.853 70.2774 105.114 73.0664 105.114Z" fill="#3F83F8"/>
<path d="M100.213 91.5403C103.002 91.5403 105.263 89.2794 105.263 86.4904C105.263 83.7014 103.002 81.4404 100.213 81.4404C97.4243 81.4404 95.1633 83.7014 95.1633 86.4904C95.1633 89.2794 97.4243 91.5403 100.213 91.5403Z" fill="#3F83F8"/>
<path d="M86.6399 105.114C89.4289 105.114 91.6898 102.853 91.6898 100.064C91.6898 97.2746 89.4289 95.0137 86.6399 95.0137C83.8509 95.0137 81.59 97.2746 81.59 100.064C81.59 102.853 83.8509 105.114 86.6399 105.114Z" fill="#3F83F8"/>
<path d="M113.787 64.3938C116.576 64.3938 118.837 62.1329 118.837 59.3439C118.837 56.5549 116.576 54.2939 113.787 54.2939C110.998 54.2939 108.737 56.5549 108.737 59.3439C108.737 62.1329 110.998 64.3938 113.787 64.3938Z" fill="#3F83F8"/>
<path d="M127.36 64.3938C130.149 64.3938 132.41 62.1329 132.41 59.3439C132.41 56.5549 130.149 54.2939 127.36 54.2939C124.571 54.2939 122.31 56.5549 122.31 59.3439C122.31 62.1329 124.571 64.3938 127.36 64.3938Z" fill="#3F83F8"/>
<path d="M113.787 77.9671C116.576 77.9671 118.837 75.7061 118.837 72.9171C118.837 70.1281 116.576 67.8672 113.787 67.8672C110.998 67.8672 108.737 70.1281 108.737 72.9171C108.737 75.7061 110.998 77.9671 113.787 77.9671Z" fill="#3F83F8"/>
<path d="M154.507 54.2939C151.718 54.2939 149.457 56.5549 149.457 59.3439C149.457 62.1329 151.718 64.3938 154.507 64.3938C157.296 64.3938 159.557 62.1329 159.557 59.3439C159.557 56.5549 157.296 54.2939 154.507 54.2939Z" fill="#3F83F8"/>
<path d="M154.507 67.8672C151.718 67.8672 149.457 70.1281 149.457 72.9171C149.457 75.7061 151.718 77.9671 154.507 77.9671C157.296 77.9671 159.557 75.7061 159.557 72.9171C159.557 70.1281 157.296 67.8672 154.507 67.8672Z" fill="#3F83F8"/>
<path d="M181.803 64.3938C184.592 64.3938 186.853 62.1329 186.853 59.3439C186.853 56.5549 184.592 54.2939 181.803 54.2939C179.014 54.2939 176.753 56.5549 176.753 59.3439C176.753 62.1329 179.014 64.3938 181.803 64.3938Z" fill="#3F83F8"/>
<path d="M168.23 77.9671C171.019 77.9671 173.28 75.7061 173.28 72.9171C173.28 70.1281 171.019 67.8672 168.23 67.8672C165.441 67.8672 163.18 70.1281 163.18 72.9171C163.18 75.7061 165.441 77.9671 168.23 77.9671Z" fill="#3F83F8"/>
<path d="M195.377 64.3938C198.166 64.3938 200.427 62.1329 200.427 59.3439C200.427 56.5549 198.166 54.2939 195.377 54.2939C192.588 54.2939 190.327 56.5549 190.327 59.3439C190.327 62.1329 192.588 64.3938 195.377 64.3938Z" fill="#3F83F8"/>
<path d="M208.95 54.2939C206.161 54.2939 203.9 56.5549 203.9 59.3439C203.9 62.1329 206.161 64.3938 208.95 64.3938C211.739 64.3938 214 62.1329 214 59.3439C214 56.5549 211.739 54.2939 208.95 54.2939Z" fill="#3F83F8"/>
<path d="M195.377 77.9671C198.166 77.9671 200.427 75.7061 200.427 72.9171C200.427 70.1281 198.166 67.8672 195.377 67.8672C192.588 67.8672 190.327 70.1281 190.327 72.9171C190.327 75.7061 192.588 77.9671 195.377 77.9671Z" fill="#3F83F8"/>
<path d="M208.95 67.8672C206.161 67.8672 203.9 70.1281 203.9 72.9171C203.9 75.7061 206.161 77.9671 208.95 77.9671C211.739 77.9671 214 75.7061 214 72.9171C214 70.1281 211.739 67.8672 208.95 67.8672Z" fill="#3F83F8"/>
<path d="M113.787 91.5403C116.576 91.5403 118.837 89.2794 118.837 86.4904C118.837 83.7014 116.576 81.4404 113.787 81.4404C110.998 81.4404 108.737 83.7014 108.737 86.4904C108.737 89.2794 110.998 91.5403 113.787 91.5403Z" fill="#3F83F8"/>
<path d="M127.36 91.5403C130.149 91.5403 132.41 89.2794 132.41 86.4904C132.41 83.7014 130.149 81.4404 127.36 81.4404C124.571 81.4404 122.31 83.7014 122.31 86.4904C122.31 89.2794 124.571 91.5403 127.36 91.5403Z" fill="#3F83F8"/>
<path d="M113.787 105.114C116.576 105.114 118.837 102.853 118.837 100.064C118.837 97.2746 116.576 95.0137 113.787 95.0137C110.998 95.0137 108.737 97.2746 108.737 100.064C108.737 102.853 110.998 105.114 113.787 105.114Z" fill="#3F83F8"/>
<path d="M127.36 105.114C130.149 105.114 132.41 102.853 132.41 100.064C132.41 97.2746 130.149 95.0137 127.36 95.0137C124.571 95.0137 122.31 97.2746 122.31 100.064C122.31 102.853 124.571 105.114 127.36 105.114Z" fill="#3F83F8"/>
<path d="M140.933 91.5403C143.722 91.5403 145.983 89.2794 145.983 86.4904C145.983 83.7014 143.722 81.4404 140.933 81.4404C138.144 81.4404 135.884 83.7014 135.884 86.4904C135.884 89.2794 138.144 91.5403 140.933 91.5403Z" fill="#3F83F8"/>
<path d="M154.507 81.4404C151.718 81.4404 149.457 83.7014 149.457 86.4904C149.457 89.2794 151.718 91.5404 154.507 91.5404C157.296 91.5404 159.557 89.2794 159.557 86.4904C159.557 83.7014 157.296 81.4404 154.507 81.4404Z" fill="#3F83F8"/>
<path d="M140.933 105.114C143.722 105.114 145.983 102.853 145.983 100.064C145.983 97.2746 143.722 95.0137 140.933 95.0137C138.144 95.0137 135.884 97.2746 135.884 100.064C135.884 102.853 138.144 105.114 140.933 105.114Z" fill="#3F83F8"/>
<path d="M154.507 95.0137C151.718 95.0137 149.457 97.2746 149.457 100.064C149.457 102.853 151.718 105.114 154.507 105.114C157.296 105.114 159.557 102.853 159.557 100.064C159.557 97.2746 157.296 95.0137 154.507 95.0137Z" fill="#3F83F8"/>
<path d="M168.23 91.5403C171.019 91.5403 173.28 89.2794 173.28 86.4904C173.28 83.7014 171.019 81.4404 168.23 81.4404C165.441 81.4404 163.18 83.7014 163.18 86.4904C163.18 89.2794 165.441 91.5403 168.23 91.5403Z" fill="#3F83F8"/>
<path d="M181.803 91.5403C184.592 91.5403 186.853 89.2794 186.853 86.4904C186.853 83.7014 184.592 81.4404 181.803 81.4404C179.014 81.4404 176.753 83.7014 176.753 86.4904C176.753 89.2794 179.014 91.5403 181.803 91.5403Z" fill="#3F83F8"/>
<path d="M168.23 105.114C171.019 105.114 173.28 102.853 173.28 100.064C173.28 97.2746 171.019 95.0137 168.23 95.0137C165.441 95.0137 163.18 97.2746 163.18 100.064C163.18 102.853 165.441 105.114 168.23 105.114Z" fill="#3F83F8"/>
<path d="M181.803 105.114C184.592 105.114 186.853 102.853 186.853 100.064C186.853 97.2746 184.592 95.0137 181.803 95.0137C179.014 95.0137 176.753 97.2746 176.753 100.064C176.753 102.853 179.014 105.114 181.803 105.114Z" fill="#3F83F8"/>
<path d="M195.377 91.5404C198.166 91.5404 200.427 89.2794 200.427 86.4904C200.427 83.7014 198.166 81.4404 195.377 81.4404C192.588 81.4404 190.327 83.7014 190.327 86.4904C190.327 89.2794 192.588 91.5404 195.377 91.5404Z" fill="#3F83F8"/>
<path d="M208.95 95.0137C206.161 95.0137 203.9 97.2746 203.9 100.064C203.9 102.853 206.161 105.114 208.95 105.114C211.739 105.114 214 102.853 214 100.064C214 97.2746 211.739 95.0137 208.95 95.0137Z" fill="#3F83F8"/>
<path d="M27.2055 32.9179C27.2239 33.0441 27.2484 33.1678 27.2757 33.2902C27.8439 35.8392 30.2979 37.563 32.9231 37.1801C35.6745 36.7788 37.5865 34.2137 37.1851 31.4624C36.9041 29.5363 35.5142 27.9366 33.6709 27.3691C33.5447 27.3302 33.4165 27.2959 33.2862 27.267C33.1652 27.246 33.0445 27.2244 32.9223 27.2002C32.7944 27.1816 32.6661 27.1686 32.5376 27.1599C27.2774 25.9522 24.5446 24.1518 23.6568 18.5149C23.6525 18.3076 23.637 18.0987 23.6063 17.8884C23.5886 17.7665 23.565 17.6469 23.5389 17.5284C22.9759 14.9728 20.5182 13.2429 17.8886 13.6264C15.1373 14.0278 13.2253 16.5926 13.6266 19.344C13.9264 21.3992 15.4336 22.9855 17.3237 23.4897C17.5704 23.5555 17.8236 23.6032 18.0816 23.6308C23.4256 24.7742 26.2494 26.6022 27.1551 32.2994C27.1597 32.5041 27.1752 32.7104 27.2055 32.9179Z" fill="#3F83F8"/>
<path d="M45.8785 50.8041C46.0857 50.7998 46.2947 50.7843 46.505 50.7536C46.6269 50.7358 46.7464 50.7123 46.8649 50.6862C49.4206 50.1232 51.1504 47.6655 50.7669 45.036C50.3656 42.2845 47.8007 40.3726 45.0493 40.7739C42.9941 41.0737 41.4078 42.5808 40.9037 44.471C40.8379 44.7178 40.7901 44.9709 40.7626 45.229C39.6192 50.5729 37.7911 53.3968 32.0939 54.3024C31.8893 54.307 31.683 54.3226 31.4754 54.3529C31.3493 54.3713 31.2256 54.3957 31.1032 54.423C28.5542 54.9913 26.8303 57.4452 27.2132 60.0705C27.6146 62.8218 30.1796 64.7338 32.931 64.3324C34.857 64.0515 36.4569 62.6616 37.0243 60.8182C37.0631 60.692 37.0975 60.5638 37.1264 60.4336C37.1473 60.3125 37.1689 60.1918 37.1931 60.0696C37.2118 59.9418 37.2247 59.8134 37.2335 59.6848C38.4412 54.4247 40.2415 51.6919 45.8785 50.8041Z" fill="#3F83F8"/>
<path d="M104.257 48.7702C104.33 48.6715 104.398 48.5703 104.464 48.4681C105.873 46.2629 105.358 43.3018 103.227 41.7136C100.998 40.0519 97.8325 40.5135 96.1707 42.7428C94.9294 44.408 94.8735 46.5955 95.8535 48.2885C95.9815 48.5095 96.1267 48.7223 96.2897 48.9242C99.2599 53.5115 99.964 51.1927 96.5759 55.8616C96.4344 56.0096 96.2995 56.1665 96.1741 56.3347C96.0979 56.4368 96.0278 56.5416 95.9604 56.6475C94.5599 58.8516 95.0762 61.8058 97.2033 63.3914C99.4326 65.0531 102.598 64.5913 104.26 62.362C105.423 60.8014 105.572 58.6874 104.669 56.9827C104.608 56.866 104.541 56.751 104.47 56.6385C104.399 56.5381 104.329 56.4375 104.26 56.334C104.182 56.2304 104.101 56.1304 104.016 56.0333C101.15 51.4599 100.491 53.8626 103.849 49.2489C103.993 49.0994 104.13 48.9407 104.257 48.7702Z" fill="#3F83F8"/>
<path d="M137.929 76.9604C138.028 77.034 138.129 77.1019 138.231 77.1673C140.436 78.5763 143.398 78.0617 144.986 75.9311C146.647 73.7018 146.186 70.5362 143.956 68.8744C142.291 67.6331 140.104 67.5772 138.411 68.5573C138.19 68.6852 137.977 68.8305 137.775 68.9934C133.188 71.9636 135.507 72.6677 130.838 69.2795C130.69 69.1381 130.533 69.0032 130.365 68.8778C130.262 68.8017 130.158 68.7314 130.052 68.6642C127.848 67.2636 124.893 67.78 123.308 69.9071C121.646 72.1363 122.108 75.302 124.337 76.9637C125.898 78.127 128.012 78.2754 129.717 77.3732C129.833 77.3114 129.948 77.245 130.061 77.1734C130.161 77.1026 130.262 77.0326 130.365 76.9632C130.469 76.886 130.569 76.8044 130.666 76.7197C135.239 73.8541 132.837 73.195 137.45 76.5532C137.6 76.6967 137.759 76.8334 137.929 76.9604Z" fill="#3F83F8"/>
<path d="M1.13611 8.2084C4.10634 12.7957 4.81037 10.4769 1.42224 15.1458C1.28078 15.2938 1.14595 15.4506 1.02052 15.6188C0.944368 15.721 0.874237 15.8258 0.806903 15.9317C-0.593626 18.1358 -0.077337 21.09 2.04977 22.6756C4.27898 24.3373 7.44468 23.8755 9.10647 21.6462C10.2697 20.0856 10.4181 17.9716 9.5159 16.2669C9.45407 16.1502 9.38776 16.0353 9.3161 15.9227C9.24529 15.8223 9.17525 15.7217 9.10595 15.6182C9.0287 15.5146 8.94711 15.4147 8.86241 15.3176C5.99683 10.7442 5.33766 13.1468 8.69585 8.53316C8.83934 8.38357 8.97613 8.22482 9.10307 8.05446C9.17667 7.9557 9.2446 7.85454 9.30999 7.75231C10.719 5.54705 10.2043 2.58599 8.07372 0.997836C5.84446 -0.663988 2.67893 -0.202321 1.01712 2.02703C-0.224146 3.69226 -0.280105 5.87963 0.699953 7.57268C0.827918 7.79372 0.973198 8.00645 1.13611 8.2084Z" fill="#3F83F8"/>
<path d="M42.7656 90.5336C42.8644 90.6072 42.9656 90.6752 43.0678 90.7405C45.273 92.1495 48.2341 91.6349 49.8222 89.5043C51.4841 87.275 51.0224 84.1094 48.793 82.4477C47.1278 81.2064 44.9404 81.1504 43.2474 82.1305C43.0263 82.2584 42.8136 82.4037 42.6117 82.5666C38.0243 85.5369 40.3432 86.2409 35.6742 82.8528C35.5263 82.7113 35.3694 82.5764 35.2013 82.4511C35.099 82.3749 34.9943 82.3047 34.8883 82.2374C32.6842 80.8369 29.73 81.3532 28.1445 83.4803C26.4827 85.7095 26.9445 88.8752 29.1738 90.537C30.7344 91.7002 32.8485 91.8486 34.5532 90.9464C34.6699 90.8846 34.7848 90.8183 34.8973 90.7466C34.9977 90.6758 35.0984 90.6058 35.2018 90.5365C35.3055 90.4592 35.4054 90.3776 35.5025 90.2929C40.0759 87.4274 37.6732 86.7682 42.2869 90.1264C42.4365 90.2699 42.5953 90.4066 42.7656 90.5336Z" fill="#3F83F8"/>
<path d="M132.347 45.0378C132.329 44.9159 132.306 44.7963 132.28 44.6779C131.717 42.1222 129.259 40.3923 126.63 40.7759C123.878 41.1771 121.966 43.742 122.368 46.4934C122.667 48.5487 124.174 50.1349 126.065 50.6391C126.311 50.7049 126.565 50.7526 126.823 50.7802C132.167 51.9237 134.99 53.7516 135.896 59.4489C135.901 59.6535 135.916 59.8598 135.946 60.0674C135.965 60.1935 135.989 60.3172 136.017 60.4397C136.585 62.9886 139.039 64.7124 141.664 64.3295C144.416 63.9282 146.327 61.3632 145.926 58.6117C145.645 56.6857 144.255 55.086 142.412 54.5185C142.286 54.4796 142.157 54.4453 142.027 54.4164C141.906 54.3955 141.786 54.3738 141.663 54.3496C141.535 54.331 141.407 54.3181 141.278 54.3094C136.018 53.1016 133.286 51.3012 132.398 45.6643C132.394 45.4571 132.378 45.2481 132.347 45.0378Z" fill="#3F83F8"/>
<path d="M101.692 95.2363C101.565 95.1974 101.437 95.1631 101.307 95.1342C101.186 95.1133 101.065 95.0916 100.943 95.0674C100.815 95.0488 100.687 95.0358 100.558 95.0271C95.2982 93.8194 92.5654 92.019 91.6776 86.3821C91.6732 86.1749 91.6577 85.9659 91.627 85.7556C91.6093 85.6337 91.5857 85.5142 91.5597 85.3957C90.9967 82.84 88.5389 81.1101 85.9094 81.4936C83.158 81.895 81.246 84.4598 81.6473 87.2112C81.9472 89.2664 83.4543 90.8527 85.3445 91.3569C85.5913 91.4227 85.8444 91.4704 86.1024 91.498C91.4464 92.6414 94.2703 94.4694 95.1759 100.167C95.1805 100.371 95.196 100.578 95.2263 100.785C95.2447 100.911 95.2692 101.035 95.2965 101.157C95.8647 103.706 98.3187 105.43 100.944 105.047C103.695 104.646 105.607 102.081 105.206 99.3295C104.925 97.4035 103.535 95.8037 101.692 95.2363Z" fill="#3F83F8"/>
<path d="M168.883 50.7631C170.809 50.4822 172.409 49.0922 172.976 47.2488C173.015 47.1226 173.049 46.9945 173.078 46.8642C173.099 46.7432 173.121 46.6225 173.145 46.5003C173.164 46.3724 173.176 46.2441 173.185 46.1155C174.393 40.8553 176.193 38.1225 181.83 37.2348C182.038 37.2305 182.246 37.2149 182.457 37.1842C182.579 37.1665 182.698 37.143 182.817 37.1169C185.372 36.5539 187.102 34.0961 186.719 31.4666C186.317 28.7152 183.752 26.8033 181.001 27.2046C178.946 27.5044 177.36 29.0115 176.855 30.9017C176.79 31.1484 176.742 31.4016 176.714 31.6596C175.571 37.0036 173.743 39.8274 168.046 40.7331C167.841 40.7377 167.635 40.7532 167.427 40.7835C167.301 40.8019 167.177 40.8263 167.055 40.8536C164.506 41.4219 162.782 43.8759 163.165 46.5012C163.566 49.2525 166.131 51.1644 168.883 50.7631Z" fill="#3F83F8"/>
<path d="M209.672 91.4714C209.793 91.4536 209.913 91.4301 210.031 91.404C212.587 90.841 214.317 88.3833 213.933 85.7538C213.532 83.0023 210.967 81.0904 208.216 81.4917C206.161 81.7915 204.574 83.2986 204.07 85.1888C204.004 85.4356 203.957 85.6887 203.929 85.9467C202.786 91.2907 200.958 94.1145 195.26 95.0203C195.056 95.0248 194.85 95.0403 194.642 95.0706C194.516 95.089 194.392 95.1135 194.27 95.1408C191.721 95.709 189.997 98.163 190.38 100.788C190.781 103.54 193.346 105.452 196.098 105.05C198.024 104.769 199.623 103.379 200.191 101.536C200.23 101.41 200.264 101.282 200.293 101.151C200.314 101.03 200.336 100.91 200.36 100.787C200.378 100.66 200.391 100.531 200.4 100.403C201.608 95.1425 203.408 92.4097 209.045 91.522C209.252 91.5176 209.461 91.502 209.672 91.4714Z" fill="#3F83F8"/>
<path d="M114.515 10.0368C114.637 10.0191 114.756 9.99553 114.875 9.96946C117.43 9.40642 119.16 6.94869 118.777 4.31921C118.376 1.56777 115.811 -0.344202 113.059 0.0571304C111.004 0.356914 109.418 1.86408 108.914 3.75425C108.848 4.00103 108.8 4.25417 108.773 4.51218C107.629 9.85612 105.801 12.68 100.104 13.5857C99.8992 13.5903 99.6929 13.6058 99.4853 13.6361C99.3592 13.6545 99.2355 13.6789 99.113 13.7062C96.5642 14.2745 94.8403 16.7285 95.2233 19.3537C95.6245 22.105 98.1895 24.017 100.941 23.6157C102.867 23.3347 104.467 21.9448 105.034 20.1014C105.073 19.9752 105.107 19.847 105.136 19.7168C105.157 19.5957 105.179 19.4751 105.203 19.3528C105.222 19.225 105.235 19.0967 105.243 18.9681C106.451 13.7079 108.251 10.9752 113.888 10.0874C114.096 10.0831 114.305 10.0675 114.515 10.0368Z" fill="#3F83F8"/>
<path d="M182.459 77.9076C185.21 77.5063 187.122 74.9413 186.721 72.1899C186.44 70.2639 185.05 68.6641 183.207 68.0966C183.081 68.0578 182.952 68.0234 182.822 67.9945C182.701 67.9736 182.58 67.952 182.458 67.9278C182.33 67.9092 182.202 67.8962 182.073 67.8875C176.813 66.6798 174.081 64.8794 173.193 59.2424C173.188 59.0352 173.173 58.8263 173.142 58.616C173.124 58.4941 173.101 58.3745 173.075 58.256C172.512 55.7003 170.054 53.9704 167.425 54.354C164.673 54.7553 162.761 57.3201 163.162 60.0716C163.462 62.1268 164.969 63.713 166.86 64.2172C167.106 64.283 167.36 64.3308 167.618 64.3583C172.962 65.5018 175.785 67.3298 176.691 73.027C176.696 73.2316 176.711 73.4379 176.741 73.6455C176.76 73.7717 176.784 73.8953 176.812 74.0178C177.38 76.5667 179.834 78.2905 182.459 77.9076Z" fill="#3F83F8"/>
<path d="M60.07 37.1801C62.8214 36.7788 64.7333 34.2137 64.332 31.4624C64.0511 29.5363 62.6612 27.9366 60.8177 27.3691C60.6915 27.3302 60.5634 27.2959 60.4331 27.267C60.312 27.246 60.1914 27.2244 60.0692 27.2002C59.9413 27.1816 59.813 27.1686 59.6844 27.1599C54.4243 25.9522 51.6915 24.1518 50.8037 18.5149C50.7994 18.3076 50.7838 18.0987 50.7531 17.8884C50.7354 17.7665 50.7118 17.6469 50.6858 17.5284C50.1228 14.9728 47.665 13.2429 45.0355 13.6264C42.2841 14.0278 40.3721 16.5926 40.7734 19.344C41.0733 21.3992 42.5804 22.9855 44.4706 23.4897C44.7174 23.5555 44.9705 23.6032 45.2285 23.6308C50.5725 24.7742 53.3964 26.6022 54.302 32.2994C54.3066 32.5041 54.3221 32.7104 54.3524 32.918C54.3708 33.0441 54.3953 33.1678 54.4226 33.2903C54.9908 35.8392 57.4448 37.563 60.07 37.1801Z" fill="#3F83F8"/>
<path d="M55.3791 69.9127C55.3029 70.0149 55.2327 70.1197 55.1654 70.2255C53.7648 72.4297 54.2811 75.3839 56.4083 76.9695C58.6375 78.6312 61.8032 78.1694 63.4649 75.9401C64.6283 74.3795 64.7766 72.2655 63.8744 70.5608C63.8126 70.4441 63.7462 70.3292 63.6747 70.2166C63.6038 70.1162 63.5338 70.0156 63.4644 69.9121C63.3873 69.8085 63.3056 69.7086 63.2209 69.6115C60.3554 65.038 59.6962 67.4407 63.0544 62.8271C63.1979 62.6775 63.3346 62.5187 63.4616 62.3484C63.5352 62.2496 63.6032 62.1484 63.6685 62.0462C65.0776 59.8409 64.5629 56.8799 62.4323 55.2917C60.203 53.63 57.0374 54.0916 55.3757 56.3209C54.1344 57.9862 54.0784 60.1735 55.0584 61.8666C55.1864 62.0876 55.3316 62.3004 55.4946 62.5023C58.4649 67.0896 59.1689 64.7708 55.7808 69.4398C55.6393 69.5877 55.5044 69.7445 55.3791 69.9127Z" fill="#3F83F8"/>
<path d="M212.984 21.6208C213.057 21.5221 213.125 21.4209 213.19 21.3187C214.599 19.1134 214.085 16.1524 211.954 14.5642C209.725 12.9024 206.559 13.3641 204.898 15.5934C203.656 17.2587 203.6 19.446 204.58 21.1391C204.708 21.3601 204.854 21.5729 205.017 21.7748C207.987 26.3621 208.691 24.0433 205.303 28.7123C205.161 28.8602 205.026 29.017 204.901 29.1852C204.825 29.2874 204.755 29.3922 204.687 29.4981C203.287 31.7023 203.803 34.6564 205.93 36.242C208.159 37.9037 211.325 37.4419 212.987 35.2126C214.15 33.652 214.299 31.538 213.396 29.8333C213.335 29.7166 213.268 29.6017 213.197 29.4891C213.126 29.3887 213.056 29.2881 212.986 29.1846C212.909 29.081 212.828 28.9811 212.743 28.884C209.877 24.3106 209.218 26.7132 212.576 22.0996C212.72 21.95 212.857 21.7912 212.984 21.6208Z" fill="#3F83F8"/>
<path d="M157.605 14.5805C155.939 13.3392 153.752 13.2833 152.059 14.2633C151.838 14.3913 151.625 14.5365 151.423 14.6995C146.836 17.6697 149.155 18.3738 144.486 14.9856C144.338 14.8442 144.181 14.7093 144.013 14.5839C143.911 14.5077 143.806 14.4376 143.7 14.3703C141.496 12.9697 138.542 13.486 136.956 15.6131C135.294 17.8424 135.756 21.0081 137.985 22.6698C139.546 23.8331 141.66 23.9815 143.365 23.0792C143.482 23.0175 143.596 22.9511 143.709 22.8794C143.809 22.8086 143.91 22.7387 144.013 22.6693C144.117 22.5921 144.217 22.5104 144.314 22.4257C148.888 19.5603 146.485 18.901 151.099 22.2592C151.248 22.4027 151.407 22.5395 151.577 22.6665C151.676 22.7401 151.777 22.808 151.879 22.8733C154.085 24.2823 157.046 23.7677 158.634 21.6372C160.296 19.4078 159.834 16.2422 157.605 14.5805Z" fill="#3F83F8"/>
<path d="M83.7848 9.09324C83.8835 9.16684 83.9847 9.23476 84.0869 9.30012C86.2922 10.7091 89.2533 10.1944 90.8414 8.06391C92.5032 5.83461 92.0415 2.66904 89.8122 1.00723C88.147 -0.234034 85.9596 -0.289992 84.2665 0.690065C84.0455 0.81803 83.8327 0.963293 83.6308 1.12625C79.0435 4.09644 81.3623 4.80052 76.6933 1.41239C76.5454 1.27093 76.3886 1.13605 76.2204 1.01067C76.1182 0.93448 76.0134 0.86435 75.9076 0.797015C73.7034 -0.603513 70.7492 -0.0872249 69.1636 2.03988C67.5019 4.26914 67.9637 7.4348 70.193 9.09659C71.7536 10.2598 73.8676 10.4082 75.5723 9.50601C75.689 9.44424 75.8039 9.37787 75.9165 9.30622C76.0169 9.23541 76.1175 9.1654 76.221 9.09607C76.3246 9.01885 76.4245 8.93722 76.5216 8.85252C81.0951 5.98698 78.6924 5.3278 83.306 8.68596C83.4556 8.82949 83.6144 8.96624 83.7848 9.09324Z" fill="#3F83F8"/>
</g>
<defs>
<clipPath id="clip0_108_7254">
<rect width="214" height="105.114" fill="white"/>
</clipPath>
</defs>
</svg>
