<svg width="728" height="358" viewBox="0 0 728 358" fill="none" xmlns="http://www.w3.org/2000/svg">
<g clip-path="url(#clip0_108_6545)">
<path d="M63.3542 34.3586C72.842 34.3586 80.5334 26.6671 80.5334 17.1793C80.5334 7.69147 72.842 6.10352e-05 63.3542 6.10352e-05C53.8663 6.10352e-05 46.1749 7.69147 46.1749 17.1793C46.1749 26.6671 53.8663 34.3586 63.3542 34.3586Z" fill="#F5F5F5"/>
<path d="M109.529 34.3586C119.017 34.3586 126.708 26.6671 126.708 17.1793C126.708 7.69147 119.017 6.10352e-05 109.529 6.10352e-05C100.041 6.10352e-05 92.3499 7.69147 92.3499 17.1793C92.3499 26.6671 100.041 34.3586 109.529 34.3586Z" fill="#F5F5F5"/>
<path d="M155.704 34.3586C165.192 34.3586 172.883 26.6671 172.883 17.1793C172.883 7.69147 165.192 6.10352e-05 155.704 6.10352e-05C146.216 6.10352e-05 138.525 7.69147 138.525 17.1793C138.525 26.6671 146.216 34.3586 155.704 34.3586Z" fill="#F5F5F5"/>
<path d="M109.529 80.5335C119.017 80.5335 126.708 72.8421 126.708 63.3542C126.708 53.8664 119.017 46.175 109.529 46.175C100.041 46.175 92.3499 53.8664 92.3499 63.3542C92.3499 72.8421 100.041 80.5335 109.529 80.5335Z" fill="#F5F5F5"/>
<path d="M202.388 34.3586C211.875 34.3586 219.567 26.6671 219.567 17.1793C219.567 7.69147 211.875 6.10352e-05 202.388 6.10352e-05C192.9 6.10352e-05 185.208 7.69147 185.208 17.1793C185.208 26.6671 192.9 34.3586 202.388 34.3586Z" fill="#F5F5F5"/>
<path d="M202.388 80.5335C211.875 80.5335 219.567 72.8421 219.567 63.3542C219.567 53.8664 211.875 46.175 202.388 46.175C192.9 46.175 185.208 53.8664 185.208 63.3542C185.208 72.8421 192.9 80.5335 202.388 80.5335Z" fill="#F5F5F5"/>
<path d="M248.563 80.5335C258.05 80.5335 265.742 72.8421 265.742 63.3542C265.742 53.8664 258.05 46.175 248.563 46.175C239.075 46.175 231.383 53.8664 231.383 63.3542C231.383 72.8421 239.075 80.5335 248.563 80.5335Z" fill="#F5F5F5"/>
<path d="M340.912 34.3586C350.4 34.3586 358.092 26.6671 358.092 17.1793C358.092 7.69147 350.4 6.10352e-05 340.912 6.10352e-05C331.425 6.10352e-05 323.733 7.69147 323.733 17.1793C323.733 26.6671 331.425 34.3586 340.912 34.3586Z" fill="#F5F5F5"/>
<path d="M294.737 80.5335C304.225 80.5335 311.917 72.8421 311.917 63.3542C311.917 53.8664 304.225 46.175 294.737 46.175C285.25 46.175 277.558 53.8664 277.558 63.3542C277.558 72.8421 285.25 80.5335 294.737 80.5335Z" fill="#F5F5F5"/>
<path d="M17.1792 126.708C26.6671 126.708 34.3585 119.017 34.3585 109.529C34.3585 100.041 26.6671 92.3499 17.1792 92.3499C7.69141 92.3499 0 100.041 0 109.529C0 119.017 7.69141 126.708 17.1792 126.708Z" fill="#F5F5F5"/>
<path d="M63.3542 126.708C72.842 126.708 80.5334 119.017 80.5334 109.529C80.5334 100.041 72.842 92.3499 63.3542 92.3499C53.8663 92.3499 46.1749 100.041 46.1749 109.529C46.1749 119.017 53.8663 126.708 63.3542 126.708Z" fill="#F5F5F5"/>
<path d="M17.1792 172.883C26.6671 172.883 34.3585 165.192 34.3585 155.704C34.3585 146.216 26.6671 138.525 17.1792 138.525C7.69141 138.525 0 146.216 0 155.704C0 165.192 7.69141 172.883 17.1792 172.883Z" fill="#F5F5F5"/>
<path d="M63.3542 172.883C72.842 172.883 80.5334 165.192 80.5334 155.704C80.5334 146.216 72.842 138.525 63.3542 138.525C53.8663 138.525 46.1749 146.216 46.1749 155.704C46.1749 165.192 53.8663 172.883 63.3542 172.883Z" fill="#F5F5F5"/>
<path d="M155.704 126.708C165.192 126.708 172.883 119.017 172.883 109.529C172.883 100.041 165.192 92.3499 155.704 92.3499C146.216 92.3499 138.525 100.041 138.525 109.529C138.525 119.017 146.216 126.708 155.704 126.708Z" fill="#F5F5F5"/>
<path d="M109.529 172.884C119.017 172.884 126.708 165.192 126.708 155.704C126.708 146.216 119.017 138.525 109.529 138.525C100.041 138.525 92.3498 146.216 92.3498 155.704C92.3498 165.192 100.041 172.884 109.529 172.884Z" fill="#F5F5F5"/>
<path d="M248.563 126.708C258.05 126.708 265.742 119.017 265.742 109.529C265.742 100.041 258.05 92.3499 248.563 92.3499C239.075 92.3499 231.383 100.041 231.383 109.529C231.383 119.017 239.075 126.708 248.563 126.708Z" fill="#F5F5F5"/>
<path d="M202.388 172.883C211.875 172.883 219.567 165.192 219.567 155.704C219.567 146.216 211.875 138.525 202.388 138.525C192.9 138.525 185.208 146.216 185.208 155.704C185.208 165.192 192.9 172.883 202.388 172.883Z" fill="#F5F5F5"/>
<path d="M248.563 172.883C258.05 172.883 265.742 165.192 265.742 155.704C265.742 146.216 258.05 138.525 248.563 138.525C239.075 138.525 231.383 146.216 231.383 155.704C231.383 165.192 239.075 172.883 248.563 172.883Z" fill="#F5F5F5"/>
<path d="M294.737 126.708C304.225 126.708 311.917 119.017 311.917 109.529C311.917 100.041 304.225 92.3499 294.737 92.3499C285.25 92.3499 277.558 100.041 277.558 109.529C277.558 119.017 285.25 126.708 294.737 126.708Z" fill="#F5F5F5"/>
<path d="M340.912 126.708C350.4 126.708 358.092 119.017 358.092 109.529C358.092 100.041 350.4 92.3499 340.912 92.3499C331.425 92.3499 323.733 100.041 323.733 109.529C323.733 119.017 331.425 126.708 340.912 126.708Z" fill="#F5F5F5"/>
<path d="M294.737 172.883C304.225 172.883 311.917 165.192 311.917 155.704C311.917 146.216 304.225 138.525 294.737 138.525C285.25 138.525 277.558 146.216 277.558 155.704C277.558 165.192 285.25 172.883 294.737 172.883Z" fill="#F5F5F5"/>
<path d="M433.262 34.3586C442.75 34.3586 450.442 26.6671 450.442 17.1793C450.442 7.69147 442.75 6.10352e-05 433.262 6.10352e-05C423.775 6.10352e-05 416.083 7.69147 416.083 17.1793C416.083 26.6671 423.775 34.3586 433.262 34.3586Z" fill="#F5F5F5"/>
<path d="M387.087 80.5335C396.575 80.5335 404.267 72.8421 404.267 63.3542C404.267 53.8664 396.575 46.175 387.087 46.175C377.6 46.175 369.908 53.8664 369.908 63.3542C369.908 72.8421 377.6 80.5335 387.087 80.5335Z" fill="#F5F5F5"/>
<path d="M433.262 80.5335C442.75 80.5335 450.442 72.8421 450.442 63.3542C450.442 53.8664 442.75 46.175 433.262 46.175C423.775 46.175 416.083 53.8664 416.083 63.3542C416.083 72.8421 423.775 80.5335 433.262 80.5335Z" fill="#F5F5F5"/>
<path d="M479.437 34.3586C488.925 34.3586 496.617 26.6671 496.617 17.1793C496.617 7.69147 488.925 6.10352e-05 479.437 6.10352e-05C469.949 6.10352e-05 462.258 7.69147 462.258 17.1793C462.258 26.6671 469.949 34.3586 479.437 34.3586Z" fill="#F5F5F5"/>
<path d="M525.613 34.3586C535.1 34.3586 542.792 26.6671 542.792 17.1793C542.792 7.69148 535.1 6.10352e-05 525.613 6.10352e-05C516.125 6.10352e-05 508.433 7.69148 508.433 17.1793C508.433 26.6671 516.125 34.3586 525.613 34.3586Z" fill="#F5F5F5"/>
<path d="M572.296 34.3586C581.784 34.3586 589.475 26.6671 589.475 17.1793C589.475 7.69147 581.784 6.10352e-05 572.296 6.10352e-05C562.808 6.10352e-05 555.117 7.69147 555.117 17.1793C555.117 26.6671 562.808 34.3586 572.296 34.3586Z" fill="#F5F5F5"/>
<path d="M618.471 34.3586C627.959 34.3586 635.65 26.6671 635.65 17.1793C635.65 7.69147 627.959 6.10352e-05 618.471 6.10352e-05C608.983 6.10352e-05 601.292 7.69147 601.292 17.1793C601.292 26.6671 608.983 34.3586 618.471 34.3586Z" fill="#F5F5F5"/>
<path d="M572.296 80.5335C581.784 80.5335 589.475 72.8421 589.475 63.3542C589.475 53.8664 581.784 46.175 572.296 46.175C562.808 46.175 555.117 53.8664 555.117 63.3542C555.117 72.8421 562.808 80.5335 572.296 80.5335Z" fill="#F5F5F5"/>
<path d="M618.471 80.5335C627.959 80.5335 635.65 72.8421 635.65 63.3542C635.65 53.8664 627.959 46.175 618.471 46.175C608.983 46.175 601.292 53.8664 601.292 63.3542C601.292 72.8421 608.983 80.5335 618.471 80.5335Z" fill="#F5F5F5"/>
<path d="M664.646 34.3586C674.133 34.3586 681.825 26.6671 681.825 17.1793C681.825 7.69148 674.133 6.10352e-05 664.646 6.10352e-05C655.158 6.10352e-05 647.466 7.69148 647.466 17.1793C647.466 26.6671 655.158 34.3586 664.646 34.3586Z" fill="#F5F5F5"/>
<path d="M710.821 34.3586C720.309 34.3586 728 26.6671 728 17.1793C728 7.69148 720.309 6.10352e-05 710.821 6.10352e-05C701.333 6.10352e-05 693.642 7.69148 693.642 17.1793C693.642 26.6671 701.333 34.3586 710.821 34.3586Z" fill="#F5F5F5"/>
<path d="M664.646 80.5335C674.133 80.5335 681.825 72.8421 681.825 63.3542C681.825 53.8664 674.133 46.175 664.646 46.175C655.158 46.175 647.466 53.8664 647.466 63.3542C647.466 72.8421 655.158 80.5335 664.646 80.5335Z" fill="#F5F5F5"/>
<path d="M387.087 126.708C396.575 126.708 404.267 119.017 404.267 109.529C404.267 100.041 396.575 92.3499 387.087 92.3499C377.6 92.3499 369.908 100.041 369.908 109.529C369.908 119.017 377.6 126.708 387.087 126.708Z" fill="#F5F5F5"/>
<path d="M433.262 126.708C442.75 126.708 450.442 119.017 450.442 109.529C450.442 100.041 442.75 92.3499 433.262 92.3499C423.775 92.3499 416.083 100.041 416.083 109.529C416.083 119.017 423.775 126.708 433.262 126.708Z" fill="#F5F5F5"/>
<path d="M387.087 172.883C396.575 172.883 404.267 165.192 404.267 155.704C404.267 146.216 396.575 138.525 387.087 138.525C377.6 138.525 369.908 146.216 369.908 155.704C369.908 165.192 377.6 172.883 387.087 172.883Z" fill="#F5F5F5"/>
<path d="M479.437 126.708C488.925 126.708 496.617 119.017 496.617 109.529C496.617 100.041 488.925 92.3499 479.437 92.3499C469.949 92.3499 462.258 100.041 462.258 109.529C462.258 119.017 469.949 126.708 479.437 126.708Z" fill="#F5F5F5"/>
<path d="M525.613 92.35C516.125 92.35 508.433 100.041 508.433 109.529C508.433 119.017 516.125 126.708 525.613 126.708C535.1 126.708 542.792 119.017 542.792 109.529C542.792 100.041 535.1 92.35 525.613 92.35Z" fill="#F5F5F5"/>
<path d="M479.437 172.883C488.925 172.883 496.617 165.192 496.617 155.704C496.617 146.216 488.925 138.525 479.437 138.525C469.949 138.525 462.258 146.216 462.258 155.704C462.258 165.192 469.949 172.883 479.437 172.883Z" fill="#F5F5F5"/>
<path d="M525.613 138.525C516.125 138.525 508.433 146.216 508.433 155.704C508.433 165.192 516.125 172.884 525.613 172.884C535.1 172.884 542.792 165.192 542.792 155.704C542.792 146.216 535.1 138.525 525.613 138.525Z" fill="#F5F5F5"/>
<path d="M572.296 126.708C581.784 126.708 589.475 119.017 589.475 109.529C589.475 100.041 581.784 92.3499 572.296 92.3499C562.808 92.3499 555.117 100.041 555.117 109.529C555.117 119.017 562.808 126.708 572.296 126.708Z" fill="#F5F5F5"/>
<path d="M618.471 172.883C627.959 172.883 635.65 165.192 635.65 155.704C635.65 146.216 627.959 138.525 618.471 138.525C608.983 138.525 601.292 146.216 601.292 155.704C601.292 165.192 608.983 172.883 618.471 172.883Z" fill="#F5F5F5"/>
<path d="M664.646 126.708C674.133 126.708 681.825 119.017 681.825 109.529C681.825 100.041 674.133 92.3499 664.646 92.3499C655.158 92.3499 647.466 100.041 647.466 109.529C647.466 119.017 655.158 126.708 664.646 126.708Z" fill="#F5F5F5"/>
<path d="M664.646 172.884C674.133 172.884 681.825 165.192 681.825 155.704C681.825 146.216 674.133 138.525 664.646 138.525C655.158 138.525 647.466 146.216 647.466 155.704C647.466 165.192 655.158 172.884 664.646 172.884Z" fill="#F5F5F5"/>
<path d="M710.821 138.525C701.333 138.525 693.642 146.216 693.642 155.704C693.642 165.192 701.333 172.884 710.821 172.884C720.308 172.884 728 165.192 728 155.704C728 146.216 720.309 138.525 710.821 138.525Z" fill="#F5F5F5"/>
<path d="M17.1792 219.058C26.6671 219.058 34.3585 211.367 34.3585 201.879C34.3585 192.391 26.6671 184.7 17.1792 184.7C7.69141 184.7 0 192.391 0 201.879C0 211.367 7.69141 219.058 17.1792 219.058Z" fill="#F5F5F5"/>
<path d="M63.3542 219.058C72.842 219.058 80.5334 211.367 80.5334 201.879C80.5334 192.391 72.842 184.7 63.3542 184.7C53.8663 184.7 46.1749 192.391 46.1749 201.879C46.1749 211.367 53.8663 219.058 63.3542 219.058Z" fill="#F5F5F5"/>
<path d="M17.1792 265.233C26.6671 265.233 34.3585 257.542 34.3585 248.054C34.3585 238.566 26.6671 230.875 17.1792 230.875C7.69141 230.875 0 238.566 0 248.054C0 257.542 7.69141 265.233 17.1792 265.233Z" fill="#F5F5F5"/>
<path d="M63.3542 265.233C72.842 265.233 80.5334 257.542 80.5334 248.054C80.5334 238.566 72.842 230.875 63.3542 230.875C53.8663 230.875 46.1749 238.566 46.1749 248.054C46.1749 257.542 53.8663 265.233 63.3542 265.233Z" fill="#F5F5F5"/>
<path d="M155.704 219.058C165.192 219.058 172.883 211.367 172.883 201.879C172.883 192.391 165.192 184.7 155.704 184.7C146.216 184.7 138.525 192.391 138.525 201.879C138.525 211.367 146.216 219.058 155.704 219.058Z" fill="#F5F5F5"/>
<path d="M109.529 265.233C119.017 265.233 126.708 257.542 126.708 248.054C126.708 238.566 119.017 230.875 109.529 230.875C100.041 230.875 92.3499 238.566 92.3499 248.054C92.3499 257.542 100.041 265.233 109.529 265.233Z" fill="#F5F5F5"/>
<path d="M155.704 265.233C165.192 265.233 172.883 257.542 172.883 248.054C172.883 238.566 165.192 230.875 155.704 230.875C146.216 230.875 138.525 238.566 138.525 248.054C138.525 257.542 146.216 265.233 155.704 265.233Z" fill="#F5F5F5"/>
<path d="M248.563 219.058C258.05 219.058 265.742 211.367 265.742 201.879C265.742 192.391 258.05 184.7 248.563 184.7C239.075 184.7 231.383 192.391 231.383 201.879C231.383 211.367 239.075 219.058 248.563 219.058Z" fill="#F5F5F5"/>
<path d="M248.563 265.233C258.05 265.233 265.742 257.542 265.742 248.054C265.742 238.566 258.05 230.875 248.563 230.875C239.075 230.875 231.383 238.566 231.383 248.054C231.383 257.542 239.075 265.233 248.563 265.233Z" fill="#F5F5F5"/>
<path d="M294.737 219.058C304.225 219.058 311.917 211.367 311.917 201.879C311.917 192.391 304.225 184.7 294.737 184.7C285.25 184.7 277.558 192.391 277.558 201.879C277.558 211.367 285.25 219.058 294.737 219.058Z" fill="#F5F5F5"/>
<path d="M294.737 265.233C304.225 265.233 311.917 257.542 311.917 248.054C311.917 238.566 304.225 230.875 294.737 230.875C285.25 230.875 277.558 238.566 277.558 248.054C277.558 257.542 285.25 265.233 294.737 265.233Z" fill="#F5F5F5"/>
<path d="M340.912 265.233C350.4 265.233 358.092 257.542 358.092 248.054C358.092 238.566 350.4 230.875 340.912 230.875C331.425 230.875 323.733 238.566 323.733 248.054C323.733 257.542 331.425 265.233 340.912 265.233Z" fill="#F5F5F5"/>
<path d="M17.1792 311.409C26.6671 311.409 34.3585 303.717 34.3585 294.229C34.3585 284.741 26.6671 277.05 17.1792 277.05C7.69141 277.05 0 284.741 0 294.229C0 303.717 7.69141 311.409 17.1792 311.409Z" fill="#F5F5F5"/>
<path d="M63.3542 311.409C72.842 311.409 80.5334 303.717 80.5334 294.229C80.5334 284.741 72.842 277.05 63.3542 277.05C53.8663 277.05 46.1749 284.741 46.1749 294.229C46.1749 303.717 53.8663 311.409 63.3542 311.409Z" fill="#F5F5F5"/>
<path d="M17.1792 357.583C26.6671 357.583 34.3585 349.892 34.3585 340.404C34.3585 330.916 26.6671 323.225 17.1792 323.225C7.69141 323.225 0 330.916 0 340.404C0 349.892 7.69141 357.583 17.1792 357.583Z" fill="#F5F5F5"/>
<path d="M63.3542 357.583C72.842 357.583 80.5334 349.892 80.5334 340.404C80.5334 330.916 72.842 323.225 63.3542 323.225C53.8663 323.225 46.1749 330.916 46.1749 340.404C46.1749 349.892 53.8663 357.583 63.3542 357.583Z" fill="#F5F5F5"/>
<path d="M109.529 357.583C119.017 357.583 126.708 349.892 126.708 340.404C126.708 330.916 119.017 323.225 109.529 323.225C100.041 323.225 92.3499 330.916 92.3499 340.404C92.3499 349.892 100.041 357.583 109.529 357.583Z" fill="#F5F5F5"/>
<path d="M155.704 357.583C165.192 357.583 172.883 349.892 172.883 340.404C172.883 330.916 165.192 323.225 155.704 323.225C146.216 323.225 138.525 330.916 138.525 340.404C138.525 349.892 146.216 357.583 155.704 357.583Z" fill="#F5F5F5"/>
<path d="M202.388 311.409C211.875 311.409 219.567 303.717 219.567 294.229C219.567 284.741 211.875 277.05 202.388 277.05C192.9 277.05 185.208 284.741 185.208 294.229C185.208 303.717 192.9 311.409 202.388 311.409Z" fill="#F5F5F5"/>
<path d="M248.563 311.409C258.05 311.409 265.742 303.717 265.742 294.229C265.742 284.741 258.05 277.05 248.563 277.05C239.075 277.05 231.383 284.741 231.383 294.229C231.383 303.717 239.075 311.409 248.563 311.409Z" fill="#F5F5F5"/>
<path d="M202.388 357.583C211.875 357.583 219.567 349.892 219.567 340.404C219.567 330.916 211.875 323.225 202.388 323.225C192.9 323.225 185.208 330.916 185.208 340.404C185.208 349.892 192.9 357.583 202.388 357.583Z" fill="#F5F5F5"/>
<path d="M248.563 357.583C258.05 357.583 265.742 349.892 265.742 340.404C265.742 330.916 258.05 323.225 248.563 323.225C239.075 323.225 231.383 330.916 231.383 340.404C231.383 349.892 239.075 357.583 248.563 357.583Z" fill="#F5F5F5"/>
<path d="M340.912 311.409C350.4 311.409 358.092 303.717 358.092 294.229C358.092 284.741 350.4 277.05 340.912 277.05C331.425 277.05 323.733 284.741 323.733 294.229C323.733 303.717 331.425 311.409 340.912 311.409Z" fill="#F5F5F5"/>
<path d="M294.737 357.583C304.225 357.583 311.917 349.892 311.917 340.404C311.917 330.916 304.225 323.225 294.737 323.225C285.25 323.225 277.558 330.916 277.558 340.404C277.558 349.892 285.25 357.583 294.737 357.583Z" fill="#F5F5F5"/>
<path d="M387.087 219.058C396.575 219.058 404.267 211.367 404.267 201.879C404.267 192.391 396.575 184.7 387.087 184.7C377.6 184.7 369.908 192.391 369.908 201.879C369.908 211.367 377.6 219.058 387.087 219.058Z" fill="#F5F5F5"/>
<path d="M433.262 219.058C442.75 219.058 450.442 211.367 450.442 201.879C450.442 192.391 442.75 184.7 433.262 184.7C423.775 184.7 416.083 192.391 416.083 201.879C416.083 211.367 423.775 219.058 433.262 219.058Z" fill="#F5F5F5"/>
<path d="M387.087 265.233C396.575 265.233 404.267 257.542 404.267 248.054C404.267 238.566 396.575 230.875 387.087 230.875C377.6 230.875 369.908 238.566 369.908 248.054C369.908 257.542 377.6 265.233 387.087 265.233Z" fill="#F5F5F5"/>
<path d="M525.613 184.7C516.125 184.7 508.433 192.391 508.433 201.879C508.433 211.367 516.125 219.059 525.613 219.059C535.1 219.059 542.792 211.367 542.792 201.879C542.792 192.391 535.1 184.7 525.613 184.7Z" fill="#F5F5F5"/>
<path d="M525.613 230.875C516.125 230.875 508.433 238.566 508.433 248.054C508.433 257.542 516.125 265.233 525.613 265.233C535.1 265.233 542.792 257.542 542.792 248.054C542.792 238.566 535.1 230.875 525.613 230.875Z" fill="#F5F5F5"/>
<path d="M618.471 219.058C627.959 219.058 635.65 211.367 635.65 201.879C635.65 192.391 627.959 184.7 618.471 184.7C608.983 184.7 601.292 192.391 601.292 201.879C601.292 211.367 608.983 219.058 618.471 219.058Z" fill="#F5F5F5"/>
<path d="M572.296 265.233C581.784 265.233 589.475 257.542 589.475 248.054C589.475 238.566 581.784 230.875 572.296 230.875C562.808 230.875 555.117 238.566 555.117 248.054C555.117 257.542 562.808 265.233 572.296 265.233Z" fill="#F5F5F5"/>
<path d="M664.646 219.058C674.133 219.058 681.825 211.367 681.825 201.879C681.825 192.391 674.133 184.7 664.646 184.7C655.158 184.7 647.466 192.391 647.466 201.879C647.466 211.367 655.158 219.058 664.646 219.058Z" fill="#F5F5F5"/>
<path d="M710.821 184.7C701.333 184.7 693.642 192.391 693.642 201.879C693.642 211.367 701.333 219.059 710.821 219.059C720.308 219.059 728 211.367 728 201.879C728 192.391 720.309 184.7 710.821 184.7Z" fill="#F5F5F5"/>
<path d="M664.646 265.233C674.133 265.233 681.825 257.542 681.825 248.054C681.825 238.566 674.133 230.875 664.646 230.875C655.158 230.875 647.466 238.566 647.466 248.054C647.466 257.542 655.158 265.233 664.646 265.233Z" fill="#F5F5F5"/>
<path d="M710.821 230.875C701.333 230.875 693.642 238.566 693.642 248.054C693.642 257.542 701.333 265.233 710.821 265.233C720.308 265.233 728 257.542 728 248.054C728 238.566 720.309 230.875 710.821 230.875Z" fill="#F5F5F5"/>
<path d="M387.087 311.409C396.575 311.409 404.267 303.717 404.267 294.229C404.267 284.741 396.575 277.05 387.087 277.05C377.6 277.05 369.908 284.741 369.908 294.229C369.908 303.717 377.6 311.409 387.087 311.409Z" fill="#F5F5F5"/>
<path d="M433.262 311.409C442.75 311.409 450.442 303.717 450.442 294.229C450.442 284.741 442.75 277.05 433.262 277.05C423.775 277.05 416.083 284.741 416.083 294.229C416.083 303.717 423.775 311.409 433.262 311.409Z" fill="#F5F5F5"/>
<path d="M387.087 357.583C396.575 357.583 404.267 349.892 404.267 340.404C404.267 330.916 396.575 323.225 387.087 323.225C377.6 323.225 369.908 330.916 369.908 340.404C369.908 349.892 377.6 357.583 387.087 357.583Z" fill="#F5F5F5"/>
<path d="M433.262 357.583C442.75 357.583 450.442 349.892 450.442 340.404C450.442 330.916 442.75 323.225 433.262 323.225C423.775 323.225 416.083 330.916 416.083 340.404C416.083 349.892 423.775 357.583 433.262 357.583Z" fill="#F5F5F5"/>
<path d="M479.437 311.409C488.925 311.409 496.617 303.717 496.617 294.229C496.617 284.741 488.925 277.05 479.437 277.05C469.949 277.05 462.258 284.741 462.258 294.229C462.258 303.717 469.949 311.409 479.437 311.409Z" fill="#F5F5F5"/>
<path d="M525.613 277.05C516.125 277.05 508.433 284.741 508.433 294.229C508.433 303.717 516.125 311.409 525.613 311.409C535.1 311.409 542.792 303.717 542.792 294.229C542.792 284.741 535.1 277.05 525.613 277.05Z" fill="#F5F5F5"/>
<path d="M479.437 357.583C488.925 357.583 496.617 349.892 496.617 340.404C496.617 330.916 488.925 323.225 479.437 323.225C469.949 323.225 462.258 330.916 462.258 340.404C462.258 349.892 469.949 357.583 479.437 357.583Z" fill="#F5F5F5"/>
<path d="M525.613 323.225C516.125 323.225 508.433 330.916 508.433 340.404C508.433 349.892 516.125 357.584 525.613 357.584C535.1 357.584 542.792 349.892 542.792 340.404C542.792 330.916 535.1 323.225 525.613 323.225Z" fill="#F5F5F5"/>
<path d="M572.296 311.409C581.784 311.409 589.475 303.717 589.475 294.229C589.475 284.741 581.784 277.05 572.296 277.05C562.808 277.05 555.117 284.741 555.117 294.229C555.117 303.717 562.808 311.409 572.296 311.409Z" fill="#F5F5F5"/>
<path d="M618.471 311.409C627.959 311.409 635.65 303.717 635.65 294.229C635.65 284.741 627.959 277.05 618.471 277.05C608.983 277.05 601.292 284.741 601.292 294.229C601.292 303.717 608.983 311.409 618.471 311.409Z" fill="#F5F5F5"/>
<path d="M572.296 357.583C581.784 357.583 589.475 349.892 589.475 340.404C589.475 330.916 581.784 323.225 572.296 323.225C562.808 323.225 555.117 330.916 555.117 340.404C555.117 349.892 562.808 357.583 572.296 357.583Z" fill="#F5F5F5"/>
<path d="M618.471 357.583C627.959 357.583 635.65 349.892 635.65 340.404C635.65 330.916 627.959 323.225 618.471 323.225C608.983 323.225 601.292 330.916 601.292 340.404C601.292 349.892 608.983 357.583 618.471 357.583Z" fill="#F5F5F5"/>
<path d="M664.646 311.409C674.133 311.409 681.825 303.717 681.825 294.229C681.825 284.741 674.133 277.05 664.646 277.05C655.158 277.05 647.466 284.741 647.466 294.229C647.466 303.717 655.158 311.409 664.646 311.409Z" fill="#F5F5F5"/>
<path d="M710.821 323.225C701.333 323.225 693.642 330.916 693.642 340.404C693.642 349.892 701.333 357.584 710.821 357.584C720.308 357.584 728 349.892 728 340.404C728 330.916 720.309 323.225 710.821 323.225Z" fill="#F5F5F5"/>
<path d="M92.5495 111.983C92.6121 112.412 92.6955 112.833 92.7884 113.25C94.7213 121.921 103.07 127.785 112 126.482C121.36 125.117 127.864 116.391 126.499 107.032C125.543 100.479 120.815 95.0372 114.544 93.1067C114.115 92.9746 113.678 92.8577 113.235 92.7594C112.824 92.6881 112.413 92.6146 111.997 92.5323C111.562 92.4689 111.126 92.4248 110.689 92.3951C92.7942 88.2866 83.4977 82.162 80.4775 62.9859C80.4628 62.2808 80.4099 61.5699 80.3055 60.8546C80.2452 60.4399 80.165 60.0331 80.0765 59.6301C78.1609 50.9361 69.8002 45.0514 60.8547 46.3561C51.495 47.7214 44.9907 56.4465 46.3559 65.8065C47.3757 72.7981 52.503 78.1945 58.9328 79.9095C59.7724 80.1334 60.6338 80.2958 61.5114 80.3896C79.6908 84.2794 89.2972 90.4979 92.3783 109.879C92.3939 110.575 92.4465 111.277 92.5495 111.983Z" fill="#F5F5F5"/>
<path d="M92.3746 204.808C92.4373 205.237 92.5206 205.658 92.6135 206.075C94.5464 214.746 102.895 220.61 111.825 219.307C121.185 217.942 127.689 209.216 126.324 199.856C125.368 193.304 120.64 187.862 114.369 185.932C113.94 185.8 113.504 185.683 113.06 185.584C112.649 185.513 112.238 185.439 111.823 185.357C111.388 185.294 110.951 185.25 110.514 185.22C92.6194 181.111 83.3228 174.987 80.3026 155.811C80.2879 155.106 80.2351 154.395 80.1307 153.68C80.0704 153.265 79.9902 152.858 79.9016 152.455C77.986 143.761 69.6253 137.876 60.6799 139.181C51.3201 140.546 44.8159 149.271 46.181 158.631C47.2009 165.623 52.3282 171.019 58.758 172.734C59.5975 172.958 60.4589 173.121 61.3365 173.214C79.5159 177.104 89.1223 183.323 92.2034 202.704C92.219 203.4 92.2717 204.102 92.3746 204.808Z" fill="#F5F5F5"/>
<path d="M156.072 172.828C156.778 172.813 157.488 172.76 158.204 172.656C158.618 172.595 159.025 172.515 159.428 172.426C168.122 170.511 174.007 162.15 172.702 153.205C171.337 143.845 162.612 137.341 153.252 138.706C146.26 139.726 140.864 144.853 139.149 151.283C138.925 152.123 138.763 152.984 138.669 153.862C134.779 172.041 128.56 181.647 109.179 184.728C108.483 184.744 107.782 184.797 107.075 184.9C106.646 184.963 106.225 185.046 105.809 185.138C97.1377 187.072 91.2733 195.42 92.5758 204.351C93.9412 213.71 102.667 220.214 112.027 218.849C118.579 217.893 124.021 213.165 125.952 206.894C126.084 206.465 126.201 206.029 126.299 205.586C126.37 205.174 126.444 204.763 126.526 204.348C126.59 203.913 126.634 203.476 126.663 203.039C130.772 185.144 136.896 175.848 156.072 172.828Z" fill="#F5F5F5"/>
<path d="M126.509 199.68C126.446 199.251 126.363 198.83 126.27 198.414C124.337 189.743 115.989 183.878 107.058 185.181C97.6983 186.546 91.194 195.272 92.5594 204.632C93.5152 211.184 98.2435 216.626 104.514 218.557C104.944 218.689 105.38 218.806 105.823 218.904C106.235 218.975 106.645 219.049 107.061 219.131C107.496 219.195 107.932 219.239 108.37 219.268C126.264 223.377 135.561 229.501 138.581 248.678C138.596 249.383 138.648 250.093 138.753 250.809C138.813 251.223 138.893 251.63 138.982 252.033C140.897 260.727 149.258 266.612 158.204 265.307C167.563 263.942 174.068 255.217 172.702 245.857C171.683 238.865 166.555 233.469 160.125 231.754C159.286 231.53 158.425 231.368 157.547 231.274C139.368 227.384 129.761 221.165 126.68 201.784C126.664 201.088 126.612 200.386 126.509 199.68Z" fill="#F5F5F5"/>
<path d="M62.811 231.661C62.1059 231.675 61.395 231.728 60.6796 231.833C60.265 231.893 59.8583 231.973 59.4552 232.062C50.7611 233.977 44.8765 242.338 46.181 251.283C47.5464 260.643 56.2718 267.147 65.6315 265.782C72.623 264.762 78.0195 259.635 79.7345 253.205C79.9584 252.366 80.1208 251.505 80.2146 250.627C84.1043 232.447 90.3229 222.841 109.704 219.76C110.4 219.744 111.102 219.691 111.808 219.588C112.237 219.526 112.658 219.443 113.075 219.35C121.746 217.417 127.61 209.069 126.308 200.138C124.942 190.778 116.216 184.274 106.857 185.639C100.304 186.595 94.862 191.323 92.9317 197.594C92.7996 198.024 92.6828 198.46 92.5844 198.903C92.5131 199.314 92.4396 199.725 92.3573 200.141C92.2939 200.576 92.2498 201.012 92.22 201.45C88.1117 219.344 81.9871 228.641 62.811 231.661Z" fill="#F5F5F5"/>
<path d="M354.668 165.911C354.918 165.575 355.149 165.231 355.371 164.883C360.164 157.381 358.414 147.308 351.166 141.905C343.582 136.252 332.813 137.823 327.16 145.406C322.937 151.071 322.747 158.513 326.081 164.272C326.516 165.024 327.01 165.748 327.565 166.435C337.669 182.04 340.064 174.152 328.538 190.035C328.057 190.538 327.598 191.072 327.171 191.644C326.912 191.992 326.674 192.348 326.445 192.708C321.68 200.206 323.437 210.256 330.673 215.65C338.257 221.303 349.026 219.732 354.679 212.148C358.636 206.839 359.141 199.648 356.072 193.849C355.862 193.451 355.636 193.061 355.392 192.678C355.151 192.336 354.913 191.994 354.677 191.642C354.414 191.289 354.137 190.949 353.848 190.619C344.1 175.061 341.858 183.235 353.282 167.539C353.77 167.031 354.235 166.491 354.668 165.911Z" fill="#F5F5F5"/>
<path d="M469.216 261.809C469.553 262.06 469.897 262.291 470.244 262.513C477.746 267.306 487.82 265.556 493.222 258.308C498.875 250.724 497.305 239.955 489.721 234.302C484.056 230.079 476.615 229.889 470.855 233.223C470.103 233.658 469.38 234.152 468.693 234.707C453.087 244.811 460.976 247.206 445.092 235.68C444.589 235.199 444.056 234.74 443.484 234.313C443.136 234.054 442.779 233.815 442.419 233.587C434.921 228.822 424.871 230.579 419.477 237.815C413.824 245.398 415.395 256.167 422.979 261.821C428.288 265.778 435.48 266.283 441.279 263.213C441.676 263.003 442.067 262.777 442.45 262.534C442.791 262.293 443.133 262.055 443.486 261.819C443.838 261.556 444.178 261.278 444.508 260.99C460.067 251.242 451.893 249 467.588 260.424C468.097 260.912 468.637 261.377 469.216 261.809Z" fill="#F5F5F5"/>
<path d="M3.86486 27.9239C13.9692 43.5293 16.3642 35.641 4.83825 51.5242C4.35702 52.0275 3.89836 52.561 3.47167 53.1333C3.21259 53.4809 2.97402 53.8373 2.74495 54.1975C-2.01946 61.6958 -0.263115 71.7455 6.97302 77.1394C14.5565 82.7924 25.3258 81.2214 30.979 73.6376C34.9362 68.3287 35.441 61.1371 32.3718 55.3377C32.1615 54.9408 31.9359 54.5499 31.6921 54.1669C31.4513 53.8255 31.213 53.483 30.9772 53.131C30.7144 52.7786 30.4369 52.4387 30.1487 52.1084C20.4004 36.5502 18.158 44.7238 29.5821 29.0287C30.0703 28.5198 30.5356 27.9798 30.9674 27.4002C31.2178 27.0643 31.4489 26.7201 31.6713 26.3724C36.4646 18.8704 34.7137 8.79721 27.4657 3.39452C19.8821 -2.25879 9.11334 -0.688255 3.46009 6.89569C-0.76254 12.5606 -0.952904 20.0017 2.38112 25.7613C2.81644 26.5132 3.31067 27.2369 3.86486 27.9239Z" fill="#F5F5F5"/>
<path d="M145.483 307.984C145.819 308.235 146.163 308.466 146.511 308.688C154.013 313.481 164.086 311.731 169.489 304.483C175.142 296.899 173.572 286.13 165.987 280.477C160.323 276.254 152.881 276.064 147.122 279.398C146.37 279.833 145.646 280.327 144.959 280.881C129.354 290.986 137.242 293.381 121.359 281.855C120.856 281.374 120.322 280.915 119.75 280.488C119.402 280.229 119.046 279.99 118.686 279.762C111.188 274.997 101.138 276.753 95.7439 283.99C90.0909 291.573 91.6617 302.342 99.2456 307.995C104.555 311.953 111.746 312.458 117.546 309.388C117.943 309.178 118.333 308.953 118.716 308.709C119.058 308.468 119.4 308.23 119.752 307.994C120.105 307.731 120.445 307.453 120.775 307.165C136.333 297.417 128.159 295.175 143.855 306.599C144.363 307.087 144.904 307.552 145.483 307.984Z" fill="#F5F5F5"/>
<path d="M450.228 153.213C450.168 152.798 450.088 152.392 449.999 151.989C448.083 143.295 439.722 137.41 430.777 138.715C421.417 140.08 414.913 148.805 416.278 158.165C417.298 165.157 422.425 170.553 428.855 172.268C429.695 172.492 430.556 172.654 431.434 172.748C449.613 176.638 459.22 182.856 462.301 202.238C462.316 202.934 462.369 203.636 462.472 204.342C462.535 204.771 462.618 205.192 462.711 205.608C464.644 214.279 472.992 220.143 481.923 218.841C491.283 217.476 497.787 208.75 496.422 199.39C495.466 192.838 490.737 187.396 484.467 185.465C484.037 185.333 483.601 185.216 483.158 185.118C482.746 185.047 482.336 184.973 481.92 184.891C481.485 184.827 481.048 184.783 480.611 184.754C462.717 180.645 453.42 174.52 450.4 155.344C450.385 154.639 450.332 153.928 450.228 153.213Z" fill="#F5F5F5"/>
<path d="M345.941 323.982C345.512 323.849 345.076 323.733 344.633 323.634C344.221 323.563 343.811 323.489 343.395 323.407C342.96 323.344 342.523 323.3 342.086 323.27C324.192 319.162 314.895 313.037 311.875 293.861C311.86 293.156 311.807 292.445 311.703 291.729C311.643 291.315 311.562 290.908 311.474 290.505C309.559 281.811 301.198 275.926 292.253 277.231C282.892 278.596 276.388 287.321 277.753 296.681C278.773 303.673 283.9 309.069 290.331 310.784C291.17 311.008 292.031 311.171 292.909 311.264C311.089 315.154 320.695 321.373 323.776 340.754C323.791 341.45 323.844 342.152 323.947 342.858C324.01 343.287 324.093 343.708 324.186 344.125C326.119 352.796 334.467 358.66 343.398 357.357C352.758 355.992 359.262 347.266 357.896 337.906C356.941 331.354 352.213 325.912 345.941 323.982Z" fill="#F5F5F5"/>
<path d="M264.557 345.411C264.689 344.981 264.806 344.545 264.904 344.102C264.975 343.69 265.049 343.28 265.131 342.864C265.194 342.429 265.239 341.992 265.268 341.555C269.377 323.661 275.501 314.364 294.678 311.344C295.382 311.329 296.093 311.277 296.809 311.172C297.223 311.112 297.63 311.032 298.033 310.943C306.727 309.028 312.612 300.667 311.307 291.722C309.942 282.362 301.217 275.857 291.857 277.222C284.865 278.243 279.469 283.37 277.754 289.8C277.53 290.639 277.368 291.5 277.274 292.378C273.384 310.558 267.166 320.164 247.784 323.245C247.088 323.26 246.386 323.313 245.68 323.416C245.251 323.479 244.83 323.562 244.414 323.655C235.743 325.588 229.878 333.936 231.181 342.867C232.546 352.227 241.272 358.731 250.632 357.366C257.184 356.41 262.626 351.682 264.557 345.411Z" fill="#F5F5F5"/>
<path d="M264.557 345.411C264.689 344.981 264.806 344.545 264.904 344.102C264.975 343.69 265.049 343.28 265.131 342.864C265.194 342.429 265.239 341.992 265.268 341.555C269.377 323.661 275.501 314.364 294.678 311.344C295.382 311.329 296.093 311.277 296.809 311.172C297.223 311.112 297.63 311.032 298.033 310.943C306.727 309.028 312.612 300.667 311.307 291.722C309.942 282.362 301.217 275.857 291.857 277.222C284.865 278.243 279.469 283.37 277.754 289.8C277.53 290.639 277.368 291.5 277.274 292.378C273.384 310.558 267.166 320.164 247.784 323.245C247.088 323.26 246.386 323.313 245.68 323.416C245.251 323.479 244.83 323.562 244.414 323.655C235.743 325.588 229.878 333.936 231.181 342.867C232.546 352.227 241.272 358.731 250.632 357.366C257.184 356.41 262.626 351.682 264.557 345.411Z" fill="#F5F5F5"/>
<path d="M574.517 172.688C581.069 171.733 586.511 167.004 588.442 160.733C588.574 160.304 588.691 159.868 588.789 159.425C588.86 159.013 588.934 158.602 589.016 158.187C589.08 157.752 589.123 157.315 589.153 156.878C593.262 138.983 599.386 129.687 618.563 126.667C619.268 126.652 619.978 126.599 620.694 126.495C621.108 126.434 621.515 126.354 621.918 126.266C630.612 124.35 636.497 115.989 635.192 107.044C633.827 97.6841 625.102 91.18 615.742 92.5453C608.75 93.5651 603.354 98.6921 601.639 105.122C601.415 105.962 601.253 106.823 601.159 107.701C597.269 125.88 591.051 135.487 571.669 138.568C570.973 138.583 570.271 138.636 569.565 138.739C569.136 138.802 568.715 138.885 568.299 138.978C559.628 140.911 553.763 149.259 555.066 158.19C556.431 167.549 565.157 174.053 574.517 172.688Z" fill="#F5F5F5"/>
<path d="M713.275 311.172C713.69 311.112 714.097 311.032 714.5 310.943C723.194 309.028 729.079 300.667 727.774 291.722C726.409 282.362 717.683 275.857 708.323 277.223C701.332 278.242 695.936 283.37 694.22 289.8C693.996 290.639 693.834 291.5 693.741 292.378C689.851 310.557 683.632 320.164 664.251 323.245C663.555 323.261 662.853 323.313 662.147 323.416C661.718 323.479 661.297 323.562 660.88 323.655C652.209 325.588 646.345 333.936 647.648 342.867C649.013 352.227 657.739 358.731 667.098 357.366C673.651 356.41 679.093 351.682 681.023 345.411C681.155 344.981 681.272 344.545 681.371 344.102C681.442 343.69 681.515 343.28 681.598 342.864C681.661 342.429 681.705 341.993 681.735 341.555C685.843 323.661 691.968 314.364 711.144 311.344C711.849 311.33 712.56 311.277 713.275 311.172Z" fill="#F5F5F5"/>
<path d="M389.565 34.1449C389.979 34.0845 390.386 34.0044 390.789 33.9157C399.483 32.0003 405.368 23.6394 404.063 14.6943C402.698 5.33426 393.973 -1.17001 384.613 0.195268C377.621 1.21509 372.225 6.34227 370.51 12.7724C370.286 13.6119 370.123 14.473 370.03 15.3508C366.14 33.5302 359.921 43.1366 340.54 46.2177C339.844 46.2332 339.142 46.286 338.436 46.389C338.007 46.4516 337.586 46.5348 337.169 46.6277C328.498 48.5607 322.634 56.9089 323.937 65.8398C325.302 75.1994 334.028 81.7036 343.388 80.3384C349.94 79.3826 355.382 74.6544 357.312 68.3833C357.445 67.954 357.561 67.518 357.66 67.0748C357.731 66.663 357.805 66.2526 357.887 65.8368C357.95 65.4019 357.994 64.9652 358.024 64.5279C362.133 46.6335 368.257 37.337 387.433 34.317C388.138 34.3022 388.849 34.2492 389.565 34.1449Z" fill="#F5F5F5"/>
<path d="M620.702 265.03C630.062 263.665 636.566 254.939 635.201 245.579C634.245 239.027 629.517 233.585 623.246 231.654C622.816 231.522 622.38 231.405 621.937 231.307C621.525 231.236 621.115 231.162 620.699 231.08C620.264 231.016 619.828 230.972 619.39 230.943C601.496 226.834 592.199 220.709 589.179 201.533C589.164 200.828 589.112 200.118 589.007 199.402C588.947 198.988 588.867 198.581 588.778 198.178C586.863 189.484 578.502 183.599 569.557 184.903C560.197 186.269 553.692 194.994 555.057 204.354C556.078 211.346 561.205 216.742 567.635 218.457C568.474 218.681 569.335 218.843 570.213 218.937C588.393 222.827 597.999 229.045 601.08 248.427C601.096 249.123 601.148 249.824 601.252 250.531C601.314 250.96 601.397 251.381 601.49 251.797C603.423 260.468 611.771 266.333 620.702 265.03Z" fill="#F5F5F5"/>
<path d="M204.35 126.482C213.71 125.117 220.214 116.391 218.849 107.031C217.893 100.479 213.165 95.0371 206.894 93.1066C206.465 92.9745 206.029 92.8577 205.586 92.7593C205.174 92.6881 204.763 92.6145 204.347 92.5322C203.912 92.4688 203.476 92.4248 203.038 92.3951C185.144 88.2865 175.847 82.1619 172.827 62.9858C172.813 62.2807 172.76 61.5699 172.655 60.8546C172.595 60.4399 172.515 60.0331 172.426 59.6301C170.511 50.936 162.15 45.0513 153.205 46.356C143.845 47.7213 137.341 56.4465 138.706 65.8064C139.726 72.798 144.853 78.1944 151.283 79.9094C152.123 80.1333 152.984 80.2957 153.861 80.3895C172.041 84.2793 181.647 90.4979 184.728 109.879C184.744 110.575 184.796 111.277 184.9 111.983C184.962 112.412 185.045 112.833 185.138 113.25C187.071 121.921 195.419 127.785 204.35 126.482Z" fill="#F5F5F5"/>
<path d="M188.392 237.833C188.133 238.181 187.894 238.537 187.666 238.897C182.901 246.396 184.657 256.445 191.894 261.84C199.477 267.492 210.247 265.921 215.9 258.338C219.857 253.029 220.362 245.837 217.292 240.038C217.082 239.641 216.856 239.25 216.613 238.867C216.372 238.525 216.134 238.183 215.898 237.831C215.635 237.479 215.357 237.139 215.069 236.808C205.321 221.25 203.079 229.424 214.503 213.729C214.991 213.22 215.456 212.68 215.888 212.1C216.139 211.764 216.37 211.42 216.592 211.072C221.385 203.57 219.635 193.497 212.387 188.095C204.803 182.441 194.034 184.012 188.381 191.596C184.158 197.261 183.968 204.702 187.302 210.461C187.737 211.213 188.231 211.937 188.786 212.624C198.89 228.229 201.285 220.341 189.759 236.224C189.278 236.728 188.819 237.261 188.392 237.833Z" fill="#F5F5F5"/>
<path d="M724.542 73.5527C724.793 73.2167 725.024 72.8726 725.246 72.5248C730.039 65.0228 728.289 54.9496 721.041 49.547C713.457 43.8937 702.688 45.4642 697.035 53.0482C692.812 58.7131 692.622 66.1542 695.956 71.9138C696.391 72.6657 696.885 73.3894 697.44 74.0764C707.544 89.6818 709.939 81.7935 698.413 97.6767C697.932 98.18 697.473 98.7135 697.046 99.2857C696.787 99.6334 696.548 99.9898 696.32 100.35C691.555 107.848 693.312 117.898 700.548 123.292C708.131 128.945 718.901 127.374 724.553 119.79C728.511 114.481 729.016 107.29 725.946 101.49C725.736 101.093 725.511 100.702 725.267 100.319C725.026 99.978 724.788 99.6355 724.552 99.2835C724.289 98.9311 724.011 98.5912 723.723 98.2609C713.975 82.7027 711.733 90.8763 723.157 75.1812C723.645 74.6723 724.11 74.1322 724.542 73.5527Z" fill="#F5F5F5"/>
<path d="M536.15 49.6018C530.485 45.3791 523.044 45.1888 517.285 48.5228C516.533 48.9581 515.809 49.4522 515.122 50.0066C499.517 60.1108 507.405 62.5061 491.522 50.98C491.018 50.4988 490.485 50.0399 489.913 49.6134C489.565 49.3542 489.209 49.1157 488.848 48.8867C481.35 44.1222 471.301 45.8785 465.906 53.1147C460.254 60.6983 461.825 71.4676 469.408 77.1206C474.717 81.078 481.909 81.5827 487.708 78.5135C488.105 78.3033 488.496 78.0775 488.879 77.8338C489.22 77.5929 489.563 77.3549 489.915 77.1189C490.267 76.8562 490.607 76.5785 490.938 76.2904C506.496 66.5423 498.322 64.2997 514.017 75.7239C514.526 76.2121 515.066 76.6772 515.646 77.1092C515.982 77.3596 516.326 77.5909 516.674 77.813C524.176 82.6063 534.249 80.8556 539.651 73.6077C545.304 66.0238 543.734 55.2549 536.15 49.6018Z" fill="#F5F5F5"/>
<path d="M285.025 30.9343C285.361 31.1847 285.705 31.4158 286.053 31.6381C293.555 36.4314 303.628 34.6805 309.031 27.4327C314.684 19.8489 313.113 9.08005 305.53 3.42679C299.865 -0.795834 292.424 -0.986198 286.664 2.34783C285.912 2.78315 285.188 3.27731 284.501 3.83169C268.896 13.9359 276.784 16.3311 260.901 4.80507C260.398 4.32384 259.864 3.86501 259.292 3.43849C258.944 3.1793 258.588 2.94072 258.228 2.71166C250.729 -2.05276 240.68 -0.29641 235.286 6.93972C229.633 14.5234 231.204 25.2925 238.788 30.9457C244.096 34.9029 251.288 35.4077 257.087 32.3385C257.484 32.1284 257.875 31.9026 258.258 31.6588C258.6 31.418 258.942 31.1798 259.294 30.9439C259.646 30.6813 259.986 30.4036 260.317 30.1154C275.875 20.3672 267.701 18.1248 283.396 29.5488C283.905 30.0371 284.445 30.5023 285.025 30.9343Z" fill="#F5F5F5"/>
</g>
<defs>
<clipPath id="clip0_108_6545">
<rect width="728" height="357.583" fill="white"/>
</clipPath>
</defs>
</svg>
