<svg width="83" height="56" viewBox="0 0 83 56" fill="none" xmlns="http://www.w3.org/2000/svg">
<g id="Layer_1" clip-path="url(#clip0_108_6061)">
<path id="Vector" d="M52.8315 42.5596C52.5927 42.1818 52.3238 41.8195 52.0243 41.477C46.5132 33.6544 46.1443 29.0517 51.8648 20.7286C52.1063 20.463 52.3357 20.1822 52.5476 19.8821C52.6764 19.6998 52.7944 19.5134 52.9073 19.3252C55.2563 15.4072 54.1749 10.2908 50.3253 7.64903C46.2908 4.88037 40.7229 5.86313 37.9137 9.83968C35.9472 12.6234 35.8059 16.3138 37.4978 19.2322C37.6136 19.432 37.7375 19.6284 37.8705 19.8204C38.0014 19.9913 38.1308 20.1626 38.2593 20.339C38.4017 20.515 38.5516 20.6845 38.7069 20.8488C44.0323 28.6531 44.317 33.1122 38.6463 41.3373C38.4013 41.6059 38.1687 41.8902 37.954 42.1941C37.8296 42.3702 37.7153 42.5503 37.6057 42.732C35.2419 46.6524 36.3206 51.7809 40.1765 54.427C44.2111 57.1957 49.7789 56.2132 52.588 52.2366C54.6864 49.2663 54.6602 45.4533 52.8315 42.5596Z" fill="white"/>
<path id="Vector_2" d="M40.1658 20.5076C37.1784 17.5631 37.1784 12.7891 40.1658 9.84467C42.731 7.31644 46.6645 6.95909 49.6165 8.77244C46.6145 6.44735 42.2549 6.64832 39.4877 9.37567C36.5003 12.3201 36.5003 17.0941 39.4877 20.0386C39.9101 20.4549 40.3695 20.8122 40.8556 21.1108C40.6166 20.9257 40.3861 20.7247 40.1658 20.5076Z" fill="#181716"/>
<path id="Vector_3" d="M50.3436 41.4492C53.3311 44.3937 53.3311 49.1676 50.3436 52.1121C47.7785 54.6403 43.8449 54.9977 40.8929 53.1843C43.8949 55.5094 48.2545 55.3085 51.0217 52.5811C54.0091 49.6366 54.0091 44.8627 51.0217 41.9182C50.5993 41.5019 50.1399 41.1445 49.6538 40.846C49.8928 41.0311 50.1233 41.2321 50.3436 41.4492Z" fill="#181716"/>
<path id="Vector_4" d="M0 23.2444V0H2.83024V9.96183C2.83024 11.2463 2.72335 12.2149 2.50999 12.8677C2.29642 13.5209 1.86405 14.1573 1.21293 14.7769L2.18999 15.7399L11.7246 6.8074H15.4643L7.37852 14.2124L6.7383 14.7769L1.85318 19.2265L2.83024 17.0346V23.2444H0ZM12.4321 23.2444L5.69386 15.0759L7.78264 13.3158L16.1382 23.2444H12.4321Z" fill="white"/>
<path id="Vector_5" d="M19.0689 23.2444V6.8074H21.7979C21.7979 7.33866 21.6574 7.94797 21.3769 8.63388C21.0958 9.32028 20.7419 9.995 20.3155 10.6594H21.8991C22.236 9.55251 22.8592 8.55631 23.7689 7.67088C24.6787 6.78542 25.8632 6.34248 27.3233 6.34248C28.6483 6.34248 29.7491 6.60274 30.625 7.1228C31.5011 7.64331 32.1465 8.37363 32.5623 9.31423C32.9776 10.2557 33.1857 11.3459 33.1857 12.5855V23.2444H30.3218V13.2494C30.3218 11.7444 29.9902 10.6263 29.3279 9.89549C28.6651 9.16517 27.7386 8.79977 26.5484 8.79977C25.2008 8.79977 24.1842 9.19834 23.4994 9.995C22.8139 10.7921 22.3761 11.6944 22.1855 12.7013C21.9944 13.7092 21.8991 14.7993 21.8991 15.9721V23.2444L19.0689 23.2444Z" fill="white"/>
<path id="Vector_6" d="M63.1368 23.2444C62.1934 23.2444 61.4017 23.0898 60.7615 22.7795C60.1214 22.4697 59.6441 22.016 59.3297 21.418C59.015 20.8203 58.858 20.0681 58.858 19.1602V9.16518H54.9498V6.80741H58.858V1.72697H61.688V6.80741H66.3036V9.16518H61.688V18.9275C61.688 19.57 61.8449 20.0456 62.1597 20.3554C62.4741 20.6657 62.9567 20.8203 63.6085 20.8203H66.9102V23.2444H63.1368Z" fill="white"/>
<path id="Vector_7" d="M24.7486 55.4476C23.4683 55.4476 22.3114 55.099 21.2786 54.4014C20.2451 53.7043 19.4307 52.6974 18.8359 51.3797C18.2405 50.063 17.943 48.5187 17.943 46.7474C17.943 44.9769 18.2405 43.4383 18.8359 42.1318C19.4306 40.8259 20.2451 39.8241 21.2786 39.1269C22.3114 38.4293 23.4683 38.0808 24.7486 38.0808C26.231 38.0808 27.4046 38.4681 28.2693 39.2428C29.1338 40.018 29.7685 40.981 30.1729 42.1318H31.8912C31.3522 41.3132 30.9421 40.4666 30.6614 39.5914C30.3803 38.7172 30.2402 37.5495 30.2402 36.0884V31.7383H33.0702V54.9827H30.4761C30.4761 54.4295 30.6162 53.8319 30.8973 53.1894C31.1779 52.5479 31.4979 51.9502 31.8575 51.3965H30.2066C29.7569 52.5254 29.1226 53.4833 28.3029 54.2687C27.4828 55.0542 26.2985 55.4476 24.7486 55.4476ZM25.591 53.0235C26.5342 53.0235 27.3598 52.7912 28.0673 52.3263C28.7747 51.8614 29.336 51.1587 29.7517 50.2176C30.167 49.277 30.3751 48.1206 30.3751 46.7473C30.3751 45.375 30.167 44.2186 29.7517 43.2775C29.336 42.3369 28.7747 41.6393 28.0673 41.1856C27.3598 40.7319 26.5342 40.5048 25.591 40.5048C24.6696 40.5048 23.8559 40.7095 23.1483 41.1192C22.4408 41.529 21.8901 42.1981 21.4974 43.128C21.1041 44.0578 20.9079 45.2647 20.9079 46.7473C20.9079 48.2084 21.11 49.4041 21.5142 50.3339C21.9186 51.2633 22.4688 51.9441 23.1652 52.3758C23.8611 52.8076 24.6696 53.0235 25.591 53.0235Z" fill="white"/>
<path id="Vector_8" d="M63.2913 54.9827C62.3479 54.9827 61.5562 54.828 60.9159 54.5178C60.2759 54.208 59.7985 53.7543 59.4842 53.1562C59.1694 52.5586 59.0125 51.8063 59.0125 50.8984V40.9034H55.1042V38.5456H59.0125V33.4652H61.8425V38.5456H66.4581V40.9034H61.8425V50.6657C61.8425 51.3082 61.9994 51.7839 62.3142 52.0936C62.6285 52.4039 63.1111 52.5586 63.763 52.5586H67.0647V54.9827H63.2913Z" fill="white"/>
<path id="Vector_9" d="M76.2957 55.4476C75.0827 55.4476 73.9708 55.2649 72.9601 54.8995C71.9493 54.5346 71.1071 53.9977 70.4332 53.2894C69.7596 52.581 69.3099 51.7283 69.0857 50.7321L71.8147 49.8691C71.9493 50.4667 72.1963 51.0092 72.5559 51.496C72.9148 51.9834 73.4093 52.3759 74.0383 52.6749C74.6667 52.9735 75.4307 53.123 76.3293 53.123C77.5422 53.123 78.4738 52.9072 79.1256 52.4754C79.7768 52.0441 80.1027 51.4409 80.1027 50.6658C80.1027 50.0018 79.8609 49.4537 79.3783 49.022C78.895 48.5907 78.1033 48.2641 77.0029 48.0426L74.9142 47.644C73.8809 47.423 72.9937 47.1459 72.2527 46.8142C71.5115 46.482 70.9102 46.0002 70.4501 45.3694C69.9895 44.7386 69.7596 43.9364 69.7596 42.9622C69.7596 42.0323 70.0343 41.1969 70.5849 40.4549C71.1351 39.7133 71.8872 39.1325 72.8422 38.7116C73.7965 38.2915 74.8353 38.0807 75.9586 38.0807C77.8226 38.0807 79.3051 38.4742 80.4059 39.2596C81.5062 40.0456 82.2363 41.0254 82.5958 42.1982L80.069 43.1612C79.9116 42.6963 79.6758 42.2594 79.3615 41.8496C79.0467 41.4403 78.6034 41.0856 78.0307 40.7871C77.4578 40.488 76.7557 40.3385 75.9249 40.3385C74.8241 40.3385 73.9819 40.566 73.3981 41.0193C72.8138 41.4735 72.5222 42.0323 72.5222 42.6963C72.5222 43.2939 72.7242 43.7705 73.1286 44.1242C73.533 44.4788 74.2851 44.755 75.3859 44.9545L77.4747 45.3531C78.9346 45.6848 80.2205 46.2277 81.3324 46.98C82.4441 47.7328 83 48.8841 83 50.4335C83 51.4297 82.7357 52.3044 82.2083 53.0566C81.6804 53.8094 80.9164 54.3963 79.9173 54.8168C78.9177 55.2368 77.7105 55.4476 76.2957 55.4476Z" fill="white"/>
</g>
<defs>
<clipPath id="clip0_108_6061">
<rect width="83" height="56" fill="white"/>
</clipPath>
</defs>
</svg>
