<svg width="870" height="330" viewBox="0 0 870 330" fill="none" xmlns="http://www.w3.org/2000/svg">
<path d="M711.949 310.881C708.15 308.86 704.411 306.689 700.748 304.343C697.48 302.024 694.204 299.732 690.836 297.463C687.464 294.933 684.213 292.264 681.053 289.49C532.204 195.68 427.879 174.097 277.721 284.033C272.853 288.73 267.687 293.207 262.141 297.365C258.928 299.776 255.634 301.998 252.308 304.138C180.535 350.266 84.1626 333.416 32.4749 263.669C-21.6095 190.687 -6.58508 87.0557 65.9706 32.6529C120.169 -7.98089 191.36 -9.81338 246.462 22.2714C253.657 26.4595 260.58 31.215 267.151 36.5487C416.452 133.787 523.507 156.84 675.464 45.9193C680.277 41.2894 685.382 36.8734 690.858 32.7706C694.183 30.2746 697.593 27.9787 701.04 25.7761C772.776 -20.0755 868.925 -3.17365 920.528 66.4628C974.611 139.442 959.582 243.079 887.025 297.478C836.236 335.562 767.432 340.419 711.949 310.881Z" fill="#3F83F8"/>
</svg>
